WorkSans-Medium.ufo
<glyph name="numbersign" format="2">
  <advance width="655"/>
  <unicode hex="0023"/>
  <outline>
    <contour>
      <point x="457" y="660" type="line"/>
      <point x="348" y="0" type="line"/>
      <point x="430" y="0" type="line"/>
      <point x="539" y="660" type="line"/>
    </contour>
    <contour>
      <point x="22" y="252" type="line"/>
      <point x="22" y="179" type="line"/>
      <point x="588" y="179" type="line"/>
      <point x="588" y="252" type="line"/>
    </contour>
    <contour>
      <point x="219" y="660" type="line"/>
      <point x="110" y="0" type="line"/>
      <point x="193" y="0" type="line"/>
      <point x="302" y="660" type="line"/>
    </contour>
    <contour>
      <point x="65" y="485" type="line"/>
      <point x="65" y="412" type="line"/>
      <point x="632" y="412" type="line"/>
      <point x="632" y="485" type="line"/>
    </contour>
  </outline>
</glyph>
<glyph name="plus" format="2">
  <advance width="604"/>
  <unicode hex="002B"/>
  <outline>
    <contour>
      <point x="256" y="572" type="line"/>
      <point x="256" y="66" type="line"/>
      <point x="349" y="66" type="line"/>
      <point x="349" y="572" type="line"/>
    </contour>
    <contour>
      <point x="56" y="364" type="line"/>
      <point x="56" y="275" type="line"/>
      <point x="548" y="275" type="line"/>
      <point x="548" y="364" type="line"/>
    </contour>
  </outline>
</glyph>
<glyph name="hyphen" format="2">
  <advance width="515"/>
  <unicode hex="002D"/>
  <outline>
    <contour>
      <point x="87" y="313" type="line"/>
      <point x="87" y="214" type="line"/>
      <point x="428" y="214" type="line"/>
      <point x="428" y="313" type="line"/>
    </contour>
  </outline>
</glyph>
<glyph name="slash" format="2">
  <advance width="447"/>
  <unicode hex="002F"/>
  <outline>
    <contour>
      <point x="322" y="725" type="line"/>
      <point x="24" y="-70" type="line"/>
      <point x="124" y="-70" type="line"/>
      <point x="422" y="725" type="line"/>
    </contour>
  </outline>
</glyph>
<glyph name="zero" format="2">
  <advance width="628"/>
  <unicode hex="0030"/>
  <outline>
    <contour>
      <point x="569" y="330" type="curve" smooth="yes"/>
      <point x="569" y="552"/>
      <point x="481" y="670"/>
      <point x="314" y="670" type="curve" smooth="yes"/>
      <point x="147" y="670"/>
      <point x="60" y="552"/>
      <point x="60" y="330" type="curve" smooth="yes"/>
      <point x="60" y="108"/>
      <point x="147" y="-10"/>
      <point x="314" y="-10" type="curve" smooth="yes"/>
      <point x="481" y="-10"/>
      <point x="569" y="108"/>
    </contour>
    <contour>
      <point x="169" y="330" type="curve" smooth="yes"/>
      <point x="169" y="496"/>
      <point x="218" y="579"/>
      <point x="314" y="579" type="curve" smooth="yes"/>
      <point x="410" y="579"/>
      <point x="460" y="496"/>
      <point x="460" y="330" type="curve" smooth="yes"/>
      <point x="460" y="164"/>
      <point x="410" y="81"/>
      <point x="314" y="81" type="curve" smooth="yes"/>
      <point x="218" y="81"/>
      <point x="169" y="164"/>
    </contour>
  </outline>
</glyph>
<glyph name="one" format="2">
  <advance width="418"/>
  <unicode hex="0031"/>
  <outline>
    <contour>
      <point x="324" y="660" type="line"/>
      <point x="234" y="660" type="line"/>
      <point x="225" y="609"/>
      <point x="219" y="537"/>
      <point x="219" y="488" type="curve" smooth="yes"/>
      <point x="219" y="0" type="line"/>
      <point x="324" y="0" type="line"/>
      <point x="324" y="506" type="line"/>
    </contour>
    <contour>
      <point x="287" y="631" type="curve"/>
      <point x="234" y="660" type="line"/>
      <point x="199" y="610"/>
      <point x="87" y="550"/>
      <point x="34" y="543" type="curve"/>
      <point x="54" y="450" type="line"/>
      <point x="153" y="471"/>
      <point x="252" y="550"/>
    </contour>
  </outline>
</glyph>
<glyph name="two" format="2">
  <advance width="587"/>
  <unicode hex="0032"/>
  <outline>
    <contour>
      <point x="529" y="0" type="line"/>
      <point x="529" y="92" type="line"/>
      <point x="321" y="92" type="line" smooth="yes"/>
      <point x="294" y="92"/>
      <point x="237" y="90"/>
      <point x="212" y="88" type="curve"/>
      <point x="212" y="90" type="line"/>
      <point x="431" y="230"/>
      <point x="517" y="336"/>
      <point x="517" y="462" type="curve" smooth="yes"/>
      <point x="517" y="578"/>
      <point x="434" y="670"/>
      <point x="288" y="670" type="curve" smooth="yes"/>
      <point x="149" y="670"/>
      <point x="62" y="590"/>
      <point x="49" y="465" type="curve"/>
      <point x="142" y="422" type="line"/>
      <point x="149" y="518"/>
      <point x="199" y="577"/>
      <point x="282" y="577" type="curve" smooth="yes"/>
      <point x="360" y="577"/>
      <point x="407" y="528"/>
      <point x="407" y="458" type="curve" smooth="yes"/>
      <point x="407" y="348"/>
      <point x="323" y="257"/>
      <point x="70" y="79" type="curve"/>
      <point x="70" y="0" type="line"/>
    </contour>
  </outline>
</glyph>
<glyph name="six" format="2">
  <advance width="617"/>
  <unicode hex="0036"/>
  <outline>
    <contour>
      <point x="65" y="330" type="curve" smooth="yes"/>
      <point x="65" y="125"/>
      <point x="157" y="-10"/>
      <point x="326" y="-10" type="curve" smooth="yes"/>
      <point x="471" y="-10"/>
      <point x="561" y="73"/>
      <point x="561" y="205" type="curve" smooth="yes"/>
      <point x="561" y="334"/>
      <point x="472" y="416"/>
      <point x="341" y="416" type="curve" smooth="yes"/>
      <point x="268" y="416"/>
      <point x="189" y="382"/>
      <point x="167" y="305" type="curve"/>
      <point x="163" y="305" type="line"/>
      <point x="163" y="315"/>
      <point x="163" y="319"/>
      <point x="163" y="323" type="curve" smooth="yes"/>
      <point x="163" y="469"/>
      <point x="229" y="577"/>
      <point x="326" y="577" type="curve" smooth="yes"/>
      <point x="397" y="577"/>
      <point x="436" y="542"/>
      <point x="454" y="484" type="curve"/>
      <point x="548" y="529" type="line"/>
      <point x="509" y="630"/>
      <point x="438" y="670"/>
      <point x="332" y="670" type="curve" smooth="yes"/>
      <point x="180" y="670"/>
      <point x="65" y="555"/>
    </contour>
    <contour>
      <point x="455" y="206" type="curve" smooth="yes"/>
      <point x="455" y="128"/>
      <point x="408" y="82"/>
      <point x="326" y="82" type="curve" smooth="yes"/>
      <point x="248" y="82"/>
      <point x="197" y="131"/>
      <point x="197" y="206" type="curve" smooth="yes"/>
      <point x="197" y="278"/>
      <point x="248" y="327"/>
      <point x="326" y="327" type="curve" smooth="yes"/>
      <point x="408" y="327"/>
      <point x="455" y="281"/>
    </contour>
  </outline>
</glyph>
<glyph name="seven" format="2">
  <advance width="577"/>
  <unicode hex="0037"/>
  <outline>
    <contour>
      <point x="41" y="567" type="line"/>
      <point x="480" y="567" type="line"/>
      <point x="460" y="594" type="line"/>
      <point x="287" y="424"/>
      <point x="205" y="221"/>
      <point x="205" y="0" type="curve"/>
      <point x="314" y="0" type="line"/>
      <point x="314" y="217"/>
      <point x="377" y="400"/>
      <point x="544" y="571" type="curve"/>
      <point x="544" y="660" type="line"/>
      <point x="41" y="660" type="line"/>
    </contour>
  </outline>
</glyph>
<glyph name="eight" format="2">
  <advance width="619"/>
  <unicode hex="0038"/>
  <outline>
    <contour>
      <point x="88" y="492" type="curve" smooth="yes"/>
      <point x="88" y="423"/>
      <point x="125" y="370"/>
      <point x="186" y="345" type="curve"/>
      <point x="186" y="344" type="line"/>
      <point x="108" y="316"/>
      <point x="61" y="258"/>
      <point x="61" y="177" type="curve" smooth="yes"/>
      <point x="61" y="62"/>
      <point x="159" y="-10"/>
      <point x="310" y="-10" type="curve" smooth="yes"/>
      <point x="461" y="-10"/>
      <point x="558" y="62"/>
      <point x="558" y="177" type="curve" smooth="yes"/>
      <point x="558" y="260"/>
      <point x="511" y="316"/>
      <point x="434" y="344" type="curve"/>
      <point x="434" y="345" type="line"/>
      <point x="495" y="371"/>
      <point x="531" y="424"/>
      <point x="531" y="492" type="curve" smooth="yes"/>
      <point x="531" y="601"/>
      <point x="444" y="669"/>
      <point x="310" y="669" type="curve" smooth="yes"/>
      <point x="175" y="669"/>
      <point x="88" y="601"/>
    </contour>
    <contour>
      <point x="425" y="482" type="curve" smooth="yes"/>
      <point x="425" y="422"/>
      <point x="379" y="386"/>
      <point x="310" y="386" type="curve" smooth="yes"/>
      <point x="240" y="386"/>
      <point x="195" y="422"/>
      <point x="195" y="482" type="curve" smooth="yes"/>
      <point x="195" y="543"/>
      <point x="239" y="579"/>
      <point x="310" y="579" type="curve" smooth="yes"/>
      <point x="380" y="579"/>
      <point x="425" y="543"/>
    </contour>
    <contour>
      <point x="169" y="189" type="curve" smooth="yes"/>
      <point x="169" y="258"/>
      <point x="225" y="299"/>
      <point x="310" y="299" type="curve" smooth="yes"/>
      <point x="395" y="299"/>
      <point x="450" y="258"/>
      <point x="450" y="189" type="curve" smooth="yes"/>
      <point x="450" y="121"/>
      <point x="397" y="80"/>
      <point x="310" y="80" type="curve" smooth="yes"/>
      <point x="223" y="80"/>
      <point x="169" y="121"/>
    </contour>
  </outline>
</glyph>
<glyph name="D" format="2">
  <advance width="720"/>
  <unicode hex="0044"/>
  <anchor x="326" y="0" name="bottom"/>
  <anchor x="326" y="660" name="top"/>
  <anchor x="331" y="0" name="ogonek"/>
  <anchor x="303" y="273" name="center"/>
  <anchor x="317" y="0" name="bottomC"/>
  <outline>
    <contour>
      <point x="161" y="660" type="line"/>
      <point x="161" y="569" type="line"/>
      <point x="331" y="569" type="line" smooth="yes"/>
      <point x="470" y="569"/>
      <point x="547" y="482"/>
      <point x="547" y="330" type="curve" smooth="yes"/>
      <point x="547" y="178"/>
      <point x="470" y="91"/>
      <point x="331" y="91" type="curve" smooth="yes"/>
      <point x="161" y="91" type="line"/>
      <point x="161" y="0" type="line"/>
      <point x="331" y="0" type="line" smooth="yes"/>
      <point x="538" y="0"/>
      <point x="659" y="118"/>
      <point x="659" y="330" type="curve" smooth="yes"/>
      <point x="659" y="542"/>
      <point x="538" y="660"/>
      <point x="331" y="660" type="curve" smooth="yes"/>
    </contour>
    <contour>
      <point x="98" y="660" type="line"/>
      <point x="98" y="0" type="line"/>
      <point x="205" y="0" type="line"/>
      <point x="205" y="660" type="line"/>
    </contour>
  </outline>
</glyph>
<glyph name="E" format="2">
  <advance width="636"/>
  <unicode hex="0045"/>
  <anchor x="334" y="660" name="top"/>
  <anchor x="591" y="0" name="ogonek"/>
  <anchor x="337" y="0" name="bottom"/>
  <anchor x="337" y="0" name="bottomC"/>
  <outline>
    <contour>
      <point x="98" y="660" type="line"/>
      <point x="98" y="0" type="line"/>
      <point x="205" y="0" type="line"/>
      <point x="205" y="660" type="line"/>
    </contour>
    <contour>
      <point x="152" y="92" type="line"/>
      <point x="152" y="0" type="line"/>
      <point x="590" y="0" type="line"/>
      <point x="590" y="92" type="line"/>
    </contour>
    <contour>
      <point x="152" y="378" type="line"/>
      <point x="152" y="288" type="line"/>
      <point x="495" y="288" type="line"/>
      <point x="495" y="378" type="line"/>
    </contour>
    <contour>
      <point x="152" y="660" type="line"/>
      <point x="152" y="568" type="line"/>
      <point x="576" y="568" type="line"/>
      <point x="576" y="660" type="line"/>
    </contour>
  </outline>
</glyph>
<glyph name="F" format="2">
  <advance width="611"/>
  <unicode hex="0046"/>
  <anchor x="330" y="660" name="top"/>
  <anchor x="205" y="0" name="ogonek"/>
  <anchor x="151" y="0" name="bottom"/>
  <anchor x="168" y="0" name="bottomC"/>
  <outline>
    <contour>
      <point x="98" y="660" type="line"/>
      <point x="98" y="0" type="line"/>
      <point x="205" y="0" type="line"/>
      <point x="205" y="660" type="line"/>
    </contour>
    <contour>
      <point x="152" y="377" type="line"/>
      <point x="152" y="284" type="line"/>
      <point x="495" y="284" type="line"/>
      <point x="495" y="377" type="line"/>
    </contour>
    <contour>
      <point x="152" y="660" type="line"/>
      <point x="152" y="568" type="line"/>
      <point x="575" y="568" type="line"/>
      <point x="575" y="660" type="line"/>
    </contour>
  </outline>
</glyph>
<glyph name="K" format="2">
  <advance width="667"/>
  <unicode hex="004B"/>
  <anchor x="354" y="660" name="top"/>
  <anchor x="645" y="0" name="ogonek"/>
  <anchor x="370" y="0" name="bottom"/>
  <anchor x="591" y="0" name="bottomC"/>
  <outline>
    <contour>
      <point x="508" y="660" type="line"/>
      <point x="152" y="274" type="line"/>
      <point x="162" y="157" type="line"/>
      <point x="333" y="341" type="line"/>
      <point x="345" y="342" type="line"/>
      <point x="639" y="660" type="line"/>
    </contour>
    <contour>
      <point x="98" y="660" type="line"/>
      <point x="98" y="0" type="line"/>
      <point x="205" y="0" type="line"/>
      <point x="205" y="660" type="line"/>
    </contour>
    <contour>
      <point x="282" y="364" type="line"/>
      <point x="519" y="0" type="line"/>
      <point x="645" y="0" type="line"/>
      <point x="367" y="424" type="line"/>
    </contour>
  </outline>
</glyph>
<glyph name="L" format="2">
  <advance width="599"/>
  <unicode hex="004C"/>
  <anchor x="453" y="346" name="center"/>
  <anchor x="354" y="0" name="bottom"/>
  <anchor x="151" y="660" name="top"/>
  <anchor x="354" y="0" name="bottomC"/>
  <anchor x="316" y="700" name="topright"/>
  <anchor x="569" y="0" name="ogonek"/>
  <outline>
    <contour>
      <point x="98" y="660" type="line"/>
      <point x="98" y="0" type="line"/>
      <point x="205" y="0" type="line"/>
      <point x="205" y="660" type="line"/>
    </contour>
    <contour>
      <point x="152" y="92" type="line"/>
      <point x="152" y="0" type="line"/>
      <point x="569" y="0" type="line"/>
      <point x="569" y="92" type="line"/>
    </contour>
  </outline>
</glyph>
<glyph name="M" format="2">
  <advance width="871"/>
  <unicode hex="004D"/>
  <anchor x="435" y="660" name="top"/>
  <anchor x="773" y="0" name="ogonek"/>
  <anchor x="435" y="0" name="bottom"/>
  <anchor x="460" y="0" name="bottomC"/>
  <outline>
    <contour>
      <point x="617" y="660" type="line"/>
      <point x="485" y="278" type="line"/>
      <point x="438" y="121" type="line"/>
      <point x="436" y="121" type="line"/>
      <point x="390" y="278" type="line"/>
      <point x="257" y="660" type="line"/>
      <point x="98" y="660" type="line"/>
      <point x="98" y="0" type="line"/>
      <point x="197" y="0" type="line"/>
      <point x="197" y="382" type="line"/>
      <point x="189" y="564" type="line"/>
      <point x="190" y="564" type="line"/>
      <point x="391" y="0" type="line"/>
      <point x="480" y="0" type="line"/>
      <point x="681" y="564" type="line"/>
      <point x="682" y="564" type="line"/>
      <point x="675" y="382" type="line"/>
      <point x="675" y="0" type="line"/>
      <point x="773" y="0" type="line"/>
      <point x="773" y="660" type="line"/>
    </contour>
  </outline>
</glyph>
<glyph name="N" format="2">
  <advance width="736"/>
  <unicode hex="004E"/>
  <anchor x="371" y="660" name="top"/>
  <anchor x="639" y="0" name="ogonek"/>
  <anchor x="393" y="0" name="bottom"/>
  <anchor x="573" y="0" name="bottomC"/>
  <outline>
    <contour>
      <point x="540" y="660" type="line"/>
      <point x="540" y="234" type="line"/>
      <point x="544" y="122" type="line"/>
      <point x="543" y="122" type="line"/>
      <point x="478" y="245" type="line"/>
      <point x="224" y="660" type="line"/>
      <point x="98" y="660" type="line"/>
      <point x="98" y="0" type="line"/>
      <point x="196" y="0" type="line"/>
      <point x="196" y="426" type="line"/>
      <point x="192" y="538" type="line"/>
      <point x="193" y="538" type="line"/>
      <point x="257" y="416" type="line"/>
      <point x="512" y="0" type="line"/>
      <point x="639" y="0" type="line"/>
      <point x="639" y="660" type="line"/>
    </contour>
  </outline>
</glyph>
<glyph name="P" format="2">
  <advance width="627"/>
  <unicode hex="0050"/>
  <anchor x="319" y="660" name="top"/>
  <anchor x="205" y="0" name="ogonek"/>
  <anchor x="151" y="0" name="bottom"/>
  <anchor x="151" y="0" name="bottomC"/>
  <outline>
    <contour>
      <point x="161" y="660" type="line"/>
      <point x="161" y="569" type="line"/>
      <point x="335" y="569" type="line" smooth="yes"/>
      <point x="430" y="569"/>
      <point x="473" y="529"/>
      <point x="473" y="454" type="curve" smooth="yes"/>
      <point x="473" y="379"/>
      <point x="430" y="340"/>
      <point x="335" y="340" type="curve" smooth="yes"/>
      <point x="161" y="340" type="line"/>
      <point x="161" y="249" type="line"/>
      <point x="352" y="249" type="line" smooth="yes"/>
      <point x="494" y="249"/>
      <point x="584" y="326"/>
      <point x="584" y="454" type="curve" smooth="yes"/>
      <point x="584" y="583"/>
      <point x="494" y="660"/>
      <point x="352" y="660" type="curve" smooth="yes"/>
    </contour>
    <contour>
      <point x="98" y="660" type="line"/>
      <point x="98" y="0" type="line"/>
      <point x="205" y="0" type="line"/>
      <point x="205" y="660" type="line"/>
    </contour>
  </outline>
</glyph>
<glyph name="Q" format="2">
  <advance width="745"/>
  <unicode hex="0051"/>
  <anchor x="372" y="660" name="top"/>
  <anchor x="574" y="-192" name="ogonek"/>
  <anchor x="372" y="-210" name="bottom"/>
  <anchor x="528" y="-192" name="bottomC"/>
  <outline>
    <contour>
      <point x="330" y="20" type="line"/>
      <point x="322" y="-137"/>
      <point x="412" y="-198"/>
      <point x="529" y="-198" type="curve" smooth="yes"/>
      <point x="586" y="-198"/>
      <point x="649" y="-181"/>
      <point x="682" y="-153" type="curve"/>
      <point x="651" y="-63" type="line"/>
      <point x="626" y="-87"/>
      <point x="583" y="-101"/>
      <point x="532" y="-101" type="curve" smooth="yes"/>
      <point x="460" y="-101"/>
      <point x="404" y="-80"/>
      <point x="413" y="35" type="curve"/>
    </contour>
    <component base="O"/>
  </outline>
</glyph>
<glyph name="T" format="2">
  <advance width="619"/>
  <unicode hex="0054"/>
  <anchor x="309" y="0" name="bottom"/>
  <anchor x="309" y="660" name="top"/>
  <anchor x="363" y="0" name="ogonek"/>
  <anchor x="309" y="330" name="center"/>
  <anchor x="339" y="0" name="bottomC"/>
  <outline>
    <contour>
      <point x="256" y="660" type="line"/>
      <point x="256" y="0" type="line"/>
      <point x="363" y="0" type="line"/>
      <point x="363" y="660" type="line"/>
    </contour>
    <contour>
      <point x="30" y="660" type="line"/>
      <point x="30" y="568" type="line"/>
      <point x="589" y="568" type="line"/>
      <point x="589" y="660" type="line"/>
    </contour>
  </outline>
</glyph>
<glyph name="U" format="2">
  <advance width="718"/>
  <unicode hex="0055"/>
  <anchor x="359" y="660" name="top"/>
  <anchor x="482" y="15" name="ogonek"/>
  <anchor x="359" y="0" name="bottom"/>
  <anchor x="359" y="0" name="bottomC"/>
  <outline>
    <contour>
      <point x="521" y="660" type="line"/>
      <point x="521" y="266" type="line" smooth="yes"/>
      <point x="521" y="141"/>
      <point x="470" y="83"/>
      <point x="359" y="83" type="curve" smooth="yes"/>
      <point x="248" y="83"/>
      <point x="197" y="141"/>
      <point x="197" y="266" type="curve" smooth="yes"/>
      <point x="197" y="660" type="line"/>
      <point x="89" y="660" type="line"/>
      <point x="89" y="253" type="line" smooth="yes"/>
      <point x="89" y="78"/>
      <point x="184" y="-10"/>
      <point x="359" y="-10" type="curve" smooth="yes"/>
      <point x="534" y="-10"/>
      <point x="629" y="78"/>
      <point x="629" y="253" type="curve" smooth="yes"/>
      <point x="629" y="660" type="line"/>
    </contour>
  </outline>
</glyph>
<glyph name="X" format="2">
  <advance width="620"/>
  <unicode hex="0058"/>
  <anchor x="308" y="660" name="top"/>
  <anchor x="595" y="0" name="ogonek"/>
  <anchor x="308" y="0" name="bottom"/>
  <anchor x="541" y="0" name="bottomC"/>
  <outline>
    <contour>
      <point x="470" y="660" type="line"/>
      <point x="292" y="373" type="line"/>
      <point x="277" y="375" type="line"/>
      <point x="21" y="0" type="line"/>
      <point x="144" y="0" type="line"/>
      <point x="332" y="298" type="line"/>
      <point x="346" y="298" type="line"/>
      <point x="586" y="660" type="line"/>
    </contour>
    <contour>
      <point x="39" y="660" type="line"/>
      <point x="270" y="304" type="line"/>
      <point x="284" y="293" type="line"/>
      <point x="468" y="0" type="line"/>
      <point x="595" y="0" type="line"/>
      <point x="356" y="366" type="line"/>
      <point x="339" y="380" type="line"/>
      <point x="166" y="660" type="line"/>
    </contour>
  </outline>
</glyph>
<glyph name="Z" format="2">
  <advance width="631"/>
  <unicode hex="005A"/>
  <anchor x="310" y="660" name="top"/>
  <anchor x="583" y="0" name="ogonek"/>
  <anchor x="306" y="0" name="bottom"/>
  <anchor x="306" y="0" name="bottomC"/>
  <outline>
    <contour>
      <point x="571" y="573" type="line"/>
      <point x="571" y="660" type="line"/>
      <point x="59" y="660" type="line"/>
      <point x="59" y="569" type="line"/>
      <point x="499" y="569" type="line"/>
      <point x="480" y="606" type="line"/>
      <point x="50" y="87" type="line"/>
      <point x="50" y="0" type="line"/>
      <point x="583" y="0" type="line"/>
      <point x="583" y="91" type="line"/>
      <point x="122" y="91" type="line"/>
      <point x="141" y="54" type="line"/>
    </contour>
  </outline>
</glyph>
<glyph name="bracketleft" format="2">
  <advance width="361"/>
  <unicode hex="005B"/>
  <outline>
    <contour>
      <point x="86" y="725" type="line"/>
      <point x="86" y="-168" type="line"/>
      <point x="183" y="-168" type="line"/>
      <point x="183" y="725" type="line"/>
    </contour>
    <contour>
      <point x="138" y="-83" type="line"/>
      <point x="138" y="-168" type="line"/>
      <point x="330" y="-168" type="line"/>
      <point x="330" y="-83" type="line"/>
    </contour>
    <contour>
      <point x="138" y="725" type="line"/>
      <point x="138" y="640" type="line"/>
      <point x="330" y="640" type="line"/>
      <point x="330" y="725" type="line"/>
    </contour>
  </outline>
</glyph>
<glyph name="grave" format="2">
  <advance width="500"/>
  <unicode hex="0060"/>
  <anchor x="250" y="500" name="_top"/>
  <outline>
    <contour>
      <point x="118" y="746" type="line"/>
      <point x="217" y="578" type="line"/>
      <point x="299" y="578" type="line"/>
      <point x="226" y="746" type="line"/>
    </contour>
  </outline>
</glyph>
<glyph name="b" format="2">
  <advance width="629"/>
  <unicode hex="0062"/>
  <anchor x="137" y="725" name="top"/>
  <anchor x="454" y="16" name="ogonek"/>
  <anchor x="321" y="0" name="bottom"/>
  <anchor x="343" y="0" name="bottomC"/>
  <outline>
    <contour>
      <point x="83" y="725" type="line"/>
      <point x="83" y="135" type="line"/>
      <point x="83" y="0" type="line"/>
      <point x="177" y="0" type="line"/>
      <point x="184" y="126" type="line"/>
      <point x="190" y="176" type="line"/>
      <point x="190" y="725" type="line"/>
    </contour>
    <component base="bowl" xScale="-1.0" xOffset="653"/>
  </outline>
</glyph>
<glyph name="d" format="2">
  <advance width="629"/>
  <unicode hex="0064"/>
  <anchor x="321" y="250" name="center"/>
  <anchor x="308" y="0" name="bottom"/>
  <anchor x="493" y="725" name="top"/>
  <anchor x="293" y="0" name="bottomC"/>
  <anchor x="619" y="725" name="topright"/>
  <anchor x="374" y="16" name="ogonek"/>
  <outline>
    <contour>
      <point x="439" y="725" type="line"/>
      <point x="439" y="140" type="line"/>
      <point x="444" y="125" type="line"/>
      <point x="452" y="0" type="line"/>
      <point x="546" y="0" type="line"/>
      <point x="546" y="135" type="line"/>
      <point x="546" y="725" type="line"/>
    </contour>
    <component base="bowl" xOffset="-24"/>
  </outline>
</glyph>
<glyph name="h" format="2">
  <advance width="619"/>
  <unicode hex="0068"/>
  <anchor x="137" y="725" name="top"/>
  <anchor x="540" y="0" name="ogonek"/>
  <anchor x="335" y="0" name="bottom"/>
  <anchor x="487" y="0" name="bottomC"/>
  <outline>
    <contour>
      <point x="83" y="725" type="line"/>
      <point x="83" y="0" type="line"/>
      <point x="190" y="0" type="line"/>
      <point x="190" y="725" type="line"/>
    </contour>
    <contour>
      <point x="161" y="283" type="curve"/>
      <point x="190" y="264" type="line"/>
      <point x="190" y="379"/>
      <point x="260" y="422"/>
      <point x="326" y="422" type="curve" smooth="yes"/>
      <point x="387" y="422"/>
      <point x="433" y="389"/>
      <point x="433" y="290" type="curve" smooth="yes"/>
      <point x="433" y="0" type="line"/>
      <point x="540" y="0" type="line"/>
      <point x="540" y="324" type="line" smooth="yes"/>
      <point x="540" y="449"/>
      <point x="458" y="510"/>
      <point x="352" y="510" type="curve" smooth="yes"/>
      <point x="244" y="510"/>
      <point x="161" y="443"/>
    </contour>
  </outline>
</glyph>
<glyph name="i" format="2">
  <advance width="274"/>
  <unicode hex="0069"/>
  <anchor x="137" y="707" name="top"/>
  <anchor x="187" y="2" name="ogonek"/>
  <anchor x="137" y="0" name="bottom"/>
  <anchor x="137" y="0" name="bottomC"/>
  <outline>
    <contour>
      <point x="208" y="651" type="curve" smooth="yes"/>
      <point x="208" y="693"/>
      <point x="183" y="717"/>
      <point x="137" y="717" type="curve" smooth="yes"/>
      <point x="91" y="717"/>
      <point x="65" y="693"/>
      <point x="65" y="651" type="curve" smooth="yes"/>
      <point x="65" y="609"/>
      <point x="91" y="584"/>
      <point x="137" y="584" type="curve" smooth="yes"/>
      <point x="183" y="584"/>
      <point x="208" y="609"/>
    </contour>
    <component base="idotless"/>
  </outline>
</glyph>
<glyph name="n" format="2">
  <advance width="619"/>
  <unicode hex="006E"/>
  <anchor x="316" y="500" name="top"/>
  <anchor x="540" y="0" name="ogonek"/>
  <anchor x="335" y="0" name="bottom"/>
  <anchor x="487" y="0" name="bottomC"/>
  <outline>
    <contour>
      <point x="155" y="286" type="curve"/>
      <point x="190" y="265" type="line"/>
      <point x="190" y="380"/>
      <point x="260" y="422"/>
      <point x="326" y="422" type="curve" smooth="yes"/>
      <point x="387" y="422"/>
      <point x="433" y="389"/>
      <point x="433" y="290" type="curve" smooth="yes"/>
      <point x="433" y="0" type="line"/>
      <point x="540" y="0" type="line"/>
      <point x="540" y="324" type="line" smooth="yes"/>
      <point x="540" y="449"/>
      <point x="458" y="510"/>
      <point x="352" y="510" type="curve" smooth="yes"/>
      <point x="243" y="510"/>
      <point x="155" y="445"/>
    </contour>
    <contour>
      <point x="83" y="500" type="line"/>
      <point x="83" y="365" type="line"/>
      <point x="83" y="0" type="line"/>
      <point x="190" y="0" type="line"/>
      <point x="190" y="360" type="line"/>
      <point x="185" y="375" type="line"/>
      <point x="178" y="500" type="line"/>
    </contour>
  </outline>
</glyph>
<glyph name="s" format="2">
  <advance width="529"/>
  <unicode hex="0073"/>
  <anchor x="267" y="500" name="top"/>
  <anchor x="392" y="16" name="ogonek"/>
  <anchor x="278" y="0" name="bottom"/>
  <anchor x="271" y="0" name="bottomC"/>
  <outline>
    <contour>
      <point x="482" y="144" type="curve" smooth="yes"/>
      <point x="482" y="228"/>
      <point x="429" y="271"/>
      <point x="287" y="294" type="curve" smooth="yes"/>
      <point x="195" y="309"/>
      <point x="165" y="328"/>
      <point x="165" y="365" type="curve" smooth="yes"/>
      <point x="165" y="397"/>
      <point x="208" y="428"/>
      <point x="270" y="428" type="curve" smooth="yes"/>
      <point x="330" y="428"/>
      <point x="377" y="406"/>
      <point x="401" y="346" type="curve"/>
      <point x="474" y="398" type="line"/>
      <point x="444" y="472"/>
      <point x="379" y="510"/>
      <point x="268" y="510" type="curve" smooth="yes"/>
      <point x="134" y="510"/>
      <point x="58" y="437"/>
      <point x="58" y="356" type="curve" smooth="yes"/>
      <point x="58" y="272"/>
      <point x="111" y="231"/>
      <point x="254" y="205" type="curve" smooth="yes"/>
      <point x="346" y="188"/>
      <point x="375" y="168"/>
      <point x="375" y="136" type="curve" smooth="yes"/>
      <point x="375" y="100"/>
      <point x="339" y="72"/>
      <point x="268" y="72" type="curve" smooth="yes"/>
      <point x="198" y="72"/>
      <point x="138" y="99"/>
      <point x="112" y="155" type="curve"/>
      <point x="40" y="96" type="line"/>
      <point x="82" y="23"/>
      <point x="167" y="-10"/>
      <point x="264" y="-10" type="curve" smooth="yes"/>
      <point x="402" y="-10"/>
      <point x="482" y="55"/>
    </contour>
  </outline>
</glyph>
<glyph name="v" format="2">
  <advance width="532"/>
  <unicode hex="0076"/>
  <anchor x="266" y="500" name="top"/>
  <anchor x="325" y="0" name="ogonek"/>
  <anchor x="266" y="0" name="bottom"/>
  <anchor x="281" y="0" name="bottomC"/>
  <outline>
    <contour>
      <point x="412" y="500" type="line"/>
      <point x="237" y="0" type="line"/>
      <point x="325" y="0" type="line"/>
      <point x="524" y="500" type="line"/>
    </contour>
    <contour>
      <point x="8" y="500" type="line"/>
      <point x="208" y="0" type="line"/>
      <point x="297" y="0" type="line"/>
      <point x="126" y="500" type="line"/>
    </contour>
  </outline>
</glyph>
<glyph name="w" format="2">
  <advance width="871"/>
  <unicode hex="0077"/>
  <anchor x="436" y="500" name="top"/>
  <anchor x="676" y="0" name="ogonek"/>
  <anchor x="436" y="0" name="bottom"/>
  <anchor x="632" y="0" name="bottomC"/>
  <outline>
    <contour>
      <point x="392" y="500" type="line"/>
      <point x="559" y="0" type="line"/>
      <point x="645" y="0" type="line"/>
      <point x="489" y="500" type="line"/>
    </contour>
    <contour>
      <point x="29" y="500" type="line"/>
      <point x="196" y="0" type="line"/>
      <point x="287" y="0" type="line"/>
      <point x="145" y="500" type="line"/>
    </contour>
    <contour>
      <point x="383" y="500" type="line"/>
      <point x="227" y="0" type="line"/>
      <point x="313" y="0" type="line"/>
      <point x="471" y="500" type="line"/>
    </contour>
    <contour>
      <point x="727" y="500" type="line"/>
      <point x="585" y="0" type="line"/>
      <point x="676" y="0" type="line"/>
      <point x="843" y="500" type="line"/>
    </contour>
  </outline>
</glyph>
<glyph name="y" format="2">
  <advance width="546"/>
  <unicode hex="0079"/>
  <anchor x="282" y="500" name="top"/>
  <anchor x="173" y="-210" name="ogonek"/>
  <anchor x="167" y="-210" name="bottom"/>
  <anchor x="131" y="-210" name="bottomC"/>
  <outline>
    <contour>
      <point x="422" y="500" type="line"/>
      <point x="318" y="195" type="line"/>
      <point x="284" y="92" type="line"/>
      <point x="255" y="186" type="line"/>
      <point x="145" y="500" type="line"/>
      <point x="25" y="500" type="line"/>
      <point x="181" y="121" type="line"/>
      <point x="233" y="-3" type="line"/>
      <point x="211" y="-57" type="line" smooth="yes"/>
      <point x="189" y="-115"/>
      <point x="161" y="-129"/>
      <point x="124" y="-129" type="curve" smooth="yes"/>
      <point x="93" y="-129"/>
      <point x="65" y="-121"/>
      <point x="42" y="-93" type="curve"/>
      <point x="11" y="-175" type="line"/>
      <point x="41" y="-203"/>
      <point x="77" y="-215"/>
      <point x="129" y="-215" type="curve" smooth="yes"/>
      <point x="219" y="-215"/>
      <point x="270" y="-175"/>
      <point x="314" y="-59" type="curve" smooth="yes"/>
      <point x="533" y="500" type="line"/>
    </contour>
  </outline>
</glyph>
<glyph name="braceleft" format="2">
  <advance width="372"/>
  <unicode hex="007B"/>
  <outline>
    <contour>
      <point x="144" y="609" type="curve" smooth="yes"/>
      <point x="144" y="423" type="line" smooth="yes"/>
      <point x="144" y="348"/>
      <point x="113" y="319"/>
      <point x="32" y="319" type="curve"/>
      <point x="32" y="269" type="line"/>
      <point x="163" y="269"/>
      <point x="237" y="310"/>
      <point x="237" y="408" type="curve" smooth="yes"/>
      <point x="237" y="607" type="line" smooth="yes"/>
      <point x="237" y="649"/>
      <point x="266" y="669"/>
      <point x="336" y="669" type="curve"/>
      <point x="325" y="747" type="line"/>
      <point x="193" y="747"/>
      <point x="144" y="701"/>
    </contour>
    <contour>
      <point x="32" y="237" type="line"/>
      <point x="113" y="237"/>
      <point x="144" y="208"/>
      <point x="144" y="133" type="curve" smooth="yes"/>
      <point x="144" y="-52" type="line" smooth="yes"/>
      <point x="144" y="-144"/>
      <point x="193" y="-190"/>
      <point x="325" y="-190" type="curve"/>
      <point x="336" y="-112" type="line"/>
      <point x="266" y="-112"/>
      <point x="237" y="-93"/>
      <point x="237" y="-50" type="curve" smooth="yes"/>
      <point x="237" y="149" type="line" smooth="yes"/>
      <point x="237" y="246"/>
      <point x="163" y="288"/>
      <point x="32" y="288" type="curve"/>
    </contour>
  </outline>
</glyph>
<glyph name="asciitilde" format="2">
  <advance width="557"/>
  <unicode hex="007E"/>
  <outline>
    <contour>
      <point x="421" y="396" type="line"/>
      <point x="414" y="353"/>
      <point x="396" y="327"/>
      <point x="364" y="327" type="curve" smooth="yes"/>
      <point x="306" y="327"/>
      <point x="273" y="398"/>
      <point x="183" y="398" type="curve" smooth="yes"/>
      <point x="96" y="398"/>
      <point x="50" y="342"/>
      <point x="43" y="235" type="curve"/>
      <point x="136" y="235" type="line"/>
      <point x="143" y="279"/>
      <point x="161" y="305"/>
      <point x="194" y="305" type="curve" smooth="yes"/>
      <point x="252" y="305"/>
      <point x="283" y="234"/>
      <point x="375" y="234" type="curve" smooth="yes"/>
      <point x="460" y="234"/>
      <point x="507" y="290"/>
      <point x="514" y="396" type="curve"/>
    </contour>
  </outline>
</glyph>
<glyph name="sterling" format="2">
  <advance width="625"/>
  <unicode hex="00A3"/>
  <outline>
    <contour>
      <point x="76" y="347" type="line"/>
      <point x="76" y="272" type="line"/>
      <point x="481" y="272" type="line"/>
      <point x="481" y="347" type="line"/>
    </contour>
    <component base="sterling.part" xOffset="14"/>
  </outline>
</glyph>
<glyph name="brokenbar" format="2">
  <advance width="260"/>
  <unicode hex="00A6"/>
  <outline>
    <contour>
      <point x="83" y="725" type="line"/>
      <point x="83" y="357" type="line"/>
      <point x="177" y="357" type="line"/>
      <point x="177" y="725" type="line"/>
    </contour>
    <contour>
      <point x="83" y="200" type="line"/>
      <point x="83" y="-168" type="line"/>
      <point x="177" y="-168" type="line"/>
      <point x="177" y="200" type="line"/>
    </contour>
  </outline>
</glyph>
<glyph name="registered" format="2">
  <advance width="806"/>
  <unicode hex="00AE"/>
  <outline>
    <contour>
      <point x="60" y="330" type="curve" smooth="yes"/>
      <point x="60" y="124"/>
      <point x="195" y="-10"/>
      <point x="403" y="-10" type="curve" smooth="yes"/>
      <point x="611" y="-10"/>
      <point x="746" y="124"/>
      <point x="746" y="330" type="curve" smooth="yes"/>
      <point x="746" y="536"/>
      <point x="611" y="670"/>
      <point x="403" y="670" type="curve" smooth="yes"/>
      <point x="195" y="670"/>
      <point x="60" y="536"/>
    </contour>
    <contour>
      <point x="270" y="514" type="line"/>
      <point x="270" y="146" type="line"/>
      <point x="347" y="146" type="line"/>
      <point x="347" y="514" type="line"/>
    </contour>
    <contour>
      <point x="392" y="294" type="line"/>
      <point x="484" y="146" type="line"/>
      <point x="574" y="146" type="line"/>
      <point x="457" y="317" type="line"/>
    </contour>
    <contour>
      <point x="669" y="330" type="curve" smooth="yes"/>
      <point x="669" y="167"/>
      <point x="565" y="61"/>
      <point x="403" y="61" type="curve" smooth="yes"/>
      <point x="241" y="61"/>
      <point x="136" y="167"/>
      <point x="136" y="330" type="curve" smooth="yes"/>
      <point x="136" y="493"/>
      <point x="241" y="599"/>
      <point x="403" y="599" type="curve" smooth="yes"/>
      <point x="565" y="599"/>
      <point x="669" y="493"/>
    </contour>
    <contour>
      <point x="316" y="514" type="line"/>
      <point x="316" y="453" type="line"/>
      <point x="421" y="453" type="line" smooth="yes"/>
      <point x="464" y="453"/>
      <point x="488" y="434"/>
      <point x="488" y="393" type="curve" smooth="yes"/>
      <point x="488" y="352"/>
      <point x="464" y="333"/>
      <point x="421" y="333" type="curve" smooth="yes"/>
      <point x="316" y="333" type="line"/>
      <point x="316" y="277" type="line"/>
      <point x="425" y="277" type="line" smooth="yes"/>
      <point x="509" y="277"/>
      <point x="566" y="321"/>
      <point x="566" y="395" type="curve" smooth="yes"/>
      <point x="566" y="467"/>
      <point x="509" y="514"/>
      <point x="429" y="514" type="curve" smooth="yes"/>
    </contour>
  </outline>
</glyph>
<glyph name="macron" format="2">
  <advance width="500"/>
  <unicode hex="00AF"/>
  <anchor x="250" y="500" name="_top"/>
  <outline>
    <contour>
      <point x="72" y="666" type="line"/>
      <point x="72" y="588" type="line"/>
      <point x="428" y="588" type="line"/>
      <point x="428" y="666" type="line"/>
    </contour>
  </outline>
</glyph>
<glyph name="degree" format="2">
  <advance width="471"/>
  <unicode hex="00B0"/>
  <outline>
    <contour>
      <point x="415" y="499" type="curve" smooth="yes"/>
      <point x="415" y="600"/>
      <point x="342" y="670"/>
      <point x="235" y="670" type="curve" smooth="yes"/>
      <point x="129" y="670"/>
      <point x="56" y="600"/>
      <point x="56" y="499" type="curve" smooth="yes"/>
      <point x="56" y="397"/>
      <point x="129" y="327"/>
      <point x="235" y="327" type="curve" smooth="yes"/>
      <point x="342" y="327"/>
      <point x="415" y="397"/>
    </contour>
    <contour>
      <point x="142" y="499" type="curve" smooth="yes"/>
      <point x="142" y="553"/>
      <point x="181" y="592"/>
      <point x="235" y="592" type="curve" smooth="yes"/>
      <point x="290" y="592"/>
      <point x="329" y="553"/>
      <point x="329" y="499" type="curve" smooth="yes"/>
      <point x="329" y="444"/>
      <point x="290" y="406"/>
      <point x="235" y="406" type="curve" smooth="yes"/>
      <point x="181" y="406"/>
      <point x="142" y="444"/>
    </contour>
  </outline>
</glyph>
<glyph name="twosuperior" format="2">
  <advance width="373"/>
  <unicode hex="00B2"/>
  <anchor x="187" y="517" name="_indexring"/>
  <outline>
    <contour>
      <point x="346" y="333" type="line"/>
      <point x="346" y="402" type="line"/>
      <point x="220" y="402" type="line" smooth="yes"/>
      <point x="201" y="402"/>
      <point x="163" y="400"/>
      <point x="148" y="399" type="curve"/>
      <point x="148" y="400" type="line"/>
      <point x="169" y="412"/>
      <point x="189" y="423"/>
      <point x="208" y="436" type="curve" smooth="yes"/>
      <point x="297" y="497"/>
      <point x="338" y="551"/>
      <point x="338" y="607" type="curve" smooth="yes"/>
      <point x="338" y="672"/>
      <point x="290" y="735"/>
      <point x="183" y="735" type="curve" smooth="yes"/>
      <point x="90" y="735"/>
      <point x="28" y="686"/>
      <point x="24" y="603" type="curve"/>
      <point x="104" y="578" type="line"/>
      <point x="105" y="633"/>
      <point x="133" y="666"/>
      <point x="180" y="666" type="curve" smooth="yes"/>
      <point x="225" y="666"/>
      <point x="248" y="639"/>
      <point x="248" y="601" type="curve" smooth="yes"/>
      <point x="248" y="558"/>
      <point x="220" y="523"/>
      <point x="127" y="452" type="curve" smooth="yes"/>
      <point x="97" y="430"/>
      <point x="67" y="410"/>
      <point x="36" y="390" type="curve"/>
      <point x="36" y="333" type="line"/>
    </contour>
  </outline>
</glyph>
<glyph name="threesuperior" format="2">
  <advance width="367"/>
  <unicode hex="00B3"/>
  <anchor x="177" y="530" name="_indexring"/>
  <outline>
    <contour>
      <point x="31" y="636" type="curve"/>
      <point x="109" y="609" type="line"/>
      <point x="116" y="648"/>
      <point x="141" y="666"/>
      <point x="179" y="666" type="curve" smooth="yes"/>
      <point x="217" y="666"/>
      <point x="239" y="647"/>
      <point x="239" y="611" type="curve" smooth="yes"/>
      <point x="239" y="577"/>
      <point x="218" y="557"/>
      <point x="176" y="557" type="curve" smooth="yes"/>
      <point x="155" y="557" type="line"/>
      <point x="155" y="503" type="line"/>
      <point x="179" y="503" type="line" smooth="yes"/>
      <point x="225" y="503"/>
      <point x="248" y="486"/>
      <point x="248" y="453" type="curve" smooth="yes"/>
      <point x="248" y="417"/>
      <point x="221" y="394"/>
      <point x="179" y="394" type="curve" smooth="yes"/>
      <point x="133" y="394"/>
      <point x="107" y="414"/>
      <point x="101" y="458" type="curve"/>
      <point x="20" y="424" type="line"/>
      <point x="42" y="357"/>
      <point x="97" y="327"/>
      <point x="182" y="327" type="curve" smooth="yes"/>
      <point x="273" y="327"/>
      <point x="336" y="372"/>
      <point x="336" y="442" type="curve" smooth="yes"/>
      <point x="336" y="500"/>
      <point x="292" y="530"/>
      <point x="247" y="531" type="curve"/>
      <point x="247" y="533" type="line"/>
      <point x="286" y="535"/>
      <point x="327" y="567"/>
      <point x="327" y="626" type="curve" smooth="yes"/>
      <point x="327" y="692"/>
      <point x="275" y="735"/>
      <point x="183" y="735" type="curve" smooth="yes"/>
      <point x="108" y="735"/>
      <point x="47" y="704"/>
    </contour>
  </outline>
</glyph>
<glyph name="cedilla" format="2">
  <advance width="500"/>
  <unicode hex="00B8"/>
  <anchor x="260" y="0" name="_bottomC"/>
  <outline>
    <contour>
      <point x="298" y="-90" type="curve" smooth="yes"/>
      <point x="298" y="-124"/>
      <point x="274" y="-146"/>
      <point x="242" y="-146" type="curve" smooth="yes"/>
      <point x="213" y="-146"/>
      <point x="188" y="-133"/>
      <point x="172" y="-116" type="curve"/>
      <point x="139" y="-178" type="line"/>
      <point x="167" y="-203"/>
      <point x="202" y="-215"/>
      <point x="254" y="-215" type="curve" smooth="yes"/>
      <point x="330" y="-215"/>
      <point x="378" y="-168"/>
      <point x="378" y="-105" type="curve" smooth="yes"/>
      <point x="378" y="-48"/>
      <point x="331" y="9"/>
      <point x="240" y="31" type="curve"/>
      <point x="197" y="3" type="line"/>
      <point x="277" y="-28"/>
      <point x="298" y="-51"/>
    </contour>
  </outline>
</glyph>
<glyph name="onesuperior" format="2">
  <advance width="259"/>
  <unicode hex="00B9"/>
  <anchor x="143" y="527" name="_indexring"/>
  <outline>
    <contour>
      <point x="209" y="730" type="line"/>
      <point x="134" y="730" type="line"/>
      <point x="128" y="684"/>
      <point x="123" y="613"/>
      <point x="123" y="574" type="curve" smooth="yes"/>
      <point x="123" y="333" type="line"/>
      <point x="209" y="333" type="line"/>
      <point x="209" y="638" type="line"/>
    </contour>
    <contour>
      <point x="181" y="712" type="curve"/>
      <point x="134" y="730" type="line"/>
      <point x="113" y="699"/>
      <point x="51" y="667"/>
      <point x="13" y="661" type="curve"/>
      <point x="13" y="588" type="line"/>
      <point x="87" y="597"/>
      <point x="157" y="662"/>
    </contour>
  </outline>
</glyph>
<glyph name="Thorn" format="2">
  <advance width="639"/>
  <unicode hex="00DE"/>
  <anchor x="151" y="660" name="top"/>
  <anchor x="205" y="0" name="ogonek"/>
  <anchor x="151" y="0" name="bottom"/>
  <anchor x="151" y="0" name="bottomC"/>
  <outline>
    <contour>
      <point x="151" y="547" type="line"/>
      <point x="151" y="456" type="line"/>
      <point x="338" y="456" type="line" smooth="yes"/>
      <point x="432" y="456"/>
      <point x="479" y="418"/>
      <point x="478" y="337" type="curve" smooth="yes"/>
      <point x="479" y="256"/>
      <point x="432" y="218"/>
      <point x="338" y="218" type="curve" smooth="yes"/>
      <point x="151" y="218" type="line"/>
      <point x="151" y="127" type="line"/>
      <point x="339" y="127" type="line" smooth="yes"/>
      <point x="504" y="127"/>
      <point x="589" y="202"/>
      <point x="589" y="337" type="curve" smooth="yes"/>
      <point x="589" y="473"/>
      <point x="504" y="547"/>
      <point x="339" y="547" type="curve" smooth="yes"/>
    </contour>
    <contour>
      <point x="98" y="660" type="line"/>
      <point x="98" y="0" type="line"/>
      <point x="205" y="0" type="line"/>
      <point x="205" y="660" type="line"/>
    </contour>
  </outline>
</glyph>
<glyph name="germandbls" format="2">
  <advance width="628"/>
  <unicode hex="00DF"/>
  <anchor x="330" y="725" name="top"/>
  <anchor x="467" y="16" name="ogonek"/>
  <anchor x="330" y="0" name="bottom"/>
  <anchor x="352" y="0" name="bottomC"/>
  <outline>
    <contour>
      <point x="391" y="385" type="line"/>
      <point x="504" y="385"/>
      <point x="553" y="472"/>
      <point x="553" y="541" type="curve" smooth="yes"/>
      <point x="553" y="630"/>
      <point x="490" y="730"/>
      <point x="331" y="730" type="curve" smooth="yes"/>
      <point x="145" y="730"/>
      <point x="83" y="630"/>
      <point x="83" y="486" type="curve" smooth="yes"/>
      <point x="83" y="0" type="line"/>
      <point x="190" y="0" type="line"/>
      <point x="190" y="465" type="line" smooth="yes"/>
      <point x="190" y="582"/>
      <point x="221" y="640"/>
      <point x="325" y="640" type="curve" smooth="yes"/>
      <point x="402" y="640"/>
      <point x="446" y="606"/>
      <point x="446" y="534" type="curve" smooth="yes"/>
      <point x="446" y="469"/>
      <point x="399" y="421"/>
      <point x="319" y="421" type="curve" smooth="yes"/>
      <point x="282" y="421" type="line"/>
      <point x="277" y="332" type="line"/>
      <point x="319" y="332" type="line" smooth="yes"/>
      <point x="418" y="332"/>
      <point x="473" y="289"/>
      <point x="473" y="206" type="curve" smooth="yes"/>
      <point x="473" y="131"/>
      <point x="429" y="78"/>
      <point x="349" y="78" type="curve" smooth="yes"/>
      <point x="313" y="78"/>
      <point x="288" y="86"/>
      <point x="269" y="102" type="curve"/>
      <point x="245" y="23" type="line"/>
      <point x="265" y="5"/>
      <point x="308" y="-10"/>
      <point x="355" y="-10" type="curve" smooth="yes"/>
      <point x="504" y="-10"/>
      <point x="576" y="89"/>
      <point x="576" y="193" type="curve" smooth="yes"/>
      <point x="576" y="285"/>
      <point x="523" y="383"/>
      <point x="391" y="383" type="curve"/>
    </contour>
  </outline>
</glyph>
<glyph name="idieresis" format="2">
  <advance width="274"/>
  <unicode hex="00EF"/>
  <anchor x="137" y="0" name="bottomC"/>
  <anchor x="137" y="500" name="top"/>
  <anchor x="187" y="2" name="ogonek"/>
  <anchor x="137" y="0" name="bottom"/>
  <outline>
    <contour>
      <point x="286" y="637" type="curve" smooth="yes"/>
      <point x="286" y="676"/>
      <point x="261" y="701"/>
      <point x="222" y="701" type="curve" smooth="yes"/>
      <point x="181" y="701"/>
      <point x="157" y="676"/>
      <point x="157" y="637" type="curve" smooth="yes"/>
      <point x="157" y="598"/>
      <point x="181" y="574"/>
      <point x="222" y="574" type="curve" smooth="yes"/>
      <point x="261" y="574"/>
      <point x="286" y="598"/>
    </contour>
    <contour>
      <point x="117" y="637" type="curve" smooth="yes"/>
      <point x="117" y="676"/>
      <point x="92" y="701"/>
      <point x="52" y="701" type="curve" smooth="yes"/>
      <point x="13" y="701"/>
      <point x="-12" y="676"/>
      <point x="-12" y="637" type="curve" smooth="yes"/>
      <point x="-12" y="598"/>
      <point x="13" y="574"/>
      <point x="52" y="574" type="curve" smooth="yes"/>
      <point x="92" y="574"/>
      <point x="117" y="598"/>
    </contour>
    <component base="idotless"/>
  </outline>
</glyph>
<glyph name="eth" format="2">
  <advance width="615"/>
  <unicode hex="00F0"/>
  <anchor x="303" y="725" name="top"/>
  <anchor x="418" y="16" name="ogonek"/>
  <anchor x="303" y="0" name="bottom"/>
  <anchor x="303" y="0" name="bottomC"/>
  <outline>
    <contour>
      <point x="196" y="728" type="line"/>
      <point x="388" y="620"/>
      <point x="449" y="519"/>
      <point x="468" y="321" type="curve"/>
      <point x="448" y="239" type="line"/>
      <point x="448" y="149"/>
      <point x="396" y="75"/>
      <point x="303" y="75" type="curve" smooth="yes"/>
      <point x="217" y="75"/>
      <point x="165" y="134"/>
      <point x="165" y="239" type="curve" smooth="yes"/>
      <point x="165" y="346"/>
      <point x="217" y="405"/>
      <point x="307" y="405" type="curve" smooth="yes"/>
      <point x="396" y="405"/>
      <point x="448" y="346"/>
      <point x="448" y="239" type="curve"/>
      <point x="498" y="243" type="line"/>
      <point x="498" y="393"/>
      <point x="440" y="488"/>
      <point x="293" y="488" type="curve" smooth="yes"/>
      <point x="156" y="488"/>
      <point x="56" y="395"/>
      <point x="56" y="239" type="curve" smooth="yes"/>
      <point x="56" y="83"/>
      <point x="148" y="-10"/>
      <point x="296" y="-10" type="curve" smooth="yes"/>
      <point x="471" y="-10"/>
      <point x="551" y="107"/>
      <point x="551" y="293" type="curve" smooth="yes"/>
      <point x="551" y="500"/>
      <point x="465" y="644"/>
      <point x="321" y="728" type="curve"/>
    </contour>
    <contour>
      <point x="185" y="596" type="line"/>
      <point x="195" y="545" type="line"/>
      <point x="407" y="597" type="line"/>
      <point x="375" y="634" type="line"/>
    </contour>
    <contour>
      <point x="391" y="637" type="line"/>
      <point x="420" y="601" type="line"/>
      <point x="552" y="625" type="line"/>
      <point x="537" y="677" type="line"/>
    </contour>
  </outline>
</glyph>
<glyph name="oslash" format="2">
  <advance width="607"/>
  <unicode hex="00F8"/>
  <anchor x="303" y="500" name="top"/>
  <anchor x="421" y="16" name="ogonek"/>
  <anchor x="303" y="0" name="bottom"/>
  <anchor x="303" y="0" name="bottomC"/>
  <outline>
    <contour>
      <point x="54" y="250" type="curve" smooth="yes"/>
      <point x="54" y="165"/>
      <point x="79" y="99"/>
      <point x="125" y="54" type="curve"/>
      <point x="58" y="-34" type="line"/>
      <point x="125" y="-34" type="line"/>
      <point x="168" y="22" type="line"/>
      <point x="205" y="1"/>
      <point x="250" y="-10"/>
      <point x="303" y="-10" type="curve" smooth="yes"/>
      <point x="459" y="-10"/>
      <point x="552" y="87"/>
      <point x="552" y="250" type="curve" smooth="yes"/>
      <point x="552" y="330"/>
      <point x="530" y="393"/>
      <point x="488" y="438" type="curve"/>
      <point x="554" y="522" type="line"/>
      <point x="487" y="522" type="line"/>
      <point x="448" y="472" type="line"/>
      <point x="409" y="497"/>
      <point x="361" y="510"/>
      <point x="303" y="510" type="curve" smooth="yes"/>
      <point x="147" y="510"/>
      <point x="54" y="413"/>
    </contour>
    <contour>
      <point x="162" y="250" type="curve" smooth="yes"/>
      <point x="162" y="363"/>
      <point x="213" y="426"/>
      <point x="303" y="426" type="curve" smooth="yes"/>
      <point x="338" y="426"/>
      <point x="366" y="416"/>
      <point x="388" y="398" type="curve"/>
      <point x="224" y="181" type="line"/>
      <point x="192" y="136" type="line"/>
      <point x="191" y="136" type="line"/>
      <point x="172" y="165"/>
      <point x="162" y="203"/>
    </contour>
    <contour>
      <point x="227" y="96" type="curve"/>
      <point x="390" y="313" type="line"/>
      <point x="419" y="353" type="line"/>
      <point x="420" y="353" type="line"/>
      <point x="436" y="326"/>
      <point x="445" y="291"/>
      <point x="445" y="250" type="curve" smooth="yes"/>
      <point x="445" y="137"/>
      <point x="393" y="74"/>
      <point x="303" y="74" type="curve" smooth="yes"/>
      <point x="273" y="74"/>
      <point x="247" y="82"/>
    </contour>
  </outline>
</glyph>
<glyph name="oe" format="2">
  <advance width="978"/>
  <unicode hex="0153"/>
  <anchor x="500" y="500" name="top"/>
  <anchor x="820" y="16" name="ogonek"/>
  <anchor x="500" y="0" name="bottom"/>
  <anchor x="703" y="0" name="bottomC"/>
  <outline>
    <contour>
      <point x="54" y="250" type="curve" smooth="yes"/>
      <point x="54" y="87"/>
      <point x="148" y="-10"/>
      <point x="303" y="-10" type="curve" smooth="yes"/>
      <point x="453" y="-10"/>
      <point x="539" y="87"/>
      <point x="539" y="250" type="curve" smooth="yes"/>
      <point x="539" y="413"/>
      <point x="453" y="510"/>
      <point x="303" y="510" type="curve" smooth="yes"/>
      <point x="148" y="510"/>
      <point x="54" y="413"/>
    </contour>
    <contour>
      <point x="447" y="250" type="curve" smooth="yes"/>
      <point x="447" y="137"/>
      <point x="395" y="75"/>
      <point x="306" y="75" type="curve" smooth="yes"/>
      <point x="216" y="75"/>
      <point x="164" y="137"/>
      <point x="164" y="250" type="curve" smooth="yes"/>
      <point x="164" y="363"/>
      <point x="216" y="425"/>
      <point x="306" y="425" type="curve" smooth="yes"/>
      <point x="395" y="425"/>
      <point x="447" y="363"/>
    </contour>
    <contour>
      <point x="916" y="106" type="curve"/>
      <point x="828" y="143" type="line"/>
      <point x="812" y="99"/>
      <point x="767" y="75"/>
      <point x="701" y="75" type="curve" smooth="yes"/>
      <point x="610" y="75"/>
      <point x="554" y="136"/>
      <point x="554" y="249" type="curve" smooth="yes"/>
      <point x="554" y="362"/>
      <point x="604" y="425"/>
      <point x="694" y="425" type="curve" smooth="yes"/>
      <point x="779" y="425"/>
      <point x="824" y="361"/>
      <point x="826" y="258" type="curve"/>
      <point x="875" y="291" type="line"/>
      <point x="520" y="291" type="line"/>
      <point x="520" y="217" type="line"/>
      <point x="921" y="217" type="line"/>
      <point x="924" y="231"/>
      <point x="926" y="251"/>
      <point x="926" y="274" type="curve" smooth="yes"/>
      <point x="926" y="406"/>
      <point x="845" y="510"/>
      <point x="694" y="510" type="curve" smooth="yes"/>
      <point x="549" y="510"/>
      <point x="468" y="413"/>
      <point x="468" y="250" type="curve" smooth="yes"/>
      <point x="468" y="87"/>
      <point x="554" y="-10"/>
      <point x="701" y="-10" type="curve" smooth="yes"/>
      <point x="812" y="-10"/>
      <point x="880" y="32"/>
    </contour>
  </outline>
</glyph>
<glyph name="uni0163" format="2">
  <advance width="440"/>
  <unicode hex="0163"/>
  <anchor x="163" y="250" name="center"/>
  <anchor x="255" y="-210" name="bottom"/>
  <anchor x="175" y="730" name="top"/>
  <anchor x="256" y="-210" name="bottomC"/>
  <anchor x="306" y="767" name="topright"/>
  <anchor x="282" y="-210" name="ogonek"/>
  <outline>
    <contour>
      <point x="292" y="-90" type="curve" smooth="yes"/>
      <point x="292" y="-124"/>
      <point x="268" y="-146"/>
      <point x="235" y="-146" type="curve" smooth="yes"/>
      <point x="207" y="-146"/>
      <point x="182" y="-133"/>
      <point x="166" y="-116" type="curve"/>
      <point x="133" y="-179" type="line"/>
      <point x="160" y="-203"/>
      <point x="196" y="-215"/>
      <point x="247" y="-215" type="curve" smooth="yes"/>
      <point x="324" y="-215"/>
      <point x="372" y="-168"/>
      <point x="372" y="-105" type="curve" smooth="yes"/>
      <point x="372" y="-48"/>
      <point x="327" y="9"/>
      <point x="233" y="32" type="curve"/>
      <point x="194" y="7" type="line"/>
      <point x="271" y="-28"/>
      <point x="292" y="-50"/>
    </contour>
    <component base="t"/>
  </outline>
</glyph>
<glyph name="uogonek" format="2">
  <advance width="619"/>
  <unicode hex="0173"/>
  <anchor x="307" y="500" name="top"/>
  <anchor x="486" y="-210" name="ogonek"/>
  <anchor x="307" y="-38" name="bottom"/>
  <anchor x="475" y="-210" name="bottomC"/>
  <outline>
    <contour>
      <point x="79" y="500" type="line"/>
      <point x="79" y="171" type="line" smooth="yes"/>
      <point x="79" y="41"/>
      <point x="159" y="-10"/>
      <point x="259" y="-10" type="curve" smooth="yes"/>
      <point x="366" y="-10"/>
      <point x="465" y="73"/>
      <point x="465" y="214" type="curve"/>
      <point x="429" y="237" type="line"/>
      <point x="429" y="136"/>
      <point x="361" y="78"/>
      <point x="285" y="78" type="curve" smooth="yes"/>
      <point x="226" y="78"/>
      <point x="186" y="106"/>
      <point x="186" y="199" type="curve" smooth="yes"/>
      <point x="186" y="500" type="line"/>
    </contour>
    <contour>
      <point x="536" y="0" type="curve"/>
      <point x="477" y="20" type="line"/>
      <point x="389" y="-14"/>
      <point x="344" y="-52"/>
      <point x="344" y="-117" type="curve" smooth="yes"/>
      <point x="344" y="-178"/>
      <point x="384" y="-215"/>
      <point x="458" y="-215" type="curve" smooth="yes"/>
      <point x="491" y="-215"/>
      <point x="524" y="-207"/>
      <point x="545" y="-194" type="curve"/>
      <point x="527" y="-134" type="line"/>
      <point x="513" y="-144"/>
      <point x="492" y="-146"/>
      <point x="475" y="-146" type="curve" smooth="yes"/>
      <point x="442" y="-146"/>
      <point x="422" y="-132"/>
      <point x="422" y="-100" type="curve" smooth="yes"/>
      <point x="422" y="-64"/>
      <point x="455" y="-36"/>
    </contour>
    <contour>
      <point x="429" y="500" type="line"/>
      <point x="429" y="171" type="line"/>
      <point x="432" y="125" type="line"/>
      <point x="445" y="0" type="line"/>
      <point x="536" y="0" type="line"/>
      <point x="536" y="123" type="line"/>
      <point x="536" y="500" type="line"/>
    </contour>
  </outline>
</glyph>
<glyph name="caron" format="2">
  <advance width="500"/>
  <unicode hex="02C7"/>
  <anchor x="251" y="500" name="_top"/>
  <outline>
    <contour>
      <point x="331" y="746" type="line"/>
      <point x="250" y="639" type="line"/>
      <point x="169" y="746" type="line"/>
      <point x="81" y="746" type="line"/>
      <point x="194" y="578" type="line"/>
      <point x="306" y="578" type="line"/>
      <point x="419" y="746" type="line"/>
    </contour>
  </outline>
</glyph>
<glyph name="dotaccent" format="2">
  <advance width="500"/>
  <unicode hex="02D9"/>
  <anchor x="250" y="500" name="_top"/>
  <outline>
    <contour>
      <point x="181" y="652" type="curve" smooth="yes"/>
      <point x="181" y="611"/>
      <point x="207" y="586"/>
      <point x="250" y="586" type="curve" smooth="yes"/>
      <point x="293" y="586"/>
      <point x="320" y="611"/>
      <point x="320" y="652" type="curve" smooth="yes"/>
      <point x="320" y="693"/>
      <point x="293" y="718"/>
      <point x="250" y="718" type="curve" smooth="yes"/>
      <point x="207" y="718"/>
      <point x="181" y="693"/>
    </contour>
  </outline>
</glyph>
<glyph name="ring" format="2">
  <advance width="500"/>
  <unicode hex="02DA"/>
  <anchor x="252" y="500" name="_top"/>
  <outline>
    <contour>
      <point x="122" y="688" type="curve" smooth="yes"/>
      <point x="122" y="615"/>
      <point x="173" y="568"/>
      <point x="251" y="568" type="curve" smooth="yes"/>
      <point x="328" y="568"/>
      <point x="378" y="615"/>
      <point x="378" y="688" type="curve" smooth="yes"/>
      <point x="378" y="759"/>
      <point x="328" y="806"/>
      <point x="251" y="806" type="curve" smooth="yes"/>
      <point x="173" y="806"/>
      <point x="122" y="759"/>
    </contour>
    <contour>
      <point x="316" y="688" type="curve" smooth="yes"/>
      <point x="316" y="650"/>
      <point x="289" y="624"/>
      <point x="251" y="624" type="curve" smooth="yes"/>
      <point x="212" y="624"/>
      <point x="185" y="650"/>
      <point x="185" y="688" type="curve" smooth="yes"/>
      <point x="185" y="725"/>
      <point x="212" y="751"/>
      <point x="251" y="751" type="curve" smooth="yes"/>
      <point x="289" y="751"/>
      <point x="316" y="725"/>
    </contour>
  </outline>
</glyph>
<glyph name="ogonek" format="2">
  <advance width="509"/>
  <unicode hex="02DB"/>
  <anchor x="346" y="15" name="_ogonek"/>
  <outline>
    <contour>
      <point x="294" y="39" type="line"/>
      <point x="194" y="4"/>
      <point x="137" y="-37"/>
      <point x="137" y="-112" type="curve" smooth="yes"/>
      <point x="137" y="-175"/>
      <point x="188" y="-215"/>
      <point x="262" y="-215" type="curve" smooth="yes"/>
      <point x="295" y="-215"/>
      <point x="328" y="-209"/>
      <point x="350" y="-196" type="curve"/>
      <point x="332" y="-135" type="line"/>
      <point x="317" y="-144"/>
      <point x="296" y="-146"/>
      <point x="279" y="-146" type="curve" smooth="yes"/>
      <point x="243" y="-146"/>
      <point x="218" y="-128"/>
      <point x="218" y="-96" type="curve" smooth="yes"/>
      <point x="218" y="-60"/>
      <point x="251" y="-24"/>
      <point x="346" y="15" type="curve"/>
    </contour>
  </outline>
</glyph>
<glyph name="commaaccent" format="2">
  <advance width="90"/>
  <unicode hex="0326"/>
  <anchor x="0" y="0" name="_bottom"/>
  <outline>
    <contour>
      <point x="-59" y="-71" type="line"/>
      <point x="-100" y="-238" type="line"/>
      <point x="-22" y="-238" type="line"/>
      <point x="44" y="-71" type="line"/>
    </contour>
  </outline>
</glyph>
<glyph name="bullet" format="2">
  <advance width="430"/>
  <unicode hex="2022"/>
  <outline>
    <contour>
      <point x="81" y="336" type="curve" smooth="yes"/>
      <point x="81" y="259"/>
      <point x="136" y="206"/>
      <point x="215" y="206" type="curve" smooth="yes"/>
      <point x="295" y="206"/>
      <point x="349" y="259"/>
      <point x="349" y="336" type="curve" smooth="yes"/>
      <point x="349" y="412"/>
      <point x="295" y="465"/>
      <point x="215" y="465" type="curve" smooth="yes"/>
      <point x="136" y="465"/>
      <point x="81" y="412"/>
    </contour>
  </outline>
</glyph>
<glyph name="guilsinglleft" format="2">
  <advance width="324"/>
  <unicode hex="2039"/>
  <outline>
    <contour>
      <point x="172" y="461" type="line"/>
      <point x="46" y="265" type="line"/>
      <point x="172" y="69" type="line"/>
      <point x="277" y="69" type="line"/>
      <point x="151" y="265" type="line"/>
      <point x="277" y="461" type="line"/>
    </contour>
  </outline>
</glyph>
<glyph name="fraction" format="2">
  <advance width="253"/>
  <unicode hex="2044"/>
  <outline>
    <contour>
      <point x="-67" y="0" type="line"/>
      <point x="410" y="660" type="line"/>
      <point x="319" y="660" type="line"/>
      <point x="-158" y="0" type="line"/>
    </contour>
  </outline>
</glyph>
<glyph name="fivesuperior" format="2">
  <advance width="368"/>
  <unicode hex="2075"/>
  <anchor x="183" y="536" name="_indexring"/>
  <outline>
    <contour>
      <point x="113" y="557" type="curve"/>
      <point x="112" y="557" type="line"/>
      <point x="115" y="564"/>
      <point x="117" y="572"/>
      <point x="118" y="584" type="curve" smooth="yes"/>
      <point x="125" y="662" type="line"/>
      <point x="319" y="662" type="line"/>
      <point x="319" y="730" type="line"/>
      <point x="59" y="730" type="line"/>
      <point x="39" y="498" type="line"/>
      <point x="107" y="495" type="line"/>
      <point x="121" y="517"/>
      <point x="143" y="529"/>
      <point x="183" y="529" type="curve" smooth="yes"/>
      <point x="232" y="529"/>
      <point x="255" y="506"/>
      <point x="255" y="463" type="curve" smooth="yes"/>
      <point x="255" y="422"/>
      <point x="225" y="395"/>
      <point x="180" y="395" type="curve" smooth="yes"/>
      <point x="133" y="395"/>
      <point x="109" y="416"/>
      <point x="100" y="452" type="curve"/>
      <point x="22" y="412" type="line"/>
      <point x="53" y="350"/>
      <point x="107" y="328"/>
      <point x="183" y="328" type="curve" smooth="yes"/>
      <point x="271" y="328"/>
      <point x="339" y="373"/>
      <point x="339" y="465" type="curve" smooth="yes"/>
      <point x="339" y="536"/>
      <point x="290" y="589"/>
      <point x="208" y="589" type="curve" smooth="yes"/>
      <point x="153" y="589"/>
      <point x="130" y="576"/>
    </contour>
  </outline>
</glyph>
<glyph name="eightsuperior" format="2">
  <advance width="395"/>
  <unicode hex="2078"/>
  <anchor x="197" y="530" name="_indexring"/>
  <outline>
    <contour>
      <point x="47" y="625" type="curve" smooth="yes"/>
      <point x="47" y="582"/>
      <point x="72" y="550"/>
      <point x="116" y="537" type="curve"/>
      <point x="116" y="536" type="line"/>
      <point x="63" y="521"/>
      <point x="33" y="488"/>
      <point x="33" y="441" type="curve" smooth="yes"/>
      <point x="33" y="370"/>
      <point x="97" y="327"/>
      <point x="197" y="327" type="curve" smooth="yes"/>
      <point x="298" y="327"/>
      <point x="361" y="370"/>
      <point x="361" y="441" type="curve" smooth="yes"/>
      <point x="361" y="489"/>
      <point x="330" y="521"/>
      <point x="277" y="536" type="curve"/>
      <point x="277" y="537" type="line"/>
      <point x="323" y="551"/>
      <point x="347" y="583"/>
      <point x="347" y="625" type="curve" smooth="yes"/>
      <point x="347" y="692"/>
      <point x="289" y="734"/>
      <point x="197" y="734" type="curve" smooth="yes"/>
      <point x="104" y="734"/>
      <point x="47" y="692"/>
    </contour>
    <contour>
      <point x="264" y="621" type="curve" smooth="yes"/>
      <point x="264" y="588"/>
      <point x="238" y="567"/>
      <point x="197" y="567" type="curve" smooth="yes"/>
      <point x="156" y="567"/>
      <point x="130" y="588"/>
      <point x="130" y="621" type="curve" smooth="yes"/>
      <point x="130" y="654"/>
      <point x="155" y="674"/>
      <point x="197" y="674" type="curve" smooth="yes"/>
      <point x="239" y="674"/>
      <point x="264" y="654"/>
    </contour>
    <contour>
      <point x="119" y="446" type="curve" smooth="yes"/>
      <point x="119" y="483"/>
      <point x="150" y="505"/>
      <point x="197" y="505" type="curve" smooth="yes"/>
      <point x="245" y="505"/>
      <point x="275" y="483"/>
      <point x="275" y="446" type="curve" smooth="yes"/>
      <point x="275" y="411"/>
      <point x="245" y="388"/>
      <point x="197" y="388" type="curve" smooth="yes"/>
      <point x="149" y="388"/>
      <point x="119" y="411"/>
    </contour>
  </outline>
</glyph>
<glyph name="ninesuperior" format="2">
  <advance width="388"/>
  <unicode hex="2079"/>
  <anchor x="185" y="530" name="_indexring"/>
  <outline>
    <contour>
      <point x="31" y="605" type="curve" smooth="yes"/>
      <point x="31" y="529"/>
      <point x="85" y="480"/>
      <point x="175" y="480" type="curve" smooth="yes"/>
      <point x="219" y="480"/>
      <point x="263" y="504"/>
      <point x="274" y="530" type="curve"/>
      <point x="275" y="530" type="line"/>
      <point x="276" y="524"/>
      <point x="276" y="518"/>
      <point x="276" y="511" type="curve" smooth="yes"/>
      <point x="276" y="452"/>
      <point x="254" y="392"/>
      <point x="187" y="392" type="curve" smooth="yes"/>
      <point x="139" y="392"/>
      <point x="119" y="411"/>
      <point x="111" y="445" type="curve"/>
      <point x="34" y="415" type="line"/>
      <point x="55" y="353"/>
      <point x="109" y="327"/>
      <point x="184" y="327" type="curve" smooth="yes"/>
      <point x="289" y="327"/>
      <point x="357" y="394"/>
      <point x="357" y="530" type="curve" smooth="yes"/>
      <point x="357" y="663"/>
      <point x="294" y="735"/>
      <point x="187" y="735" type="curve" smooth="yes"/>
      <point x="91" y="735"/>
      <point x="31" y="686"/>
    </contour>
    <contour>
      <point x="261" y="605" type="curve" smooth="yes"/>
      <point x="261" y="569"/>
      <point x="231" y="542"/>
      <point x="187" y="542" type="curve" smooth="yes"/>
      <point x="141" y="542"/>
      <point x="114" y="565"/>
      <point x="114" y="605" type="curve" smooth="yes"/>
      <point x="114" y="646"/>
      <point x="141" y="670"/>
      <point x="188" y="670" type="curve" smooth="yes"/>
      <point x="231" y="670"/>
      <point x="261" y="644"/>
    </contour>
  </outline>
</glyph>
<glyph name="Euro" format="2">
  <advance width="701"/>
  <unicode hex="20AC"/>
  <outline>
    <contour>
      <point x="51" y="281" type="line"/>
      <point x="51" y="213" type="line"/>
      <point x="417" y="213" type="line"/>
      <point x="438" y="281" type="line"/>
    </contour>
    <contour>
      <point x="51" y="429" type="line"/>
      <point x="51" y="360" type="line"/>
      <point x="456" y="360" type="line"/>
      <point x="478" y="429" type="line"/>
    </contour>
    <component base="euro.part"/>
  </outline>
</glyph>
<glyph name="uni20BA" format="2">
  <advance width="668"/>
  <unicode hex="20BA"/>
  <outline>
    <contour>
      <point x="520" y="279" type="line"/>
      <point x="520" y="146"/>
      <point x="462" y="86"/>
      <point x="349" y="86" type="curve" smooth="yes"/>
      <point x="232" y="86" type="line"/>
      <point x="232" y="0" type="line"/>
      <point x="360" y="0" type="line" smooth="yes"/>
      <point x="528" y="0"/>
      <point x="618" y="93"/>
      <point x="624" y="279" type="curve"/>
    </contour>
    <contour>
      <point x="177" y="660" type="line"/>
      <point x="177" y="0" type="line"/>
      <point x="281" y="0" type="line"/>
      <point x="281" y="660" type="line"/>
    </contour>
    <contour>
      <point x="55" y="286" type="line"/>
      <point x="55" y="227" type="line"/>
      <point x="481" y="349" type="line"/>
      <point x="481" y="408" type="line"/>
    </contour>
    <contour>
      <point x="55" y="434" type="line"/>
      <point x="55" y="374" type="line"/>
      <point x="481" y="496" type="line"/>
      <point x="481" y="555" type="line"/>
    </contour>
  </outline>
</glyph>
<glyph name="uni20BD" format="2">
  <advance width="658"/>
  <unicode hex="20BD"/>
  <outline>
    <contour>
      <point x="202" y="660" type="line"/>
      <point x="202" y="570" type="line"/>
      <point x="369" y="570" type="line" smooth="yes"/>
      <point x="465" y="570"/>
      <point x="507" y="531"/>
      <point x="507" y="454" type="curve" smooth="yes"/>
      <point x="507" y="378"/>
      <point x="465" y="338"/>
      <point x="369" y="338" type="curve" smooth="yes"/>
      <point x="46" y="338" type="line"/>
      <point x="46" y="264" type="line"/>
      <point x="386" y="264" type="line" smooth="yes"/>
      <point x="528" y="264"/>
      <point x="618" y="337"/>
      <point x="618" y="461" type="curve" smooth="yes"/>
      <point x="618" y="583"/>
      <point x="528" y="660"/>
      <point x="386" y="660" type="curve" smooth="yes"/>
    </contour>
    <contour>
      <point x="139" y="660" type="line"/>
      <point x="139" y="0" type="line"/>
      <point x="243" y="0" type="line"/>
      <point x="243" y="660" type="line"/>
    </contour>
    <contour>
      <point x="422" y="196" type="line"/>
      <point x="46" y="196" type="line"/>
      <point x="46" y="128" type="line"/>
      <point x="422" y="128" type="line"/>
    </contour>
  </outline>
</glyph>
<glyph name="uni2113" format="2">
  <advance width="415"/>
  <unicode hex="2113"/>
  <outline>
    <contour>
      <point x="361" y="5" type="curve"/>
      <point x="368" y="84" type="line"/>
      <point x="337" y="75"/>
      <point x="315" y="70"/>
      <point x="282" y="70" type="curve" smooth="yes"/>
      <point x="235" y="70"/>
      <point x="211" y="104"/>
      <point x="211" y="144" type="curve" smooth="yes"/>
      <point x="211" y="533" type="line" smooth="yes"/>
      <point x="211" y="577"/>
      <point x="220" y="600"/>
      <point x="250" y="600" type="curve" smooth="yes"/>
      <point x="277" y="600"/>
      <point x="287" y="585"/>
      <point x="287" y="540" type="curve" smooth="yes"/>
      <point x="287" y="412"/>
      <point x="206" y="288"/>
      <point x="44" y="247" type="curve"/>
      <point x="44" y="175" type="line"/>
      <point x="239" y="226"/>
      <point x="357" y="389"/>
      <point x="357" y="535" type="curve" smooth="yes"/>
      <point x="357" y="625"/>
      <point x="324" y="670"/>
      <point x="239" y="670" type="curve" smooth="yes"/>
      <point x="155" y="670"/>
      <point x="116" y="620"/>
      <point x="116" y="524" type="curve" smooth="yes"/>
      <point x="116" y="131" type="line" smooth="yes"/>
      <point x="116" y="31"/>
      <point x="164" y="-10"/>
      <point x="268" y="-10" type="curve" smooth="yes"/>
      <point x="303" y="-10"/>
      <point x="335" y="-5"/>
    </contour>
  </outline>
</glyph>
<glyph name="uni2126" format="2">
  <advance width="775"/>
  <unicode hex="2126"/>
  <outline>
    <contour>
      <point x="76" y="337" type="curve" smooth="yes"/>
      <point x="76" y="184"/>
      <point x="164" y="79"/>
      <point x="312" y="45" type="curve"/>
      <point x="336" y="82" type="line"/>
      <point x="242" y="105"/>
      <point x="185" y="190"/>
      <point x="185" y="329" type="curve" smooth="yes"/>
      <point x="185" y="486"/>
      <point x="263" y="577"/>
      <point x="388" y="577" type="curve" smooth="yes"/>
      <point x="512" y="577"/>
      <point x="591" y="486"/>
      <point x="591" y="329" type="curve" smooth="yes"/>
      <point x="591" y="190"/>
      <point x="533" y="105"/>
      <point x="439" y="82" type="curve"/>
      <point x="463" y="45" type="line"/>
      <point x="611" y="79"/>
      <point x="699" y="184"/>
      <point x="699" y="337" type="curve" smooth="yes"/>
      <point x="699" y="542"/>
      <point x="579" y="670"/>
      <point x="388" y="670" type="curve" smooth="yes"/>
      <point x="196" y="670"/>
      <point x="76" y="542"/>
    </contour>
    <contour>
      <point x="67" y="0" type="line"/>
      <point x="336" y="0" type="line"/>
      <point x="336" y="82" type="line"/>
      <point x="67" y="82" type="line"/>
    </contour>
    <contour>
      <point x="439" y="82" type="line"/>
      <point x="439" y="0" type="line"/>
      <point x="708" y="0" type="line"/>
      <point x="708" y="82" type="line"/>
    </contour>
  </outline>
</glyph>
<glyph name="uparrow" format="2">
  <advance width="750"/>
  <unicode hex="2191"/>
  <outline>
    <contour>
      <point x="391" y="621" type="curve"/>
      <point x="357" y="621" type="line"/>
      <point x="381" y="522"/>
      <point x="479" y="400"/>
      <point x="647" y="289" type="curve"/>
      <point x="710" y="371" type="line"/>
      <point x="552" y="467"/>
      <point x="458" y="554"/>
      <point x="377" y="666" type="curve"/>
      <point x="371" y="666" type="line"/>
      <point x="290" y="554"/>
      <point x="197" y="467"/>
      <point x="38" y="371" type="curve"/>
      <point x="101" y="289" type="line"/>
      <point x="269" y="400"/>
      <point x="367" y="522"/>
    </contour>
    <contour>
      <point x="428" y="0" type="line"/>
      <point x="428" y="319" type="line" smooth="yes"/>
      <point x="428" y="410"/>
      <point x="420" y="483"/>
      <point x="410" y="543" type="curve"/>
      <point x="374" y="610" type="line"/>
      <point x="338" y="543" type="line"/>
      <point x="328" y="483"/>
      <point x="321" y="410"/>
      <point x="321" y="319" type="curve" smooth="yes"/>
      <point x="321" y="0" type="line"/>
    </contour>
  </outline>
</glyph>
<glyph name="updownarrow" format="2">
  <advance width="750"/>
  <unicode hex="2195"/>
  <outline>
    <contour>
      <point x="410" y="-50" type="line"/>
      <point x="420" y="2"/>
      <point x="428" y="64"/>
      <point x="428" y="141" type="curve" smooth="yes"/>
      <point x="428" y="519" type="line" smooth="yes"/>
      <point x="428" y="596"/>
      <point x="420" y="658"/>
      <point x="410" y="710" type="curve"/>
      <point x="374" y="777" type="line"/>
      <point x="338" y="710" type="line"/>
      <point x="328" y="658"/>
      <point x="321" y="596"/>
      <point x="321" y="519" type="curve" smooth="yes"/>
      <point x="321" y="141" type="line" smooth="yes"/>
      <point x="321" y="64"/>
      <point x="328" y="2"/>
      <point x="338" y="-50" type="curve"/>
      <point x="374" y="-117" type="line"/>
    </contour>
    <contour>
      <point x="391" y="788" type="curve"/>
      <point x="357" y="788" type="line"/>
      <point x="381" y="689"/>
      <point x="479" y="567"/>
      <point x="656" y="450" type="curve"/>
      <point x="710" y="538" type="line"/>
      <point x="552" y="634"/>
      <point x="458" y="721"/>
      <point x="377" y="833" type="curve"/>
      <point x="371" y="833" type="line"/>
      <point x="290" y="721"/>
      <point x="197" y="634"/>
      <point x="38" y="538" type="curve"/>
      <point x="93" y="450" type="line"/>
      <point x="270" y="567"/>
      <point x="367" y="689"/>
    </contour>
    <contour>
      <point x="38" y="122" type="line"/>
      <point x="197" y="26"/>
      <point x="290" y="-61"/>
      <point x="371" y="-173" type="curve"/>
      <point x="377" y="-173" type="line"/>
      <point x="458" y="-61"/>
      <point x="552" y="26"/>
      <point x="710" y="122" type="curve"/>
      <point x="656" y="210" type="line"/>
      <point x="479" y="93"/>
      <point x="381" y="-29"/>
      <point x="357" y="-128" type="curve"/>
      <point x="391" y="-128" type="line"/>
      <point x="367" y="-29"/>
      <point x="270" y="93"/>
      <point x="93" y="210" type="curve"/>
    </contour>
  </outline>
</glyph>
<glyph name="partialdiff" format="2">
  <advance width="632"/>
  <unicode hex="2202"/>
  <outline>
    <contour>
      <point x="94" y="596" type="curve"/>
      <point x="144" y="522" type="line"/>
      <point x="187" y="564"/>
      <point x="223" y="581"/>
      <point x="282" y="581" type="curve" smooth="yes"/>
      <point x="399" y="581"/>
      <point x="465" y="511"/>
      <point x="465" y="324" type="curve" smooth="yes"/>
      <point x="465" y="160"/>
      <point x="409" y="80"/>
      <point x="303" y="80" type="curve" smooth="yes"/>
      <point x="218" y="80"/>
      <point x="173" y="131"/>
      <point x="173" y="214" type="curve" smooth="yes"/>
      <point x="173" y="296"/>
      <point x="219" y="347"/>
      <point x="300" y="347" type="curve" smooth="yes"/>
      <point x="393" y="347"/>
      <point x="444" y="294"/>
      <point x="462" y="222" type="curve"/>
      <point x="501" y="230" type="line"/>
      <point x="491" y="356"/>
      <point x="405" y="433"/>
      <point x="290" y="433" type="curve" smooth="yes"/>
      <point x="162" y="433"/>
      <point x="65" y="344"/>
      <point x="65" y="212" type="curve" smooth="yes"/>
      <point x="65" y="77"/>
      <point x="160" y="-10"/>
      <point x="295" y="-10" type="curve" smooth="yes"/>
      <point x="469" y="-10"/>
      <point x="564" y="105"/>
      <point x="564" y="333" type="curve" smooth="yes"/>
      <point x="564" y="544"/>
      <point x="481" y="670"/>
      <point x="291" y="670" type="curve" smooth="yes"/>
      <point x="210" y="670"/>
      <point x="150" y="644"/>
    </contour>
  </outline>
</glyph>
<glyph name="product" format="2">
  <advance width="699"/>
  <unicode hex="220F"/>
  <outline>
    <contour>
      <point x="512" y="660" type="line"/>
      <point x="512" y="-128" type="line"/>
      <point x="616" y="-128" type="line"/>
      <point x="616" y="660" type="line"/>
    </contour>
    <contour>
      <point x="84" y="660" type="line"/>
      <point x="84" y="-128" type="line"/>
      <point x="188" y="-128" type="line"/>
      <point x="188" y="660" type="line"/>
    </contour>
    <contour>
      <point x="138" y="660" type="line"/>
      <point x="138" y="568" type="line"/>
      <point x="562" y="568" type="line"/>
      <point x="562" y="660" type="line"/>
    </contour>
  </outline>
</glyph>
<glyph name="infinity" format="2">
  <advance width="903"/>
  <unicode hex="221E"/>
  <outline>
    <contour>
      <point x="421" y="325" type="curve" smooth="yes"/>
      <point x="298" y="182"/>
      <point x="281" y="164"/>
      <point x="233" y="164" type="curve" smooth="yes"/>
      <point x="191" y="164"/>
      <point x="153" y="205"/>
      <point x="153" y="282" type="curve" smooth="yes"/>
      <point x="153" y="359"/>
      <point x="191" y="400"/>
      <point x="235" y="400" type="curve" smooth="yes"/>
      <point x="286" y="400"/>
      <point x="322" y="366"/>
      <point x="415" y="260" type="curve" smooth="yes"/>
      <point x="520" y="142"/>
      <point x="579" y="91"/>
      <point x="664" y="91" type="curve" smooth="yes"/>
      <point x="762" y="91"/>
      <point x="841" y="160"/>
      <point x="841" y="299" type="curve" smooth="yes"/>
      <point x="841" y="439"/>
      <point x="761" y="508"/>
      <point x="669" y="508" type="curve" smooth="yes"/>
      <point x="604" y="507"/>
      <point x="568" y="497"/>
    </contour>
    <contour>
      <point x="61" y="299" type="curve" smooth="yes"/>
      <point x="61" y="160"/>
      <point x="141" y="91"/>
      <point x="234" y="91" type="curve" smooth="yes"/>
      <point x="311" y="91"/>
      <point x="340" y="110"/>
      <point x="480" y="273" type="curve" smooth="yes"/>
      <point x="604" y="420"/>
      <point x="624" y="435"/>
      <point x="670" y="435" type="curve" smooth="yes"/>
      <point x="714" y="435"/>
      <point x="750" y="392"/>
      <point x="750" y="316" type="curve" smooth="yes"/>
      <point x="750" y="241"/>
      <point x="713" y="197"/>
      <point x="667" y="198" type="curve" smooth="yes"/>
      <point x="619" y="199"/>
      <point x="569" y="239"/>
      <point x="487" y="339" type="curve" smooth="yes"/>
      <point x="381" y="466"/>
      <point x="316" y="508"/>
      <point x="234" y="508" type="curve" smooth="yes"/>
      <point x="142" y="508"/>
      <point x="61" y="439"/>
    </contour>
  </outline>
</glyph>
<glyph name="integral" format="2">
  <advance width="465"/>
  <unicode hex="222B"/>
  <outline>
    <contour>
      <point x="181" y="598" type="curve" smooth="yes"/>
      <point x="181" y="40" type="line" smooth="yes"/>
      <point x="181" y="-18"/>
      <point x="146" y="-42"/>
      <point x="104" y="-42" type="curve" smooth="yes"/>
      <point x="71" y="-42"/>
      <point x="51" y="-32"/>
      <point x="34" y="-20" type="curve"/>
      <point x="22" y="-102" type="line"/>
      <point x="44" y="-116"/>
      <point x="67" y="-128"/>
      <point x="121" y="-128" type="curve" smooth="yes"/>
      <point x="218" y="-128"/>
      <point x="284" y="-68"/>
      <point x="284" y="32" type="curve" smooth="yes"/>
      <point x="284" y="590" type="line" smooth="yes"/>
      <point x="284" y="648"/>
      <point x="319" y="672"/>
      <point x="361" y="672" type="curve" smooth="yes"/>
      <point x="394" y="672"/>
      <point x="414" y="662"/>
      <point x="432" y="650" type="curve"/>
      <point x="444" y="732" type="line"/>
      <point x="421" y="746"/>
      <point x="398" y="758"/>
      <point x="345" y="758" type="curve" smooth="yes"/>
      <point x="248" y="758"/>
      <point x="181" y="698"/>
    </contour>
  </outline>
</glyph>
<glyph name="lozenge" format="2">
  <advance width="607"/>
  <unicode hex="25CA"/>
  <outline>
    <contour>
      <point x="266" y="660" type="line"/>
      <point x="448" y="330" type="line"/>
      <point x="560" y="330" type="line"/>
      <point x="363" y="660" type="line"/>
    </contour>
    <contour>
      <point x="48" y="330" type="line"/>
      <point x="244" y="0" type="line"/>
      <point x="341" y="0" type="line"/>
      <point x="159" y="330" type="line"/>
    </contour>
    <contour>
      <point x="448" y="330" type="line"/>
      <point x="266" y="0" type="line"/>
      <point x="363" y="0" type="line"/>
      <point x="560" y="330" type="line"/>
    </contour>
    <contour>
      <point x="244" y="660" type="line"/>
      <point x="48" y="330" type="line"/>
      <point x="159" y="330" type="line"/>
      <point x="341" y="660" type="line"/>
    </contour>
  </outline>
</glyph>
<glyph name="A.swsh" format="2">
  <advance width="908"/>
  <anchor x="575" y="660" name="top"/>
  <anchor x="888" y="0" name="ogonek"/>
  <anchor x="575" y="0" name="bottom"/>
  <outline>
    <contour>
      <point x="388" y="53" type="curve" smooth="yes"/>
      <point x="544" y="474" type="line"/>
      <point x="573" y="567" type="line"/>
      <point x="575" y="567" type="line"/>
      <point x="605" y="472" type="line"/>
      <point x="775" y="0" type="line"/>
      <point x="888" y="0" type="line"/>
      <point x="639" y="660" type="line"/>
      <point x="511" y="660" type="line"/>
      <point x="303" y="110" type="line" smooth="yes"/>
      <point x="263" y="7"/>
      <point x="236" y="-23"/>
      <point x="170" y="-23" type="curve" smooth="yes"/>
      <point x="109" y="-23"/>
      <point x="73" y="-5"/>
      <point x="57" y="73" type="curve"/>
      <point x="0" y="10" type="line"/>
      <point x="10" y="-66"/>
      <point x="73" y="-110"/>
      <point x="174" y="-110" type="curve" smooth="yes"/>
      <point x="288" y="-110"/>
      <point x="351" y="-54"/>
    </contour>
    <contour>
      <point x="753" y="173" type="line"/>
      <point x="753" y="260" type="line"/>
      <point x="395" y="260" type="line"/>
      <point x="395" y="173" type="line"/>
    </contour>
    <component base="__swash_topleft" xOffset="39"/>
  </outline>
</glyph>
<glyph name="IJ.ss05" format="2">
  <advance width="642"/>
  <outline>
    <contour>
      <point x="98" y="660" type="line"/>
      <point x="98" y="288" type="line"/>
      <point x="205" y="288" type="line"/>
      <point x="205" y="660" type="line"/>
    </contour>
    <contour>
      <point x="445" y="660" type="line"/>
      <point x="445" y="249" type="line" smooth="yes"/>
      <point x="445" y="139"/>
      <point x="399" y="83"/>
      <point x="319" y="83" type="curve" smooth="yes"/>
      <point x="239" y="83"/>
      <point x="193" y="120"/>
      <point x="206" y="201" type="curve"/>
      <point x="101" y="201" type="line"/>
      <point x="85" y="65"/>
      <point x="165" y="-10"/>
      <point x="318" y="-10" type="curve" smooth="yes"/>
      <point x="461" y="-10"/>
      <point x="553" y="81"/>
      <point x="553" y="234" type="curve" smooth="yes"/>
      <point x="553" y="660" type="line"/>
    </contour>
  </outline>
</glyph>
<glyph name="L.swsh" format="2">
  <advance width="655"/>
  <anchor x="453" y="346" name="center"/>
  <anchor x="375" y="0" name="bottom"/>
  <anchor x="151" y="660" name="top"/>
  <anchor x="344" y="0" name="bottomC"/>
  <anchor x="316" y="700" name="topright"/>
  <anchor x="426" y="0" name="ogonek"/>
  <outline>
    <contour>
      <point x="426" y="0" type="line" smooth="yes"/>
      <point x="562" y="0"/>
      <point x="645" y="62"/>
      <point x="645" y="187" type="curve" smooth="yes"/>
      <point x="645" y="291"/>
      <point x="580" y="361"/>
      <point x="478" y="364" type="curve"/>
      <point x="441" y="287" type="line"/>
      <point x="504" y="285"/>
      <point x="545" y="253"/>
      <point x="545" y="189" type="curve" smooth="yes"/>
      <point x="545" y="117"/>
      <point x="494" y="92"/>
      <point x="412" y="92" type="curve" smooth="yes"/>
      <point x="284" y="92" type="line"/>
      <point x="284" y="0" type="line"/>
    </contour>
    <contour>
      <point x="349" y="0" type="line"/>
      <point x="357" y="92" type="line"/>
      <point x="152" y="92" type="line"/>
      <point x="152" y="0" type="line"/>
    </contour>
    <contour>
      <point x="205" y="0" type="line"/>
      <point x="205" y="660" type="line"/>
      <point x="98" y="660" type="line"/>
      <point x="98" y="0" type="line"/>
    </contour>
  </outline>
</glyph>
<glyph name="Lslash.swsh" format="2">
  <advance width="689"/>
  <anchor x="487" y="346" name="center"/>
  <anchor x="408" y="0" name="bottom"/>
  <anchor x="185" y="660" name="top"/>
  <anchor x="408" y="0" name="bottomC"/>
  <anchor x="349" y="700" name="topright"/>
  <anchor x="459" y="0" name="ogonek"/>
  <outline>
    <contour>
      <point x="25" y="283" type="line"/>
      <point x="25" y="187" type="line"/>
      <point x="414" y="393" type="line"/>
      <point x="414" y="489" type="line"/>
    </contour>
    <component base="L.swsh" xOffset="34"/>
  </outline>
</glyph>
<glyph name="R.ss03" format="2">
  <advance width="664"/>
  <anchor x="324" y="660" name="top"/>
  <anchor x="608" y="0" name="ogonek"/>
  <anchor x="364" y="0" name="bottom"/>
  <anchor x="565" y="0" name="bottomC"/>
  <outline>
    <contour>
      <point x="204" y="0" type="line"/>
      <point x="204" y="264" type="line"/>
      <point x="328" y="264" type="line" smooth="yes"/>
      <point x="422" y="264"/>
      <point x="464" y="228"/>
      <point x="469" y="155" type="curve" smooth="yes"/>
      <point x="476" y="67"/>
      <point x="482" y="27"/>
      <point x="494" y="0" type="curve"/>
      <point x="608" y="0" type="line"/>
      <point x="608" y="3" type="line"/>
      <point x="593" y="28"/>
      <point x="583" y="55"/>
      <point x="575" y="166" type="curve" smooth="yes"/>
      <point x="571" y="233"/>
      <point x="537" y="280"/>
      <point x="462" y="294" type="curve"/>
      <point x="462" y="296" type="line"/>
      <point x="548" y="318"/>
      <point x="598" y="374"/>
      <point x="598" y="464" type="curve" smooth="yes"/>
      <point x="598" y="586"/>
      <point x="509" y="660"/>
      <point x="367" y="660" type="curve" smooth="yes"/>
      <point x="98" y="660" type="line"/>
      <point x="98" y="0" type="line"/>
    </contour>
    <contour>
      <point x="204" y="569" type="line"/>
      <point x="358" y="569" type="line" smooth="yes"/>
      <point x="445" y="569"/>
      <point x="487" y="534"/>
      <point x="487" y="461" type="curve" smooth="yes"/>
      <point x="487" y="388"/>
      <point x="445" y="353"/>
      <point x="358" y="353" type="curve" smooth="yes"/>
      <point x="204" y="353" type="line"/>
    </contour>
  </outline>
</glyph>
<glyph name="R.swsh" format="2">
  <advance width="900"/>
  <anchor x="552" y="660" name="top"/>
  <anchor x="865" y="0" name="ogonek"/>
  <anchor x="592" y="0" name="bottom"/>
  <anchor x="811" y="0" name="bottomC"/>
  <outline>
    <contour>
      <point x="595" y="264" type="line" smooth="yes"/>
      <point x="736" y="264"/>
      <point x="826" y="338"/>
      <point x="826" y="462" type="curve" smooth="yes"/>
      <point x="826" y="586"/>
      <point x="736" y="660"/>
      <point x="595" y="660" type="curve" smooth="yes"/>
      <point x="386" y="660" type="line"/>
      <point x="386" y="569" type="line"/>
      <point x="585" y="569" type="line" smooth="yes"/>
      <point x="673" y="569"/>
      <point x="715" y="534"/>
      <point x="715" y="461" type="curve" smooth="yes"/>
      <point x="715" y="388"/>
      <point x="673" y="353"/>
      <point x="585" y="353" type="curve" smooth="yes"/>
      <point x="386" y="353" type="line"/>
      <point x="386" y="264" type="line"/>
    </contour>
    <contour>
      <point x="432" y="81" type="curve" smooth="yes"/>
      <point x="432" y="204" type="line"/>
      <point x="325" y="204" type="line"/>
      <point x="325" y="98" type="line" smooth="yes"/>
      <point x="325" y="26"/>
      <point x="285" y="-24"/>
      <point x="217" y="-24" type="curve" smooth="yes"/>
      <point x="150" y="-24"/>
      <point x="119" y="5"/>
      <point x="104" y="74" type="curve"/>
      <point x="42" y="14" type="line"/>
      <point x="60" y="-63"/>
      <point x="117" y="-110"/>
      <point x="223" y="-110" type="curve" smooth="yes"/>
      <point x="357" y="-110"/>
      <point x="432" y="-30"/>
    </contour>
    <contour>
      <point x="432" y="191" type="line"/>
      <point x="432" y="660" type="line"/>
      <point x="325" y="660" type="line"/>
      <point x="325" y="191" type="line"/>
    </contour>
    <contour>
      <point x="865" y="0" type="line"/>
      <point x="649" y="331" type="line"/>
      <point x="558" y="289" type="line"/>
      <point x="742" y="0" type="line"/>
    </contour>
    <component base="__swash_topleft" xOffset="-67"/>
  </outline>
</glyph>
<glyph name="T.swsh" format="2">
  <advance width="733"/>
  <anchor x="434" y="0" name="bottom"/>
  <anchor x="424" y="660" name="top"/>
  <anchor x="478" y="0" name="ogonek"/>
  <anchor x="424" y="331" name="center"/>
  <anchor x="453" y="0" name="bottomC"/>
  <outline>
    <contour>
      <point x="216" y="365" type="line"/>
      <point x="153" y="375"/>
      <point x="112" y="415"/>
      <point x="112" y="471" type="curve" smooth="yes"/>
      <point x="112" y="540"/>
      <point x="163" y="568"/>
      <point x="245" y="568" type="curve" smooth="yes"/>
      <point x="425" y="568" type="line"/>
      <point x="425" y="660" type="line"/>
      <point x="229" y="660" type="line" smooth="yes"/>
      <point x="93" y="660"/>
      <point x="10" y="590"/>
      <point x="10" y="473" type="curve" smooth="yes"/>
      <point x="10" y="368"/>
      <point x="86" y="297"/>
      <point x="179" y="286" type="curve"/>
    </contour>
    <contour>
      <point x="478" y="0" type="line"/>
      <point x="478" y="660" type="line"/>
      <point x="370" y="660" type="line"/>
      <point x="370" y="0" type="line"/>
    </contour>
    <contour>
      <point x="704" y="568" type="line"/>
      <point x="704" y="660" type="line"/>
      <point x="293" y="660" type="line"/>
      <point x="293" y="568" type="line"/>
    </contour>
  </outline>
</glyph>
<glyph name="W.swsh" format="2">
  <advance width="1239"/>
  <anchor x="753" y="660" name="top"/>
  <anchor x="1018" y="0" name="ogonek"/>
  <anchor x="753" y="0" name="bottom"/>
  <anchor x="969" y="0" name="bottomC"/>
  <outline>
    <contour>
      <point x="217" y="365" type="line"/>
      <point x="154" y="375"/>
      <point x="112" y="415"/>
      <point x="112" y="471" type="curve" smooth="yes"/>
      <point x="112" y="541"/>
      <point x="162" y="577"/>
      <point x="244" y="577" type="curve" smooth="yes"/>
      <point x="341" y="577" type="line"/>
      <point x="341" y="660" type="line"/>
      <point x="229" y="660" type="line" smooth="yes"/>
      <point x="93" y="660"/>
      <point x="10" y="590"/>
      <point x="10" y="473" type="curve" smooth="yes"/>
      <point x="10" y="367"/>
      <point x="87" y="296"/>
      <point x="179" y="286" type="curve"/>
    </contour>
    <component base="W" xOffset="267"/>
  </outline>
</glyph>
<glyph name="Ydieresis.titl" format="2">
  <advance width="597"/>
  <outline>
    <contour>
      <point x="437" y="647" type="curve" smooth="yes"/>
      <point x="437" y="684"/>
      <point x="412" y="708"/>
      <point x="374" y="708" type="curve" smooth="yes"/>
      <point x="335" y="708"/>
      <point x="310" y="684"/>
      <point x="310" y="647" type="curve" smooth="yes"/>
      <point x="310" y="610"/>
      <point x="335" y="586"/>
      <point x="374" y="586" type="curve" smooth="yes"/>
      <point x="412" y="586"/>
      <point x="437" y="610"/>
    </contour>
    <contour>
      <point x="287" y="647" type="curve" smooth="yes"/>
      <point x="287" y="684"/>
      <point x="262" y="708"/>
      <point x="223" y="708" type="curve" smooth="yes"/>
      <point x="185" y="708"/>
      <point x="160" y="684"/>
      <point x="160" y="647" type="curve" smooth="yes"/>
      <point x="160" y="610"/>
      <point x="185" y="586"/>
      <point x="223" y="586" type="curve" smooth="yes"/>
      <point x="262" y="586"/>
      <point x="287" y="610"/>
    </contour>
    <contour>
      <point x="468" y="660" type="line"/>
      <point x="351" y="448" type="line"/>
      <point x="299" y="349" type="line"/>
      <point x="247" y="448" type="line"/>
      <point x="129" y="660" type="line"/>
      <point x="10" y="660" type="line"/>
      <point x="245" y="253" type="line"/>
      <point x="245" y="0" type="line"/>
      <point x="352" y="0" type="line"/>
      <point x="352" y="253" type="line"/>
      <point x="588" y="660" type="line"/>
    </contour>
  </outline>
</glyph>
<glyph name="__swash_topleft" format="2">
  <advance width="509"/>
  <outline>
    <contour>
      <point x="283" y="365" type="line"/>
      <point x="222" y="375"/>
      <point x="179" y="415"/>
      <point x="179" y="471" type="curve" smooth="yes"/>
      <point x="179" y="541"/>
      <point x="230" y="577"/>
      <point x="310" y="577" type="curve" smooth="yes"/>
      <point x="517" y="577" type="line"/>
      <point x="517" y="660" type="line"/>
      <point x="297" y="660" type="line" smooth="yes"/>
      <point x="160" y="660"/>
      <point x="77" y="590"/>
      <point x="77" y="473" type="curve" smooth="yes"/>
      <point x="77" y="367"/>
      <point x="153" y="297"/>
      <point x="247" y="286" type="curve"/>
    </contour>
  </outline>
</glyph>
<glyph name=".notdef" format="2">
  <advance width="500"/>
  <outline>
    <contour>
      <point x="130" y="580" type="line"/>
      <point x="370" y="580" type="line"/>
      <point x="370" y="80" type="line"/>
      <point x="130" y="80" type="line"/>
    </contour>
    <contour>
      <point x="450" y="0" type="line"/>
      <point x="450" y="660" type="line"/>
      <point x="50" y="660" type="line"/>
      <point x="50" y="0" type="line"/>
    </contour>
  </outline>
</glyph>
<glyph name="a.sc" format="2">
  <advance width="605"/>
  <anchor x="302" y="560" name="top"/>
  <anchor x="587" y="0" name="ogonek"/>
  <anchor x="302" y="0" name="bottom"/>
  <anchor x="536" y="0" name="bottomC"/>
  <outline>
    <contour>
      <point x="125" y="0" type="line"/>
      <point x="268" y="370" type="line"/>
      <point x="301" y="473" type="line"/>
      <point x="303" y="473" type="line"/>
      <point x="335" y="370" type="line"/>
      <point x="478" y="0" type="line"/>
      <point x="587" y="0" type="line"/>
      <point x="366" y="560" type="line"/>
      <point x="239" y="560" type="line"/>
      <point x="18" y="0" type="line"/>
    </contour>
    <contour>
      <point x="464" y="142" type="line"/>
      <point x="464" y="224" type="line"/>
      <point x="141" y="224" type="line"/>
      <point x="141" y="142" type="line"/>
    </contour>
  </outline>
</glyph>
<glyph name="ae.sc" format="2">
  <advance width="826"/>
  <anchor x="417" y="560" name="top"/>
  <anchor x="417" y="0" name="bottom"/>
  <outline>
    <contour>
      <point x="281" y="560" type="line"/>
      <point x="-9" y="0" type="line"/>
      <point x="96" y="0" type="line"/>
      <point x="376" y="560" type="line"/>
    </contour>
    <contour>
      <point x="176" y="256" type="line"/>
      <point x="135" y="174" type="line"/>
      <point x="420" y="174" type="line"/>
      <point x="420" y="256" type="line"/>
    </contour>
    <contour>
      <point x="419" y="83" type="line"/>
      <point x="419" y="0" type="line"/>
      <point x="784" y="0" type="line"/>
      <point x="784" y="83" type="line"/>
    </contour>
    <contour>
      <point x="367" y="560" type="line"/>
      <point x="367" y="0" type="line"/>
      <point x="468" y="0" type="line"/>
      <point x="468" y="560" type="line"/>
    </contour>
    <contour>
      <point x="419" y="324" type="line"/>
      <point x="419" y="241" type="line"/>
      <point x="700" y="241" type="line"/>
      <point x="700" y="324" type="line"/>
    </contour>
    <contour>
      <point x="323" y="560" type="line"/>
      <point x="288" y="478" type="line"/>
      <point x="413" y="478" type="line"/>
      <point x="434" y="477" type="line"/>
      <point x="772" y="477" type="line"/>
      <point x="772" y="560" type="line"/>
    </contour>
  </outline>
</glyph>
<glyph name="ampersand.sc" format="2">
  <advance width="569"/>
  <outline>
    <contour>
      <point x="569" y="63" type="line"/>
      <point x="503" y="60"/>
      <point x="473" y="85"/>
      <point x="343" y="229" type="curve" smooth="yes"/>
      <point x="214" y="372"/>
      <point x="198" y="392"/>
      <point x="198" y="433" type="curve" smooth="yes"/>
      <point x="198" y="468"/>
      <point x="220" y="494"/>
      <point x="262" y="494" type="curve" smooth="yes"/>
      <point x="303" y="494"/>
      <point x="327" y="476"/>
      <point x="327" y="438" type="curve" smooth="yes"/>
      <point x="327" y="398"/>
      <point x="316" y="366"/>
      <point x="221" y="320" type="curve"/>
      <point x="80" y="267"/>
      <point x="37" y="212"/>
      <point x="37" y="135" type="curve" smooth="yes"/>
      <point x="37" y="49"/>
      <point x="113" y="-8"/>
      <point x="234" y="-8" type="curve" smooth="yes"/>
      <point x="323" y="-8"/>
      <point x="390" y="23"/>
      <point x="435" y="76" type="curve"/>
      <point x="488" y="128"/>
      <point x="518" y="201"/>
      <point x="516" y="290" type="curve"/>
      <point x="446" y="303" type="line"/>
      <point x="449" y="217"/>
      <point x="429" y="161"/>
      <point x="388" y="121" type="curve"/>
      <point x="350" y="84"/>
      <point x="300" y="63"/>
      <point x="238" y="63" type="curve" smooth="yes"/>
      <point x="179" y="63"/>
      <point x="129" y="96"/>
      <point x="129" y="146" type="curve" smooth="yes"/>
      <point x="129" y="189"/>
      <point x="155" y="220"/>
      <point x="258" y="271" type="curve"/>
      <point x="383" y="328"/>
      <point x="412" y="376"/>
      <point x="412" y="445" type="curve" smooth="yes"/>
      <point x="412" y="525"/>
      <point x="349" y="568"/>
      <point x="261" y="568" type="curve" smooth="yes"/>
      <point x="156" y="568"/>
      <point x="105" y="502"/>
      <point x="105" y="436" type="curve" smooth="yes"/>
      <point x="105" y="368"/>
      <point x="144" y="324"/>
      <point x="291" y="172" type="curve" smooth="yes"/>
      <point x="439" y="16"/>
      <point x="475" y="-8"/>
      <point x="552" y="-8" type="curve"/>
    </contour>
  </outline>
</glyph>
<glyph name="aring.sc" format="2">
  <advance width="605"/>
  <anchor x="303" y="745" name="top"/>
  <anchor x="587" y="0" name="ogonek"/>
  <anchor x="302" y="0" name="bottom"/>
  <anchor x="551" y="0" name="bottomC"/>
  <outline>
    <contour>
      <point x="126" y="0" type="line"/>
      <point x="269" y="370" type="line"/>
      <point x="301" y="471" type="line"/>
      <point x="303" y="471" type="line"/>
      <point x="335" y="370" type="line"/>
      <point x="478" y="0" type="line"/>
      <point x="587" y="0" type="line"/>
      <point x="365" y="560" type="line"/>
      <point x="240" y="560" type="line"/>
      <point x="18" y="0" type="line"/>
    </contour>
    <contour>
      <point x="464" y="142" type="line"/>
      <point x="464" y="224" type="line"/>
      <point x="142" y="224" type="line"/>
      <point x="142" y="142" type="line"/>
    </contour>
    <contour>
      <point x="170" y="633" type="curve" smooth="yes"/>
      <point x="170" y="560"/>
      <point x="222" y="513"/>
      <point x="303" y="513" type="curve" smooth="yes"/>
      <point x="382" y="513"/>
      <point x="435" y="560"/>
      <point x="435" y="633" type="curve" smooth="yes"/>
      <point x="435" y="705"/>
      <point x="384" y="755"/>
      <point x="303" y="755" type="curve" smooth="yes"/>
      <point x="222" y="755"/>
      <point x="170" y="705"/>
    </contour>
    <contour>
      <point x="369" y="632" type="curve" smooth="yes"/>
      <point x="369" y="593"/>
      <point x="342" y="567"/>
      <point x="302" y="567" type="curve" smooth="yes"/>
      <point x="263" y="567"/>
      <point x="235" y="593"/>
      <point x="235" y="632" type="curve" smooth="yes"/>
      <point x="235" y="670"/>
      <point x="263" y="697"/>
      <point x="302" y="697" type="curve" smooth="yes"/>
      <point x="342" y="697"/>
      <point x="369" y="670"/>
    </contour>
  </outline>
</glyph>
<glyph name="b.sc" format="2">
  <advance width="603"/>
  <anchor x="295" y="560" name="top"/>
  <anchor x="336" y="0" name="ogonek"/>
  <anchor x="295" y="0" name="bottom"/>
  <anchor x="284" y="0" name="bottomC"/>
  <outline>
    <contour>
      <point x="339" y="0" type="line" smooth="yes"/>
      <point x="478" y="0"/>
      <point x="552" y="57"/>
      <point x="552" y="153" type="curve" smooth="yes"/>
      <point x="552" y="218"/>
      <point x="512" y="274"/>
      <point x="431" y="282" type="curve"/>
      <point x="431" y="283" type="line"/>
      <point x="498" y="298"/>
      <point x="536" y="346"/>
      <point x="536" y="408" type="curve" smooth="yes"/>
      <point x="536" y="504"/>
      <point x="473" y="560"/>
      <point x="334" y="560" type="curve" smooth="yes"/>
      <point x="87" y="560" type="line"/>
      <point x="87" y="0" type="line"/>
    </contour>
    <contour>
      <point x="191" y="242" type="line"/>
      <point x="337" y="242" type="line" smooth="yes"/>
      <point x="408" y="242"/>
      <point x="445" y="215"/>
      <point x="445" y="161" type="curve" smooth="yes"/>
      <point x="445" y="108"/>
      <point x="408" y="81"/>
      <point x="337" y="81" type="curve" smooth="yes"/>
      <point x="191" y="81" type="line"/>
    </contour>
    <contour>
      <point x="191" y="479" type="line"/>
      <point x="327" y="479" type="line" smooth="yes"/>
      <point x="395" y="479"/>
      <point x="430" y="453"/>
      <point x="430" y="400" type="curve" smooth="yes"/>
      <point x="430" y="346"/>
      <point x="395" y="321"/>
      <point x="327" y="321" type="curve" smooth="yes"/>
      <point x="191" y="321" type="line"/>
    </contour>
  </outline>
</glyph>
<glyph name="blackCircle.case" format="2">
  <advance width="787"/>
  <outline>
    <contour>
      <point x="734" y="330" type="curve" smooth="yes"/>
      <point x="734" y="524"/>
      <point x="588" y="670"/>
      <point x="394" y="670" type="curve" smooth="yes"/>
      <point x="200" y="670"/>
      <point x="54" y="524"/>
      <point x="54" y="330" type="curve" smooth="yes"/>
      <point x="54" y="136"/>
      <point x="200" y="-10"/>
      <point x="394" y="-10" type="curve" smooth="yes"/>
      <point x="588" y="-10"/>
      <point x="734" y="136"/>
    </contour>
  </outline>
</glyph>
<glyph name="blackDiamond.case" format="2">
  <advance width="787"/>
  <outline>
    <contour>
      <point x="735" y="330" type="line"/>
      <point x="394" y="671" type="line"/>
      <point x="53" y="330" type="line"/>
      <point x="394" y="-11" type="line"/>
    </contour>
  </outline>
</glyph>
<glyph name="bowl" format="2">
  <advance width="601"/>
  <outline>
    <contour>
      <point x="80" y="249" type="curve" smooth="yes"/>
      <point x="80" y="86"/>
      <point x="165" y="-10"/>
      <point x="301" y="-10" type="curve" smooth="yes"/>
      <point x="413" y="-10"/>
      <point x="489" y="72"/>
      <point x="489" y="173" type="curve"/>
      <point x="463" y="244" type="line"/>
      <point x="463" y="139"/>
      <point x="409" y="76"/>
      <point x="325" y="76" type="curve" smooth="yes"/>
      <point x="239" y="76"/>
      <point x="187" y="141"/>
      <point x="187" y="250" type="curve" smooth="yes"/>
      <point x="187" y="359"/>
      <point x="239" y="423"/>
      <point x="325" y="423" type="curve" smooth="yes"/>
      <point x="409" y="423"/>
      <point x="463" y="360"/>
      <point x="463" y="256" type="curve"/>
      <point x="486" y="327" type="line"/>
      <point x="486" y="428"/>
      <point x="413" y="510"/>
      <point x="302" y="510" type="curve" smooth="yes"/>
      <point x="166" y="510"/>
      <point x="80" y="413"/>
    </contour>
  </outline>
</glyph>
<glyph name="braceleft.case" format="2">
  <advance width="372"/>
  <outline>
    <contour>
      <point x="144" y="636" type="curve" smooth="yes"/>
      <point x="144" y="473" type="line" smooth="yes"/>
      <point x="144" y="398"/>
      <point x="113" y="369"/>
      <point x="32" y="369" type="curve"/>
      <point x="32" y="319" type="line"/>
      <point x="163" y="319"/>
      <point x="237" y="360"/>
      <point x="237" y="458" type="curve" smooth="yes"/>
      <point x="237" y="635" type="line" smooth="yes"/>
      <point x="237" y="677"/>
      <point x="266" y="696"/>
      <point x="336" y="696" type="curve"/>
      <point x="325" y="774" type="line"/>
      <point x="193" y="774"/>
      <point x="144" y="729"/>
    </contour>
    <contour>
      <point x="32" y="287" type="line"/>
      <point x="113" y="287"/>
      <point x="144" y="258"/>
      <point x="144" y="183" type="curve" smooth="yes"/>
      <point x="144" y="20" type="line" smooth="yes"/>
      <point x="144" y="-73"/>
      <point x="193" y="-118"/>
      <point x="325" y="-118" type="curve"/>
      <point x="336" y="-40" type="line"/>
      <point x="266" y="-40"/>
      <point x="237" y="-21"/>
      <point x="237" y="21" type="curve" smooth="yes"/>
      <point x="237" y="199" type="line" smooth="yes"/>
      <point x="237" y="296"/>
      <point x="163" y="338"/>
      <point x="32" y="338" type="curve"/>
    </contour>
  </outline>
</glyph>
<glyph name="bracketleft.case" format="2">
  <advance width="361"/>
  <outline>
    <contour>
      <point x="86" y="752" type="line"/>
      <point x="86" y="-97" type="line"/>
      <point x="183" y="-97" type="line"/>
      <point x="183" y="752" type="line"/>
    </contour>
    <contour>
      <point x="138" y="-12" type="line"/>
      <point x="138" y="-97" type="line"/>
      <point x="330" y="-97" type="line"/>
      <point x="330" y="-12" type="line"/>
    </contour>
    <contour>
      <point x="138" y="752" type="line"/>
      <point x="138" y="667" type="line"/>
      <point x="330" y="667" type="line"/>
      <point x="330" y="752" type="line"/>
    </contour>
  </outline>
</glyph>
<glyph name="c.sc" format="2">
  <advance width="612"/>
  <anchor x="334" y="560" name="top"/>
  <anchor x="406" y="0" name="ogonek"/>
  <anchor x="334" y="0" name="bottom"/>
  <anchor x="333" y="0" name="bottomC"/>
  <outline>
    <contour>
      <point x="482" y="187" type="line"/>
      <point x="470" y="114"/>
      <point x="421" y="79"/>
      <point x="329" y="79" type="curve" smooth="yes"/>
      <point x="231" y="79"/>
      <point x="161" y="151"/>
      <point x="161" y="280" type="curve" smooth="yes"/>
      <point x="161" y="409"/>
      <point x="230" y="481"/>
      <point x="332" y="481" type="curve" smooth="yes"/>
      <point x="413" y="481"/>
      <point x="458" y="448"/>
      <point x="474" y="372" type="curve"/>
      <point x="573" y="409" type="line"/>
      <point x="545" y="514"/>
      <point x="455" y="568"/>
      <point x="334" y="568" type="curve" smooth="yes"/>
      <point x="162" y="568"/>
      <point x="54" y="459"/>
      <point x="54" y="280" type="curve" smooth="yes"/>
      <point x="54" y="101"/>
      <point x="163" y="-8"/>
      <point x="330" y="-8" type="curve" smooth="yes"/>
      <point x="461" y="-8"/>
      <point x="557" y="51"/>
      <point x="582" y="156" type="curve"/>
    </contour>
  </outline>
</glyph>
<glyph name="cent.001" format="2">
  <advance width="554"/>
  <outline>
    <contour>
      <point x="61" y="250" type="curve" smooth="yes"/>
      <point x="61" y="87"/>
      <point x="150" y="-10"/>
      <point x="303" y="-10" type="curve" smooth="yes"/>
      <point x="415" y="-10"/>
      <point x="488" y="48"/>
      <point x="513" y="140" type="curve"/>
      <point x="421" y="169" type="line"/>
      <point x="405" y="103"/>
      <point x="365" y="69"/>
      <point x="301" y="69" type="curve" smooth="yes"/>
      <point x="212" y="69"/>
      <point x="160" y="131"/>
      <point x="160" y="249" type="curve" smooth="yes"/>
      <point x="160" y="367"/>
      <point x="211" y="431"/>
      <point x="302" y="431" type="curve" smooth="yes"/>
      <point x="358" y="431"/>
      <point x="397" y="397"/>
      <point x="413" y="333" type="curve"/>
      <point x="509" y="370" type="line"/>
      <point x="481" y="453"/>
      <point x="417" y="510"/>
      <point x="301" y="510" type="curve" smooth="yes"/>
      <point x="151" y="510"/>
      <point x="61" y="413"/>
    </contour>
    <contour>
      <point x="250" y="26" type="line"/>
      <point x="250" y="-110" type="line"/>
      <point x="339" y="-110" type="line"/>
      <point x="339" y="26" type="line"/>
    </contour>
    <contour>
      <point x="250" y="610" type="line"/>
      <point x="250" y="471" type="line"/>
      <point x="339" y="471" type="line"/>
      <point x="339" y="610" type="line"/>
    </contour>
  </outline>
</glyph>
<glyph name="commasuperior" format="2">
  <advance width="198"/>
  <outline>
    <contour>
      <point x="45" y="379" type="curve" smooth="yes"/>
      <point x="45" y="345"/>
      <point x="71" y="327"/>
      <point x="94" y="327" type="curve" smooth="yes"/>
      <point x="102" y="327"/>
      <point x="105" y="329"/>
      <point x="108" y="331" type="curve"/>
      <point x="111" y="330" type="line"/>
      <point x="109" y="303"/>
      <point x="78" y="272"/>
      <point x="40" y="257" type="curve"/>
      <point x="77" y="227" type="line"/>
      <point x="135" y="253"/>
      <point x="161" y="302"/>
      <point x="161" y="354" type="curve" smooth="yes"/>
      <point x="161" y="399"/>
      <point x="139" y="430"/>
      <point x="100" y="430" type="curve" smooth="yes"/>
      <point x="65" y="430"/>
      <point x="45" y="410"/>
    </contour>
  </outline>
</glyph>
<glyph name="d.sc" format="2">
  <advance width="652"/>
  <anchor x="295" y="0" name="bottom"/>
  <anchor x="295" y="560" name="top"/>
  <anchor x="302" y="0" name="ogonek"/>
  <anchor x="258" y="210" name="center"/>
  <anchor x="288" y="0" name="bottomC"/>
  <outline>
    <contour>
      <point x="151" y="560" type="line"/>
      <point x="151" y="474" type="line"/>
      <point x="306" y="474" type="line" smooth="yes"/>
      <point x="425" y="474"/>
      <point x="489" y="405"/>
      <point x="489" y="281" type="curve" smooth="yes"/>
      <point x="489" y="156"/>
      <point x="425" y="86"/>
      <point x="306" y="86" type="curve" smooth="yes"/>
      <point x="151" y="86" type="line"/>
      <point x="151" y="0" type="line"/>
      <point x="302" y="0" type="line" smooth="yes"/>
      <point x="488" y="0"/>
      <point x="596" y="101"/>
      <point x="596" y="281" type="curve" smooth="yes"/>
      <point x="596" y="459"/>
      <point x="488" y="560"/>
      <point x="302" y="560" type="curve" smooth="yes"/>
    </contour>
    <contour>
      <point x="87" y="560" type="line"/>
      <point x="87" y="0" type="line"/>
      <point x="193" y="0" type="line"/>
      <point x="193" y="560" type="line"/>
    </contour>
  </outline>
</glyph>
<glyph name="daggerdblsuperior" format="2">
  <advance width="435"/>
  <outline>
    <contour>
      <point x="30" y="597" type="line"/>
      <point x="30" y="528" type="line"/>
      <point x="405" y="528" type="line"/>
      <point x="405" y="597" type="line"/>
    </contour>
    <contour>
      <point x="260" y="730" type="line"/>
      <point x="175" y="730" type="line"/>
      <point x="175" y="233" type="line"/>
      <point x="260" y="233" type="line"/>
    </contour>
    <contour>
      <point x="405" y="435" type="line"/>
      <point x="30" y="435" type="line"/>
      <point x="30" y="366" type="line"/>
      <point x="405" y="366" type="line"/>
    </contour>
  </outline>
</glyph>
<glyph name="daggersuperior" format="2">
  <advance width="435"/>
  <outline>
    <contour>
      <point x="175" y="730" type="line"/>
      <point x="175" y="233" type="line"/>
      <point x="260" y="233" type="line"/>
      <point x="260" y="730" type="line"/>
    </contour>
    <contour>
      <point x="30" y="592" type="line"/>
      <point x="30" y="519" type="line"/>
      <point x="405" y="519" type="line"/>
      <point x="405" y="592" type="line"/>
    </contour>
  </outline>
</glyph>
<glyph name="dollar.001" format="2">
  <advance width="607"/>
  <outline>
    <contour>
      <point x="65" y="465" type="curve" smooth="yes"/>
      <point x="65" y="228"/>
      <point x="455" y="340"/>
      <point x="455" y="179" type="curve" smooth="yes"/>
      <point x="455" y="111"/>
      <point x="400" y="81"/>
      <point x="311" y="81" type="curve" smooth="yes"/>
      <point x="223" y="81"/>
      <point x="140" y="133"/>
      <point x="118" y="214" type="curve"/>
      <point x="41" y="157" type="line"/>
      <point x="85" y="55"/>
      <point x="174" y="0"/>
      <point x="312" y="0" type="curve" smooth="yes"/>
      <point x="454" y="0"/>
      <point x="555" y="70"/>
      <point x="555" y="186" type="curve" smooth="yes"/>
      <point x="555" y="427"/>
      <point x="166" y="317"/>
      <point x="166" y="473" type="curve" smooth="yes"/>
      <point x="166" y="537"/>
      <point x="215" y="577"/>
      <point x="309" y="577" type="curve" smooth="yes"/>
      <point x="399" y="577"/>
      <point x="445" y="545"/>
      <point x="484" y="461" type="curve"/>
      <point x="556" y="526" type="line"/>
      <point x="503" y="615"/>
      <point x="437" y="660"/>
      <point x="307" y="660" type="curve" smooth="yes"/>
      <point x="155" y="660"/>
      <point x="65" y="575"/>
    </contour>
    <contour>
      <point x="268" y="43" type="line"/>
      <point x="268" y="-102" type="line"/>
      <point x="354" y="-102" type="line"/>
      <point x="354" y="43" type="line"/>
    </contour>
    <contour>
      <point x="354" y="619" type="line"/>
      <point x="354" y="762" type="line"/>
      <point x="267" y="762" type="line"/>
      <point x="267" y="619" type="line"/>
    </contour>
  </outline>
</glyph>
<glyph name="eight.sc" format="2">
  <advance width="561"/>
  <outline>
    <contour>
      <point x="507" y="151" type="curve" smooth="yes"/>
      <point x="507" y="217"/>
      <point x="465" y="267"/>
      <point x="394" y="290" type="curve"/>
      <point x="394" y="291" type="line"/>
      <point x="455" y="313"/>
      <point x="489" y="359"/>
      <point x="489" y="415" type="curve" smooth="yes"/>
      <point x="489" y="510"/>
      <point x="407" y="567"/>
      <point x="281" y="567" type="curve" smooth="yes"/>
      <point x="154" y="567"/>
      <point x="72" y="510"/>
      <point x="72" y="415" type="curve" smooth="yes"/>
      <point x="72" y="359"/>
      <point x="106" y="313"/>
      <point x="167" y="291" type="curve"/>
      <point x="167" y="290" type="line"/>
      <point x="96" y="267"/>
      <point x="54" y="217"/>
      <point x="54" y="151" type="curve" smooth="yes"/>
      <point x="54" y="53"/>
      <point x="142" y="-8"/>
      <point x="281" y="-8" type="curve" smooth="yes"/>
      <point x="419" y="-8"/>
      <point x="507" y="53"/>
    </contour>
    <contour>
      <point x="159" y="162" type="curve" smooth="yes"/>
      <point x="159" y="217"/>
      <point x="207" y="251"/>
      <point x="281" y="251" type="curve" smooth="yes"/>
      <point x="354" y="251"/>
      <point x="403" y="217"/>
      <point x="403" y="162" type="curve" smooth="yes"/>
      <point x="403" y="107"/>
      <point x="356" y="73"/>
      <point x="281" y="73" type="curve" smooth="yes"/>
      <point x="205" y="73"/>
      <point x="159" y="107"/>
    </contour>
    <contour>
      <point x="175" y="407" type="curve" smooth="yes"/>
      <point x="175" y="457"/>
      <point x="216" y="486"/>
      <point x="281" y="486" type="curve" smooth="yes"/>
      <point x="345" y="486"/>
      <point x="386" y="457"/>
      <point x="386" y="407" type="curve" smooth="yes"/>
      <point x="386" y="358"/>
      <point x="344" y="328"/>
      <point x="281" y="328" type="curve" smooth="yes"/>
      <point x="217" y="328"/>
      <point x="175" y="358"/>
    </contour>
  </outline>
</glyph>
<glyph name="eight.tf" format="2">
  <advance width="604"/>
  <outline>
    <contour>
      <point x="88" y="492" type="curve" smooth="yes"/>
      <point x="88" y="423"/>
      <point x="126" y="370"/>
      <point x="183" y="345" type="curve"/>
      <point x="183" y="344" type="line"/>
      <point x="109" y="316"/>
      <point x="62" y="258"/>
      <point x="62" y="179" type="curve" smooth="yes"/>
      <point x="62" y="62"/>
      <point x="156" y="-10"/>
      <point x="302" y="-10" type="curve" smooth="yes"/>
      <point x="448" y="-10"/>
      <point x="542" y="62"/>
      <point x="542" y="179" type="curve" smooth="yes"/>
      <point x="542" y="260"/>
      <point x="494" y="317"/>
      <point x="422" y="344" type="curve"/>
      <point x="422" y="345" type="line"/>
      <point x="479" y="371"/>
      <point x="516" y="424"/>
      <point x="516" y="492" type="curve" smooth="yes"/>
      <point x="516" y="601"/>
      <point x="432" y="669"/>
      <point x="302" y="669" type="curve" smooth="yes"/>
      <point x="172" y="669"/>
      <point x="88" y="601"/>
    </contour>
    <contour>
      <point x="412" y="482" type="curve" smooth="yes"/>
      <point x="412" y="422"/>
      <point x="368" y="386"/>
      <point x="302" y="386" type="curve" smooth="yes"/>
      <point x="236" y="386"/>
      <point x="192" y="422"/>
      <point x="192" y="482" type="curve" smooth="yes"/>
      <point x="192" y="543"/>
      <point x="234" y="579"/>
      <point x="302" y="579" type="curve" smooth="yes"/>
      <point x="370" y="579"/>
      <point x="412" y="543"/>
    </contour>
    <contour>
      <point x="168" y="189" type="curve" smooth="yes"/>
      <point x="168" y="258"/>
      <point x="221" y="299"/>
      <point x="302" y="299" type="curve" smooth="yes"/>
      <point x="384" y="299"/>
      <point x="436" y="258"/>
      <point x="436" y="189" type="curve" smooth="yes"/>
      <point x="436" y="121"/>
      <point x="385" y="80"/>
      <point x="302" y="80" type="curve" smooth="yes"/>
      <point x="220" y="80"/>
      <point x="168" y="121"/>
    </contour>
  </outline>
</glyph>
<glyph name="euro.part.tf" format="2">
  <advance width="604"/>
  <outline>
    <contour>
      <point x="94" y="330" type="curve" smooth="yes"/>
      <point x="94" y="120"/>
      <point x="190" y="-10"/>
      <point x="355" y="-10" type="curve" smooth="yes"/>
      <point x="477" y="-10"/>
      <point x="564" y="57"/>
      <point x="589" y="169" type="curve"/>
      <point x="500" y="199" type="line"/>
      <point x="488" y="117"/>
      <point x="435" y="75"/>
      <point x="357" y="75" type="curve" smooth="yes"/>
      <point x="256" y="75"/>
      <point x="193" y="172"/>
      <point x="193" y="330" type="curve" smooth="yes"/>
      <point x="193" y="490"/>
      <point x="265" y="585"/>
      <point x="366" y="585" type="curve" smooth="yes"/>
      <point x="432" y="585"/>
      <point x="479" y="547"/>
      <point x="490" y="476" type="curve"/>
      <point x="578" y="517" type="line"/>
      <point x="553" y="618"/>
      <point x="476" y="670"/>
      <point x="359" y="670" type="curve" smooth="yes"/>
      <point x="196" y="670"/>
      <point x="94" y="541"/>
    </contour>
  </outline>
</glyph>
<glyph name="exclam.sc" format="2">
  <advance width="257"/>
  <outline>
    <contour>
      <point x="74" y="560" type="line"/>
      <point x="74" y="352" type="line"/>
      <point x="87" y="180" type="line"/>
      <point x="171" y="180" type="line"/>
      <point x="184" y="352" type="line"/>
      <point x="184" y="560" type="line"/>
    </contour>
    <component base="period" xScale="0.9328" yScale="0.9074" xOffset="1"/>
  </outline>
</glyph>
<glyph name="f.sc" format="2">
  <advance width="555"/>
  <anchor x="305" y="560" name="top"/>
  <anchor x="194" y="0" name="ogonek"/>
  <anchor x="140" y="0" name="bottom"/>
  <anchor x="157" y="0" name="bottomC"/>
  <outline>
    <contour>
      <point x="87" y="560" type="line"/>
      <point x="87" y="0" type="line"/>
      <point x="193" y="0" type="line"/>
      <point x="193" y="560" type="line"/>
    </contour>
    <contour>
      <point x="141" y="322" type="line"/>
      <point x="141" y="238" type="line"/>
      <point x="451" y="238" type="line"/>
      <point x="451" y="322" type="line"/>
    </contour>
    <contour>
      <point x="141" y="560" type="line"/>
      <point x="141" y="476" type="line"/>
      <point x="523" y="476" type="line"/>
      <point x="523" y="560" type="line"/>
    </contour>
  </outline>
</glyph>
<glyph name="f_idieresis" format="2">
  <advance width="698"/>
  <outline>
    <contour>
      <point x="228" y="0" type="line"/>
      <point x="228" y="464" type="line"/>
      <point x="225" y="488" type="line"/>
      <point x="222" y="514"/>
      <point x="220" y="539"/>
      <point x="220" y="568" type="curve" smooth="yes"/>
      <point x="220" y="621"/>
      <point x="250" y="645"/>
      <point x="303" y="645" type="curve" smooth="yes"/>
      <point x="326" y="645"/>
      <point x="343" y="640"/>
      <point x="358" y="630" type="curve"/>
      <point x="377" y="708" type="line"/>
      <point x="359" y="723"/>
      <point x="325" y="732"/>
      <point x="287" y="732" type="curve" smooth="yes"/>
      <point x="174" y="732"/>
      <point x="115" y="672"/>
      <point x="115" y="583" type="curve" smooth="yes"/>
      <point x="115" y="547"/>
      <point x="119" y="514"/>
      <point x="125" y="484" type="curve"/>
      <point x="121" y="465" type="line"/>
      <point x="121" y="0" type="line"/>
    </contour>
    <contour>
      <point x="385" y="416" type="line"/>
      <point x="385" y="500" type="line"/>
      <point x="27" y="500" type="line"/>
      <point x="27" y="416" type="line"/>
    </contour>
    <contour>
      <point x="615" y="0" type="line"/>
      <point x="615" y="500" type="line"/>
      <point x="508" y="500" type="line"/>
      <point x="508" y="0" type="line"/>
    </contour>
    <contour>
      <point x="541" y="637" type="curve" smooth="yes"/>
      <point x="541" y="676"/>
      <point x="516" y="701"/>
      <point x="476" y="701" type="curve" smooth="yes"/>
      <point x="437" y="701"/>
      <point x="412" y="676"/>
      <point x="412" y="637" type="curve" smooth="yes"/>
      <point x="412" y="598"/>
      <point x="437" y="574"/>
      <point x="476" y="574" type="curve" smooth="yes"/>
      <point x="516" y="574"/>
      <point x="541" y="598"/>
    </contour>
    <contour>
      <point x="710" y="637" type="curve" smooth="yes"/>
      <point x="710" y="676"/>
      <point x="685" y="701"/>
      <point x="646" y="701" type="curve" smooth="yes"/>
      <point x="606" y="701"/>
      <point x="581" y="676"/>
      <point x="581" y="637" type="curve" smooth="yes"/>
      <point x="581" y="598"/>
      <point x="606" y="574"/>
      <point x="646" y="574" type="curve" smooth="yes"/>
      <point x="685" y="574"/>
      <point x="710" y="598"/>
    </contour>
  </outline>
</glyph>
<glyph name="five.osf" format="2">
  <advance width="564"/>
  <outline>
    <contour>
      <point x="165" y="270" type="curve"/>
      <point x="164" y="270" type="line"/>
      <point x="164" y="272"/>
      <point x="166" y="281"/>
      <point x="166" y="283" type="curve"/>
      <point x="189" y="474" type="line"/>
      <point x="489" y="474" type="line"/>
      <point x="489" y="560" type="line"/>
      <point x="106" y="560" type="line"/>
      <point x="65" y="185" type="line"/>
      <point x="153" y="178" type="line"/>
      <point x="181" y="218"/>
      <point x="227" y="241"/>
      <point x="287" y="241" type="curve" smooth="yes"/>
      <point x="371" y="241"/>
      <point x="416" y="191"/>
      <point x="416" y="107" type="curve" smooth="yes"/>
      <point x="416" y="24"/>
      <point x="368" y="-27"/>
      <point x="284" y="-27" type="curve" smooth="yes"/>
      <point x="200" y="-27"/>
      <point x="160" y="21"/>
      <point x="142" y="90" type="curve"/>
      <point x="47" y="39" type="line"/>
      <point x="88" y="-60"/>
      <point x="165" y="-110"/>
      <point x="286" y="-110" type="curve" smooth="yes"/>
      <point x="426" y="-110"/>
      <point x="518" y="-29"/>
      <point x="518" y="114" type="curve" smooth="yes"/>
      <point x="518" y="240"/>
      <point x="440" y="324"/>
      <point x="313" y="324" type="curve" smooth="yes"/>
      <point x="246" y="324"/>
      <point x="195" y="303"/>
    </contour>
  </outline>
</glyph>
<glyph name="four.sc" format="2">
  <advance width="565"/>
  <outline>
    <contour>
      <point x="433" y="0" type="line"/>
      <point x="433" y="133" type="line"/>
      <point x="534" y="133" type="line"/>
      <point x="534" y="214" type="line"/>
      <point x="433" y="214" type="line"/>
      <point x="433" y="560" type="line"/>
      <point x="301" y="560" type="line"/>
      <point x="40" y="195" type="line"/>
      <point x="40" y="133" type="line"/>
      <point x="333" y="133" type="line"/>
      <point x="333" y="0" type="line"/>
    </contour>
    <contour>
      <point x="283" y="404" type="line" smooth="yes"/>
      <point x="298" y="425"/>
      <point x="319" y="458"/>
      <point x="332" y="483" type="curve"/>
      <point x="335" y="483" type="line"/>
      <point x="334" y="214" type="line"/>
      <point x="146" y="214" type="line"/>
    </contour>
  </outline>
</glyph>
<glyph name="g.ss01" format="2">
  <advance width="629"/>
  <anchor x="294" y="500" name="top"/>
  <anchor x="409" y="-194" name="ogonek"/>
  <anchor x="309" y="-210" name="bottom"/>
  <anchor x="296" y="-210" name="bottomC"/>
  <outline>
    <contour>
      <point x="455" y="500" type="line"/>
      <point x="442" y="381" type="line"/>
      <point x="438" y="363" type="line"/>
      <point x="438" y="15" type="line" smooth="yes"/>
      <point x="438" y="-75"/>
      <point x="380" y="-134"/>
      <point x="298" y="-134" type="curve" smooth="yes"/>
      <point x="222" y="-134"/>
      <point x="183" y="-106"/>
      <point x="173" y="-49" type="curve"/>
      <point x="71" y="-85" type="line"/>
      <point x="89" y="-179"/>
      <point x="177" y="-215"/>
      <point x="284" y="-215" type="curve" smooth="yes"/>
      <point x="452" y="-215"/>
      <point x="546" y="-136"/>
      <point x="546" y="40" type="curve" smooth="yes"/>
      <point x="546" y="383" type="line"/>
      <point x="546" y="500" type="line"/>
    </contour>
    <contour>
      <point x="55" y="257" type="curve" smooth="yes"/>
      <point x="55" y="98"/>
      <point x="141" y="4"/>
      <point x="277" y="4" type="curve" smooth="yes"/>
      <point x="394" y="4"/>
      <point x="469" y="84"/>
      <point x="469" y="182" type="curve"/>
      <point x="438" y="252" type="line"/>
      <point x="438" y="151"/>
      <point x="384" y="91"/>
      <point x="301" y="91" type="curve" smooth="yes"/>
      <point x="215" y="91"/>
      <point x="163" y="152"/>
      <point x="163" y="257" type="curve" smooth="yes"/>
      <point x="163" y="362"/>
      <point x="215" y="423"/>
      <point x="301" y="423" type="curve" smooth="yes"/>
      <point x="385" y="423"/>
      <point x="438" y="362"/>
      <point x="438" y="263" type="curve"/>
      <point x="466" y="332" type="line"/>
      <point x="466" y="431"/>
      <point x="394" y="510"/>
      <point x="277" y="510" type="curve" smooth="yes"/>
      <point x="141" y="510"/>
      <point x="55" y="416"/>
    </contour>
  </outline>
</glyph>
<glyph name="g_idieresis" format="2">
  <advance width="814"/>
  <anchor x="677" y="500" name="top"/>
  <anchor x="727" y="2" name="ogonek"/>
  <anchor x="677" y="0" name="bottom"/>
  <anchor x="677" y="0" name="bottomC"/>
  <outline>
    <contour>
      <point x="373" y="463" type="curve"/>
      <point x="424" y="442" type="line"/>
      <point x="422" y="497"/>
      <point x="462" y="525"/>
      <point x="531" y="521" type="curve"/>
      <point x="511" y="605" type="line"/>
      <point x="424" y="607"/>
      <point x="369" y="546"/>
    </contour>
    <component base="gbase" xOffset="-9"/>
    <component base="idieresis" xOffset="540"/>
  </outline>
</glyph>
<glyph name="g_j.liga" format="2">
  <advance width="838"/>
  <outline>
    <contour>
      <point x="376" y="463" type="curve"/>
      <point x="429" y="442" type="line"/>
      <point x="428" y="496"/>
      <point x="468" y="525"/>
      <point x="540" y="522" type="curve"/>
      <point x="522" y="605" type="line"/>
      <point x="434" y="607"/>
      <point x="375" y="546"/>
    </contour>
    <contour>
      <point x="50" y="108" type="curve" smooth="yes"/>
      <point x="50" y="27"/>
      <point x="143" y="-11"/>
      <point x="215" y="-11" type="curve" smooth="yes"/>
      <point x="341" y="-11" type="line" smooth="yes"/>
      <point x="410" y="-11"/>
      <point x="433" y="-30"/>
      <point x="433" y="-62" type="curve" smooth="yes"/>
      <point x="433" y="-101"/>
      <point x="382" y="-135"/>
      <point x="279" y="-135" type="curve" smooth="yes"/>
      <point x="171" y="-135"/>
      <point x="120" y="-110"/>
      <point x="120" y="-67" type="curve" smooth="yes"/>
      <point x="120" y="-32"/>
      <point x="153" y="-11"/>
      <point x="216" y="-11" type="curve"/>
      <point x="187" y="26" type="line"/>
      <point x="86" y="26"/>
      <point x="30" y="-20"/>
      <point x="30" y="-87" type="curve" smooth="yes"/>
      <point x="30" y="-161"/>
      <point x="106" y="-215"/>
      <point x="271" y="-215" type="curve" smooth="yes"/>
      <point x="418" y="-215"/>
      <point x="524" y="-154"/>
      <point x="524" y="-50" type="curve" smooth="yes"/>
      <point x="524" y="30"/>
      <point x="463" y="78"/>
      <point x="358" y="78" type="curve" smooth="yes"/>
      <point x="225" y="78" type="line" smooth="yes"/>
      <point x="163" y="78"/>
      <point x="137" y="97"/>
      <point x="137" y="129" type="curve" smooth="yes"/>
      <point x="137" y="161"/>
      <point x="163" y="182"/>
      <point x="228" y="184" type="curve"/>
      <point x="183" y="217" type="line"/>
      <point x="107" y="213"/>
      <point x="50" y="172"/>
    </contour>
    <contour>
      <point x="55" y="341" type="curve" smooth="yes"/>
      <point x="55" y="236"/>
      <point x="139" y="172"/>
      <point x="274" y="172" type="curve" smooth="yes"/>
      <point x="410" y="172"/>
      <point x="491" y="236"/>
      <point x="491" y="341" type="curve" smooth="yes"/>
      <point x="491" y="445"/>
      <point x="410" y="510"/>
      <point x="274" y="510" type="curve" smooth="yes"/>
      <point x="139" y="510"/>
      <point x="55" y="445"/>
    </contour>
    <contour>
      <point x="385" y="341" type="curve" smooth="yes"/>
      <point x="385" y="283"/>
      <point x="344" y="248"/>
      <point x="273" y="248" type="curve" smooth="yes"/>
      <point x="203" y="248"/>
      <point x="161" y="283"/>
      <point x="161" y="341" type="curve" smooth="yes"/>
      <point x="161" y="399"/>
      <point x="203" y="434"/>
      <point x="273" y="434" type="curve" smooth="yes"/>
      <point x="344" y="434"/>
      <point x="385" y="399"/>
    </contour>
    <contour>
      <point x="648" y="500" type="line"/>
      <point x="648" y="-38" type="line" smooth="yes"/>
      <point x="648" y="-101"/>
      <point x="634" y="-123"/>
      <point x="600" y="-123" type="curve" smooth="yes"/>
      <point x="579" y="-123"/>
      <point x="566" y="-120"/>
      <point x="552" y="-112" type="curve"/>
      <point x="534" y="-202" type="line"/>
      <point x="554" y="-210"/>
      <point x="576" y="-215"/>
      <point x="606" y="-215" type="curve" smooth="yes"/>
      <point x="682" y="-215"/>
      <point x="755" y="-178"/>
      <point x="755" y="-46" type="curve" smooth="yes"/>
      <point x="755" y="500" type="line"/>
    </contour>
    <contour>
      <point x="630" y="651" type="curve" smooth="yes"/>
      <point x="630" y="611"/>
      <point x="658" y="584"/>
      <point x="701" y="584" type="curve" smooth="yes"/>
      <point x="745" y="584"/>
      <point x="773" y="611"/>
      <point x="773" y="651" type="curve" smooth="yes"/>
      <point x="773" y="691"/>
      <point x="745" y="717"/>
      <point x="701" y="717" type="curve" smooth="yes"/>
      <point x="658" y="717"/>
      <point x="630" y="691"/>
    </contour>
  </outline>
</glyph>
<glyph name="h.sc" format="2">
  <advance width="667"/>
  <anchor x="334" y="560" name="top"/>
  <anchor x="580" y="0" name="ogonek"/>
  <anchor x="334" y="0" name="bottom"/>
  <anchor x="527" y="0" name="bottomC"/>
  <outline>
    <contour>
      <point x="474" y="560" type="line"/>
      <point x="474" y="0" type="line"/>
      <point x="580" y="0" type="line"/>
      <point x="580" y="560" type="line"/>
    </contour>
    <contour>
      <point x="87" y="560" type="line"/>
      <point x="87" y="0" type="line"/>
      <point x="193" y="0" type="line"/>
      <point x="193" y="560" type="line"/>
    </contour>
    <contour>
      <point x="141" y="327" type="line"/>
      <point x="141" y="240" type="line"/>
      <point x="528" y="240" type="line"/>
      <point x="528" y="327" type="line"/>
    </contour>
  </outline>
</glyph>
<glyph name="hyphensuperior" format="2">
  <advance width="313"/>
  <outline>
    <contour>
      <point x="53" y="561" type="line"/>
      <point x="53" y="499" type="line"/>
      <point x="261" y="499" type="line"/>
      <point x="261" y="561" type="line"/>
    </contour>
  </outline>
</glyph>
<glyph name="i.sc" format="2">
  <advance width="280"/>
  <anchor x="140" y="560" name="top"/>
  <anchor x="194" y="0" name="ogonek"/>
  <anchor x="140" y="0" name="bottom"/>
  <anchor x="140" y="0" name="bottomC"/>
  <outline>
    <contour>
      <point x="87" y="560" type="line"/>
      <point x="87" y="0" type="line"/>
      <point x="194" y="0" type="line"/>
      <point x="194" y="560" type="line"/>
    </contour>
  </outline>
</glyph>
<glyph name="ij.sc.ss05" format="2">
  <advance width="577"/>
  <outline>
    <contour>
      <point x="79" y="560" type="line"/>
      <point x="79" y="247" type="line"/>
      <point x="186" y="247" type="line"/>
      <point x="186" y="560" type="line"/>
    </contour>
    <contour>
      <point x="391" y="560" type="line"/>
      <point x="391" y="213" type="line" smooth="yes"/>
      <point x="391" y="124"/>
      <point x="353" y="79"/>
      <point x="283" y="79" type="curve" smooth="yes"/>
      <point x="214" y="79"/>
      <point x="177" y="110"/>
      <point x="185" y="177" type="curve"/>
      <point x="80" y="177" type="line"/>
      <point x="66" y="58"/>
      <point x="134" y="-8"/>
      <point x="282" y="-8" type="curve" smooth="yes"/>
      <point x="414" y="-8"/>
      <point x="498" y="70"/>
      <point x="498" y="204" type="curve" smooth="yes"/>
      <point x="498" y="560" type="line"/>
    </contour>
  </outline>
</glyph>
<glyph name="j.ogonek" format="2">
  <advance width="301"/>
  <anchor x="183" y="707" name="top"/>
  <anchor x="146" y="-204" name="ogonek"/>
  <anchor x="127" y="-210" name="bottom"/>
  <anchor x="127" y="-210" name="bottomC"/>
  <outline>
    <contour>
      <point x="112" y="651" type="curve" smooth="yes"/>
      <point x="112" y="611"/>
      <point x="140" y="584"/>
      <point x="183" y="584" type="curve" smooth="yes"/>
      <point x="227" y="584"/>
      <point x="255" y="611"/>
      <point x="255" y="651" type="curve" smooth="yes"/>
      <point x="255" y="691"/>
      <point x="227" y="717"/>
      <point x="183" y="717" type="curve" smooth="yes"/>
      <point x="140" y="717"/>
      <point x="112" y="691"/>
    </contour>
    <component base="jdotless.ogonek"/>
  </outline>
</glyph>
<glyph name="jdotless.ogonek" format="2">
  <advance width="320"/>
  <anchor x="184" y="500" name="top"/>
  <anchor x="146" y="-204" name="ogonek"/>
  <anchor x="127" y="-210" name="bottom"/>
  <anchor x="127" y="-210" name="bottomC"/>
  <outline>
    <contour>
      <point x="130" y="500" type="line"/>
      <point x="130" y="-38" type="line" smooth="yes"/>
      <point x="130" y="-101"/>
      <point x="116" y="-123"/>
      <point x="82" y="-123" type="curve" smooth="yes"/>
      <point x="61" y="-123"/>
      <point x="48" y="-120"/>
      <point x="34" y="-112" type="curve"/>
      <point x="16" y="-202" type="line"/>
      <point x="36" y="-210"/>
      <point x="58" y="-215"/>
      <point x="88" y="-215" type="curve" smooth="yes"/>
      <point x="164" y="-215"/>
      <point x="237" y="-178"/>
      <point x="237" y="-46" type="curve" smooth="yes"/>
      <point x="237" y="500" type="line"/>
    </contour>
  </outline>
</glyph>
<glyph name="longs.component" format="2">
  <advance width="266"/>
  <anchor x="182" y="730" name="top"/>
  <anchor x="186" y="0" name="ogonek"/>
  <anchor x="150" y="0" name="bottom"/>
  <anchor x="132" y="0" name="bottomC"/>
  <outline>
    <contour>
      <point x="186" y="0" type="line"/>
      <point x="186" y="567" type="line" smooth="yes"/>
      <point x="186" y="622"/>
      <point x="206" y="645"/>
      <point x="241" y="645" type="curve" smooth="yes"/>
      <point x="254" y="645"/>
      <point x="265" y="641"/>
      <point x="275" y="632" type="curve"/>
      <point x="283" y="716" type="line"/>
      <point x="267" y="728"/>
      <point x="247" y="732"/>
      <point x="222" y="732" type="curve" smooth="yes"/>
      <point x="120" y="732"/>
      <point x="80" y="673"/>
      <point x="80" y="572" type="curve" smooth="yes"/>
      <point x="80" y="0" type="line"/>
    </contour>
  </outline>
</glyph>
<glyph name="longs_l" format="2">
  <advance width="592"/>
  <anchor x="556" y="354" name="center"/>
  <anchor x="486" y="0" name="bottom"/>
  <anchor x="411" y="725" name="top"/>
  <anchor x="486" y="0" name="bottomC"/>
  <anchor x="538" y="725" name="topright"/>
  <anchor x="548" y="0" name="ogonek"/>
  <outline>
    <contour>
      <point x="186" y="0" type="line"/>
      <point x="186" y="563" type="line" smooth="yes"/>
      <point x="186" y="621"/>
      <point x="212" y="645"/>
      <point x="256" y="645" type="curve" smooth="yes"/>
      <point x="274" y="645"/>
      <point x="288" y="641"/>
      <point x="300" y="631" type="curve"/>
      <point x="315" y="709" type="line"/>
      <point x="298" y="724"/>
      <point x="272" y="732"/>
      <point x="232" y="732" type="curve" smooth="yes"/>
      <point x="130" y="732"/>
      <point x="80" y="673"/>
      <point x="80" y="572" type="curve" smooth="yes"/>
      <point x="80" y="0" type="line"/>
    </contour>
    <component base="l" xOffset="280"/>
  </outline>
</glyph>
<glyph name="lslash.sc" format="2">
  <advance width="560"/>
  <anchor x="342" y="0" name="bottom"/>
  <anchor x="163" y="560" name="top"/>
  <anchor x="532" y="0" name="ogonek"/>
  <anchor x="316" y="560" name="topright"/>
  <anchor x="342" y="0" name="bottomC"/>
  <outline>
    <contour>
      <point x="6" y="238" type="line"/>
      <point x="6" y="154" type="line"/>
      <point x="365" y="337" type="line"/>
      <point x="365" y="421" type="line"/>
    </contour>
    <component base="l.sc" xOffset="17"/>
  </outline>
</glyph>
<glyph name="lslash.ss02" format="2">
  <advance width="331"/>
  <anchor x="166" y="0" name="bottom"/>
  <anchor x="173" y="725" name="top"/>
  <anchor x="217" y="2" name="ogonek"/>
  <anchor x="295" y="725" name="topright"/>
  <anchor x="167" y="0" name="bottomC"/>
  <outline>
    <contour>
      <point x="174" y="315" type="line"/>
      <point x="299" y="390" type="line"/>
      <point x="299" y="484" type="line"/>
      <point x="159" y="394" type="line"/>
      <point x="34" y="318" type="line"/>
      <point x="34" y="225" type="line"/>
    </contour>
    <component base="l.ss02" xOffset="28"/>
  </outline>
</glyph>
<glyph name="m.sc" format="2">
  <advance width="794"/>
  <anchor x="397" y="560" name="top"/>
  <anchor x="707" y="0" name="ogonek"/>
  <anchor x="397" y="0" name="bottom"/>
  <anchor x="421" y="0" name="bottomC"/>
  <outline>
    <contour>
      <point x="186" y="0" type="line"/>
      <point x="186" y="291" type="line"/>
      <point x="179" y="462" type="line"/>
      <point x="181" y="462" type="line"/>
      <point x="352" y="0" type="line"/>
      <point x="442" y="0" type="line"/>
      <point x="613" y="462" type="line"/>
      <point x="615" y="462" type="line"/>
      <point x="607" y="291" type="line"/>
      <point x="607" y="0" type="line"/>
      <point x="707" y="0" type="line"/>
      <point x="707" y="560" type="line"/>
      <point x="555" y="560" type="line"/>
      <point x="434" y="225" type="line"/>
      <point x="399" y="115" type="line"/>
      <point x="396" y="115" type="line"/>
      <point x="361" y="225" type="line"/>
      <point x="240" y="560" type="line"/>
      <point x="87" y="560" type="line"/>
      <point x="87" y="0" type="line"/>
    </contour>
  </outline>
</glyph>
<glyph name="n.sc" format="2">
  <advance width="670"/>
  <anchor x="339" y="560" name="top"/>
  <anchor x="583" y="0" name="ogonek"/>
  <anchor x="352" y="0" name="bottom"/>
  <anchor x="521" y="0" name="bottomC"/>
  <outline>
    <contour>
      <point x="482" y="560" type="line"/>
      <point x="482" y="198" type="line"/>
      <point x="487" y="112" type="line"/>
      <point x="486" y="112" type="line"/>
      <point x="439" y="197" type="line"/>
      <point x="219" y="560" type="line"/>
      <point x="87" y="560" type="line"/>
      <point x="87" y="0" type="line"/>
      <point x="187" y="0" type="line"/>
      <point x="187" y="362" type="line"/>
      <point x="183" y="448" type="line"/>
      <point x="184" y="448" type="line"/>
      <point x="231" y="362" type="line"/>
      <point x="451" y="0" type="line"/>
      <point x="583" y="0" type="line"/>
      <point x="583" y="560" type="line"/>
    </contour>
  </outline>
</glyph>
<glyph name="nine.osf" format="2">
  <advance width="613"/>
  <outline>
    <contour>
      <point x="63" y="355" type="curve" smooth="yes"/>
      <point x="63" y="224"/>
      <point x="152" y="141"/>
      <point x="283" y="141" type="curve" smooth="yes"/>
      <point x="367" y="141"/>
      <point x="440" y="178"/>
      <point x="458" y="259" type="curve"/>
      <point x="461" y="259" type="line"/>
      <point x="462" y="243"/>
      <point x="462" y="232"/>
      <point x="462" y="221" type="curve" smooth="yes"/>
      <point x="462" y="67"/>
      <point x="400" y="-27"/>
      <point x="298" y="-27" type="curve" smooth="yes"/>
      <point x="209" y="-27"/>
      <point x="173" y="16"/>
      <point x="159" y="84" type="curve"/>
      <point x="64" y="41" type="line"/>
      <point x="103" y="-63"/>
      <point x="177" y="-110"/>
      <point x="298" y="-110" type="curve" smooth="yes"/>
      <point x="466" y="-110"/>
      <point x="558" y="24"/>
      <point x="558" y="229" type="curve" smooth="yes"/>
      <point x="558" y="437"/>
      <point x="465" y="570"/>
      <point x="298" y="570" type="curve" smooth="yes"/>
      <point x="154" y="570"/>
      <point x="63" y="487"/>
    </contour>
    <contour>
      <point x="428" y="354" type="curve" smooth="yes"/>
      <point x="428" y="277"/>
      <point x="376" y="224"/>
      <point x="298" y="224" type="curve" smooth="yes"/>
      <point x="213" y="224"/>
      <point x="165" y="273"/>
      <point x="165" y="354" type="curve" smooth="yes"/>
      <point x="165" y="437"/>
      <point x="213" y="485"/>
      <point x="298" y="485" type="curve" smooth="yes"/>
      <point x="376" y="485"/>
      <point x="428" y="433"/>
    </contour>
  </outline>
</glyph>
<glyph name="oe.sc" format="2">
  <advance width="958"/>
  <anchor x="546" y="560" name="top"/>
  <anchor x="546" y="0" name="bottom"/>
  <outline>
    <contour>
      <point x="565" y="280" type="curve"/>
      <point x="563" y="464"/>
      <point x="486" y="568"/>
      <point x="326" y="568" type="curve" smooth="yes"/>
      <point x="160" y="568"/>
      <point x="54" y="459"/>
      <point x="54" y="280" type="curve" smooth="yes"/>
      <point x="54" y="101"/>
      <point x="162" y="-8"/>
      <point x="323" y="-8" type="curve" smooth="yes"/>
      <point x="483" y="-8"/>
      <point x="563" y="96"/>
    </contour>
    <contour>
      <point x="160" y="280" type="curve" smooth="yes"/>
      <point x="160" y="409"/>
      <point x="224" y="481"/>
      <point x="334" y="481" type="curve" smooth="yes"/>
      <point x="434" y="481"/>
      <point x="496" y="410"/>
      <point x="496" y="280" type="curve" smooth="yes"/>
      <point x="496" y="150"/>
      <point x="434" y="79"/>
      <point x="334" y="79" type="curve" smooth="yes"/>
      <point x="224" y="79"/>
      <point x="160" y="151"/>
    </contour>
    <contour>
      <point x="917" y="0" type="line"/>
      <point x="917" y="84" type="line"/>
      <point x="552" y="84" type="line"/>
      <point x="552" y="0" type="line"/>
    </contour>
    <contour>
      <point x="596" y="0" type="line"/>
      <point x="596" y="560" type="line"/>
      <point x="514" y="560" type="line"/>
      <point x="514" y="0" type="line"/>
    </contour>
    <contour>
      <point x="836" y="242" type="line"/>
      <point x="836" y="324" type="line"/>
      <point x="552" y="324" type="line"/>
      <point x="552" y="242" type="line"/>
    </contour>
    <contour>
      <point x="905" y="476" type="line"/>
      <point x="905" y="560" type="line"/>
      <point x="552" y="560" type="line"/>
      <point x="552" y="476" type="line"/>
    </contour>
  </outline>
</glyph>
<glyph name="ogonek.I" format="2">
  <advance width="306"/>
  <anchor x="208" y="0" name="_ogonek"/>
  <outline>
    <contour>
      <point x="153" y="23" type="line"/>
      <point x="64" y="-2"/>
      <point x="19" y="-52"/>
      <point x="19" y="-113" type="curve" smooth="yes"/>
      <point x="19" y="-178"/>
      <point x="69" y="-215"/>
      <point x="142" y="-215" type="curve" smooth="yes"/>
      <point x="181" y="-215"/>
      <point x="209" y="-208"/>
      <point x="233" y="-192" type="curve"/>
      <point x="212" y="-132" type="line"/>
      <point x="197" y="-142"/>
      <point x="180" y="-146"/>
      <point x="157" y="-146" type="curve" smooth="yes"/>
      <point x="119" y="-146"/>
      <point x="100" y="-128"/>
      <point x="100" y="-95" type="curve" smooth="yes"/>
      <point x="100" y="-65"/>
      <point x="121" y="-34"/>
      <point x="208" y="0" type="curve"/>
    </contour>
  </outline>
</glyph>
<glyph name="one.sc" format="2">
  <advance width="382"/>
  <outline>
    <contour>
      <point x="297" y="560" type="line"/>
      <point x="205" y="560" type="line"/>
      <point x="196" y="498"/>
      <point x="190" y="417"/>
      <point x="190" y="360" type="curve" smooth="yes"/>
      <point x="190" y="0" type="line"/>
      <point x="297" y="0" type="line"/>
      <point x="297" y="406" type="line"/>
    </contour>
    <contour>
      <point x="259" y="531" type="curve"/>
      <point x="205" y="560" type="line"/>
      <point x="167" y="511"/>
      <point x="69" y="464"/>
      <point x="17" y="457" type="curve"/>
      <point x="35" y="368" type="line"/>
      <point x="132" y="388"/>
      <point x="224" y="450"/>
    </contour>
  </outline>
</glyph>
<glyph name="oslash.sc" format="2">
  <advance width="670"/>
  <anchor x="335" y="560" name="top"/>
  <anchor x="406" y="0" name="ogonek"/>
  <anchor x="335" y="0" name="bottom"/>
  <anchor x="335" y="0" name="bottomC"/>
  <outline>
    <contour>
      <point x="534" y="577" type="line"/>
      <point x="461" y="480" type="line"/>
      <point x="497" y="447" type="line"/>
      <point x="597" y="577" type="line"/>
    </contour>
    <contour>
      <point x="174" y="100" type="line"/>
      <point x="213" y="68" type="line"/>
      <point x="495" y="448" type="line"/>
      <point x="456" y="480" type="line"/>
    </contour>
    <contour>
      <point x="137" y="-26" type="line"/>
      <point x="208" y="71" type="line"/>
      <point x="171" y="104" type="line"/>
      <point x="74" y="-26" type="line"/>
    </contour>
    <component base="o.sc"/>
  </outline>
</glyph>
<glyph name="p.sc" format="2">
  <advance width="573"/>
  <anchor x="295" y="560" name="top"/>
  <anchor x="140" y="0" name="bottom"/>
  <outline>
    <contour>
      <point x="324" y="205" type="line" smooth="yes"/>
      <point x="453" y="205"/>
      <point x="534" y="271"/>
      <point x="534" y="381" type="curve" smooth="yes"/>
      <point x="534" y="493"/>
      <point x="453" y="560"/>
      <point x="324" y="560" type="curve" smooth="yes"/>
      <point x="150" y="560" type="line"/>
      <point x="150" y="476" type="line"/>
      <point x="316" y="476" type="line" smooth="yes"/>
      <point x="390" y="476"/>
      <point x="428" y="444"/>
      <point x="428" y="381" type="curve" smooth="yes"/>
      <point x="428" y="319"/>
      <point x="390" y="287"/>
      <point x="316" y="287" type="curve" smooth="yes"/>
      <point x="150" y="287" type="line"/>
      <point x="150" y="205" type="line"/>
    </contour>
    <contour>
      <point x="193" y="0" type="line"/>
      <point x="193" y="560" type="line"/>
      <point x="87" y="560" type="line"/>
      <point x="87" y="0" type="line"/>
    </contour>
  </outline>
</glyph>
<glyph name="periodsuperior" format="2">
  <advance width="198"/>
  <outline>
    <contour>
      <point x="45" y="378" type="curve" smooth="yes"/>
      <point x="45" y="347"/>
      <point x="66" y="327"/>
      <point x="99" y="327" type="curve" smooth="yes"/>
      <point x="132" y="327"/>
      <point x="153" y="347"/>
      <point x="153" y="378" type="curve" smooth="yes"/>
      <point x="153" y="410"/>
      <point x="132" y="430"/>
      <point x="99" y="430" type="curve" smooth="yes"/>
      <point x="66" y="430"/>
      <point x="45" y="410"/>
    </contour>
  </outline>
</glyph>
<glyph name="question.sc" format="2">
  <advance width="489"/>
  <outline>
    <contour>
      <point x="22" y="422" type="curve"/>
      <point x="120" y="381" type="line"/>
      <point x="127" y="446"/>
      <point x="171" y="482"/>
      <point x="243" y="482" type="curve" smooth="yes"/>
      <point x="315" y="482"/>
      <point x="351" y="452"/>
      <point x="351" y="405" type="curve" smooth="yes"/>
      <point x="351" y="348"/>
      <point x="310" y="320"/>
      <point x="186" y="303" type="curve"/>
      <point x="187" y="187" type="line"/>
      <point x="288" y="187" type="line"/>
      <point x="290" y="264" type="line"/>
      <point x="383" y="274"/>
      <point x="460" y="320"/>
      <point x="460" y="420" type="curve" smooth="yes"/>
      <point x="460" y="516"/>
      <point x="372" y="568"/>
      <point x="248" y="568" type="curve" smooth="yes"/>
      <point x="116" y="568"/>
      <point x="40" y="512"/>
    </contour>
    <component base="period" xScale="0.9328" yScale="0.9074" xOffset="107"/>
  </outline>
</glyph>
<glyph name="r.sc" format="2">
  <advance width="608"/>
  <anchor x="295" y="560" name="top"/>
  <anchor x="577" y="0" name="ogonek"/>
  <anchor x="330" y="0" name="bottom"/>
  <anchor x="526" y="0" name="bottomC"/>
  <outline>
    <contour>
      <point x="149" y="560" type="line"/>
      <point x="149" y="477" type="line"/>
      <point x="327" y="477" type="line" smooth="yes"/>
      <point x="402" y="477"/>
      <point x="439" y="447"/>
      <point x="439" y="387" type="curve" smooth="yes"/>
      <point x="439" y="327"/>
      <point x="402" y="297"/>
      <point x="327" y="297" type="curve" smooth="yes"/>
      <point x="149" y="297" type="line"/>
      <point x="149" y="218" type="line"/>
      <point x="335" y="218" type="line" smooth="yes"/>
      <point x="464" y="218"/>
      <point x="545" y="281"/>
      <point x="545" y="389" type="curve" smooth="yes"/>
      <point x="545" y="496"/>
      <point x="464" y="560"/>
      <point x="335" y="560" type="curve" smooth="yes"/>
    </contour>
    <contour>
      <point x="87" y="560" type="line"/>
      <point x="87" y="0" type="line"/>
      <point x="193" y="0" type="line"/>
      <point x="193" y="560" type="line"/>
    </contour>
    <contour>
      <point x="302" y="243" type="line"/>
      <point x="458" y="0" type="line"/>
      <point x="577" y="0" type="line"/>
      <point x="386" y="282" type="line"/>
    </contour>
  </outline>
</glyph>
<glyph name="r.sc.ss03" format="2">
  <advance width="604"/>
  <anchor x="295" y="560" name="top"/>
  <anchor x="554" y="0" name="ogonek"/>
  <anchor x="328" y="0" name="bottom"/>
  <anchor x="501" y="0" name="bottomC"/>
  <outline>
    <contour>
      <point x="193" y="0" type="line"/>
      <point x="193" y="218" type="line"/>
      <point x="298" y="218" type="line" smooth="yes"/>
      <point x="377" y="218"/>
      <point x="414" y="190"/>
      <point x="419" y="131" type="curve" smooth="yes"/>
      <point x="425" y="61"/>
      <point x="431" y="25"/>
      <point x="441" y="0" type="curve"/>
      <point x="554" y="0" type="line"/>
      <point x="554" y="3" type="line"/>
      <point x="540" y="26"/>
      <point x="531" y="52"/>
      <point x="524" y="142" type="curve" smooth="yes"/>
      <point x="520" y="196"/>
      <point x="489" y="236"/>
      <point x="423" y="247" type="curve"/>
      <point x="423" y="249" type="line"/>
      <point x="499" y="266"/>
      <point x="545" y="315"/>
      <point x="545" y="393" type="curve" smooth="yes"/>
      <point x="545" y="496"/>
      <point x="464" y="560"/>
      <point x="335" y="560" type="curve" smooth="yes"/>
      <point x="87" y="560" type="line"/>
      <point x="87" y="0" type="line"/>
    </contour>
    <contour>
      <point x="193" y="476" type="line"/>
      <point x="324" y="476" type="line" smooth="yes"/>
      <point x="399" y="476"/>
      <point x="439" y="446"/>
      <point x="439" y="386" type="curve" smooth="yes"/>
      <point x="439" y="327"/>
      <point x="399" y="297"/>
      <point x="324" y="297" type="curve" smooth="yes"/>
      <point x="193" y="297" type="line"/>
    </contour>
  </outline>
</glyph>
<glyph name="registeredsuperior" format="2">
  <advance width="579"/>
  <outline>
    <contour>
      <point x="555" y="408" type="curve" smooth="yes"/>
      <point x="555" y="565"/>
      <point x="449" y="670"/>
      <point x="289" y="670" type="curve" smooth="yes"/>
      <point x="130" y="670"/>
      <point x="24" y="565"/>
      <point x="24" y="408" type="curve" smooth="yes"/>
      <point x="24" y="251"/>
      <point x="130" y="146"/>
      <point x="289" y="146" type="curve" smooth="yes"/>
      <point x="449" y="146"/>
      <point x="555" y="251"/>
    </contour>
    <contour>
      <point x="252" y="272" type="line"/>
      <point x="252" y="548" type="line"/>
      <point x="189" y="548" type="line"/>
      <point x="189" y="272" type="line"/>
    </contour>
    <contour>
      <point x="418" y="272" type="line"/>
      <point x="334" y="400" type="line"/>
      <point x="282" y="381" type="line"/>
      <point x="347" y="272" type="line"/>
    </contour>
    <contour>
      <point x="92" y="408" type="curve" smooth="yes"/>
      <point x="92" y="528"/>
      <point x="171" y="608"/>
      <point x="289" y="608" type="curve" smooth="yes"/>
      <point x="408" y="608"/>
      <point x="488" y="528"/>
      <point x="488" y="408" type="curve" smooth="yes"/>
      <point x="488" y="289"/>
      <point x="408" y="209"/>
      <point x="289" y="209" type="curve" smooth="yes"/>
      <point x="171" y="209"/>
      <point x="92" y="289"/>
    </contour>
    <contour>
      <point x="308" y="369" type="line" smooth="yes"/>
      <point x="372" y="369"/>
      <point x="411" y="401"/>
      <point x="411" y="457" type="curve" smooth="yes"/>
      <point x="411" y="513"/>
      <point x="370" y="548"/>
      <point x="309" y="548" type="curve" smooth="yes"/>
      <point x="225" y="548" type="line"/>
      <point x="225" y="497" type="line"/>
      <point x="300" y="497" type="line" smooth="yes"/>
      <point x="331" y="497"/>
      <point x="348" y="484"/>
      <point x="348" y="456" type="curve" smooth="yes"/>
      <point x="348" y="427"/>
      <point x="331" y="414"/>
      <point x="300" y="414" type="curve" smooth="yes"/>
      <point x="225" y="414" type="line"/>
      <point x="225" y="369" type="line"/>
    </contour>
  </outline>
</glyph>
<glyph name="s.sc" format="2">
  <advance width="578"/>
  <anchor x="293" y="560" name="top"/>
  <anchor x="372" y="0" name="ogonek"/>
  <anchor x="318" y="0" name="bottom"/>
  <anchor x="296" y="0" name="bottomC"/>
  <outline>
    <contour>
      <point x="57" y="395" type="curve" smooth="yes"/>
      <point x="57" y="178"/>
      <point x="426" y="276"/>
      <point x="426" y="152" type="curve" smooth="yes"/>
      <point x="426" y="104"/>
      <point x="373" y="77"/>
      <point x="294" y="77" type="curve" smooth="yes"/>
      <point x="201" y="77"/>
      <point x="140" y="110"/>
      <point x="102" y="172" type="curve"/>
      <point x="38" y="101" type="line"/>
      <point x="87" y="34"/>
      <point x="169" y="-8"/>
      <point x="294" y="-8" type="curve" smooth="yes"/>
      <point x="437" y="-8"/>
      <point x="533" y="56"/>
      <point x="533" y="159" type="curve" smooth="yes"/>
      <point x="533" y="375"/>
      <point x="164" y="277"/>
      <point x="164" y="404" type="curve" smooth="yes"/>
      <point x="164" y="448"/>
      <point x="212" y="484"/>
      <point x="293" y="484" type="curve" smooth="yes"/>
      <point x="377" y="484"/>
      <point x="423" y="457"/>
      <point x="466" y="390" type="curve"/>
      <point x="530" y="460" type="line"/>
      <point x="476" y="533"/>
      <point x="404" y="568"/>
      <point x="291" y="568" type="curve" smooth="yes"/>
      <point x="145" y="568"/>
      <point x="57" y="493"/>
    </contour>
  </outline>
</glyph>
<glyph name="s_t" format="2">
  <advance width="877"/>
  <outline>
    <contour>
      <point x="482" y="144" type="curve" smooth="yes"/>
      <point x="482" y="228"/>
      <point x="429" y="270"/>
      <point x="288" y="293" type="curve" smooth="yes"/>
      <point x="194" y="310"/>
      <point x="165" y="328"/>
      <point x="165" y="365" type="curve" smooth="yes"/>
      <point x="165" y="397"/>
      <point x="208" y="428"/>
      <point x="270" y="428" type="curve" smooth="yes"/>
      <point x="330" y="428"/>
      <point x="380" y="406"/>
      <point x="404" y="353" type="curve"/>
      <point x="476" y="399" type="line"/>
      <point x="431" y="467"/>
      <point x="422" y="509"/>
      <point x="422" y="554" type="curve" smooth="yes"/>
      <point x="422" y="610"/>
      <point x="448" y="643"/>
      <point x="496" y="643" type="curve" smooth="yes"/>
      <point x="539" y="643"/>
      <point x="575" y="612"/>
      <point x="575" y="531" type="curve" smooth="yes"/>
      <point x="575" y="132" type="line" smooth="yes"/>
      <point x="575" y="29"/>
      <point x="641" y="-10"/>
      <point x="727" y="-10" type="curve" smooth="yes"/>
      <point x="781" y="-10"/>
      <point x="828" y="6"/>
      <point x="860" y="33" type="curve"/>
      <point x="835" y="111" type="line"/>
      <point x="813" y="91"/>
      <point x="788" y="79"/>
      <point x="754" y="79" type="curve" smooth="yes"/>
      <point x="711" y="79"/>
      <point x="682" y="101"/>
      <point x="682" y="150" type="curve" smooth="yes"/>
      <point x="682" y="562" type="line" smooth="yes"/>
      <point x="682" y="681"/>
      <point x="602" y="729"/>
      <point x="508" y="729" type="curve" smooth="yes"/>
      <point x="411" y="729"/>
      <point x="333" y="679"/>
      <point x="333" y="560" type="curve" smooth="yes"/>
      <point x="333" y="516"/>
      <point x="364" y="476"/>
      <point x="391" y="453" type="curve"/>
      <point x="392" y="485" type="line"/>
      <point x="357" y="502"/>
      <point x="313" y="510"/>
      <point x="268" y="510" type="curve" smooth="yes"/>
      <point x="134" y="510"/>
      <point x="58" y="437"/>
      <point x="58" y="356" type="curve" smooth="yes"/>
      <point x="58" y="275"/>
      <point x="112" y="229"/>
      <point x="254" y="205" type="curve" smooth="yes"/>
      <point x="346" y="189"/>
      <point x="375" y="168"/>
      <point x="375" y="136" type="curve" smooth="yes"/>
      <point x="375" y="100"/>
      <point x="339" y="72"/>
      <point x="268" y="72" type="curve" smooth="yes"/>
      <point x="198" y="72"/>
      <point x="138" y="99"/>
      <point x="112" y="155" type="curve"/>
      <point x="40" y="96" type="line"/>
      <point x="82" y="23"/>
      <point x="167" y="-10"/>
      <point x="264" y="-10" type="curve" smooth="yes"/>
      <point x="402" y="-10"/>
      <point x="482" y="55"/>
    </contour>
    <contour>
      <point x="856" y="416" type="line"/>
      <point x="856" y="500" type="line"/>
      <point x="595" y="500" type="line"/>
      <point x="595" y="416" type="line"/>
    </contour>
  </outline>
</glyph>
<glyph name="seven.osf" format="2">
  <advance width="549"/>
  <outline>
    <contour>
      <point x="12" y="472" type="line"/>
      <point x="452" y="472" type="line"/>
      <point x="436" y="498" type="line"/>
      <point x="261" y="328"/>
      <point x="179" y="121"/>
      <point x="179" y="-100" type="curve"/>
      <point x="285" y="-100" type="line"/>
      <point x="285" y="115"/>
      <point x="343" y="292"/>
      <point x="516" y="471" type="curve"/>
      <point x="516" y="560" type="line"/>
      <point x="12" y="560" type="line"/>
    </contour>
  </outline>
</glyph>
<glyph name="seven.tf" format="2">
  <advance width="604"/>
  <outline>
    <contour>
      <point x="48" y="567" type="line"/>
      <point x="501" y="567" type="line"/>
      <point x="483" y="595" type="line"/>
      <point x="308" y="428"/>
      <point x="215" y="226"/>
      <point x="215" y="0" type="curve"/>
      <point x="324" y="0" type="line"/>
      <point x="324" y="227"/>
      <point x="397" y="398"/>
      <point x="565" y="571" type="curve"/>
      <point x="565" y="660" type="line"/>
      <point x="48" y="660" type="line"/>
    </contour>
  </outline>
</glyph>
<glyph name="six.sc" format="2">
  <advance width="539"/>
  <outline>
    <contour>
      <point x="494" y="174" type="curve" smooth="yes"/>
      <point x="494" y="285"/>
      <point x="415" y="350"/>
      <point x="301" y="350" type="curve" smooth="yes"/>
      <point x="237" y="350"/>
      <point x="166" y="317"/>
      <point x="147" y="260" type="curve"/>
      <point x="143" y="260" type="line"/>
      <point x="143" y="267"/>
      <point x="143" y="271"/>
      <point x="143" y="276" type="curve" smooth="yes"/>
      <point x="143" y="396"/>
      <point x="200" y="483"/>
      <point x="287" y="483" type="curve" smooth="yes"/>
      <point x="349" y="483"/>
      <point x="382" y="454"/>
      <point x="398" y="408" type="curve"/>
      <point x="485" y="449" type="line"/>
      <point x="447" y="532"/>
      <point x="388" y="568"/>
      <point x="288" y="568" type="curve" smooth="yes"/>
      <point x="149" y="568"/>
      <point x="46" y="470"/>
      <point x="46" y="281" type="curve" smooth="yes"/>
      <point x="46" y="95"/>
      <point x="130" y="-8"/>
      <point x="289" y="-8" type="curve" smooth="yes"/>
      <point x="418" y="-8"/>
      <point x="495" y="65"/>
    </contour>
    <contour>
      <point x="172" y="173" type="curve" smooth="yes"/>
      <point x="172" y="230"/>
      <point x="216" y="272"/>
      <point x="284" y="272" type="curve" smooth="yes"/>
      <point x="353" y="272"/>
      <point x="393" y="235"/>
      <point x="393" y="173" type="curve" smooth="yes"/>
      <point x="393" y="111"/>
      <point x="353" y="74"/>
      <point x="284" y="74" type="curve" smooth="yes"/>
      <point x="216" y="74"/>
      <point x="172" y="113"/>
    </contour>
  </outline>
</glyph>
<glyph name="sterling.part" format="2">
  <advance width="606"/>
  <outline>
    <contour>
      <point x="120" y="469" type="curve" smooth="yes"/>
      <point x="120" y="424"/>
      <point x="137" y="387"/>
      <point x="189" y="321" type="curve" smooth="yes"/>
      <point x="241" y="257"/>
      <point x="260" y="217"/>
      <point x="260" y="170" type="curve" smooth="yes"/>
      <point x="260" y="101"/>
      <point x="225" y="47"/>
      <point x="152" y="47" type="curve" smooth="yes"/>
      <point x="126" y="47"/>
      <point x="108" y="58"/>
      <point x="108" y="78" type="curve" smooth="yes"/>
      <point x="108" y="96"/>
      <point x="121" y="107"/>
      <point x="152" y="107" type="curve" smooth="yes"/>
      <point x="249" y="107"/>
      <point x="313" y="-10"/>
      <point x="440" y="-10" type="curve" smooth="yes"/>
      <point x="532" y="-10"/>
      <point x="581" y="56"/>
      <point x="576" y="160" type="curve"/>
      <point x="500" y="163" type="line"/>
      <point x="500" y="97"/>
      <point x="477" y="69"/>
      <point x="423" y="69" type="curve" smooth="yes"/>
      <point x="324" y="69"/>
      <point x="290" y="168"/>
      <point x="152" y="168" type="curve" smooth="yes"/>
      <point x="78" y="168"/>
      <point x="31" y="129"/>
      <point x="31" y="78" type="curve" smooth="yes"/>
      <point x="31" y="25"/>
      <point x="76" y="-10"/>
      <point x="144" y="-10" type="curve" smooth="yes"/>
      <point x="270" y="-10"/>
      <point x="337" y="89"/>
      <point x="337" y="185" type="curve" smooth="yes"/>
      <point x="337" y="240"/>
      <point x="319" y="288"/>
      <point x="270" y="356" type="curve" smooth="yes"/>
      <point x="228" y="415"/>
      <point x="216" y="443"/>
      <point x="216" y="478" type="curve" smooth="yes"/>
      <point x="216" y="540"/>
      <point x="262" y="582"/>
      <point x="335" y="582" type="curve" smooth="yes"/>
      <point x="407" y="582"/>
      <point x="440" y="541"/>
      <point x="459" y="463" type="curve"/>
      <point x="549" y="508" type="line"/>
      <point x="521" y="617"/>
      <point x="452" y="670"/>
      <point x="339" y="670" type="curve" smooth="yes"/>
      <point x="206" y="670"/>
      <point x="120" y="583"/>
    </contour>
  </outline>
</glyph>
<glyph name="sterling.part.tf" format="2">
  <advance width="605"/>
  <outline>
    <contour>
      <point x="120" y="469" type="curve" smooth="yes"/>
      <point x="120" y="424"/>
      <point x="138" y="385"/>
      <point x="187" y="321" type="curve" smooth="yes"/>
      <point x="238" y="254"/>
      <point x="254" y="217"/>
      <point x="254" y="170" type="curve" smooth="yes"/>
      <point x="254" y="101"/>
      <point x="224" y="47"/>
      <point x="154" y="47" type="curve" smooth="yes"/>
      <point x="129" y="47"/>
      <point x="112" y="58"/>
      <point x="112" y="78" type="curve" smooth="yes"/>
      <point x="112" y="96"/>
      <point x="124" y="107"/>
      <point x="153" y="107" type="curve" smooth="yes"/>
      <point x="245" y="107"/>
      <point x="308" y="-10"/>
      <point x="427" y="-10" type="curve" smooth="yes"/>
      <point x="514" y="-10"/>
      <point x="561" y="53"/>
      <point x="559" y="160" type="curve"/>
      <point x="482" y="163" type="line"/>
      <point x="482" y="97"/>
      <point x="461" y="69"/>
      <point x="410" y="69" type="curve" smooth="yes"/>
      <point x="316" y="69"/>
      <point x="287" y="168"/>
      <point x="153" y="168" type="curve" smooth="yes"/>
      <point x="81" y="168"/>
      <point x="35" y="129"/>
      <point x="35" y="78" type="curve" smooth="yes"/>
      <point x="35" y="25"/>
      <point x="79" y="-10"/>
      <point x="146" y="-10" type="curve" smooth="yes"/>
      <point x="266" y="-10"/>
      <point x="330" y="87"/>
      <point x="332" y="178" type="curve" smooth="yes"/>
      <point x="333" y="238"/>
      <point x="316" y="285"/>
      <point x="267" y="356" type="curve" smooth="yes"/>
      <point x="227" y="414"/>
      <point x="216" y="441"/>
      <point x="216" y="477" type="curve" smooth="yes"/>
      <point x="216" y="540"/>
      <point x="259" y="582"/>
      <point x="328" y="582" type="curve" smooth="yes"/>
      <point x="396" y="582"/>
      <point x="428" y="541"/>
      <point x="444" y="466" type="curve"/>
      <point x="533" y="509" type="line"/>
      <point x="505" y="617"/>
      <point x="441" y="670"/>
      <point x="333" y="670" type="curve" smooth="yes"/>
      <point x="204" y="670"/>
      <point x="120" y="583"/>
    </contour>
  </outline>
</glyph>
<glyph name="swash_bttmleft" format="2">
  <advance width="439"/>
  <outline>
    <contour>
      <point x="375" y="79" type="curve" smooth="yes"/>
      <point x="375" y="202" type="line"/>
      <point x="276" y="202" type="line"/>
      <point x="276" y="96" type="line" smooth="yes"/>
      <point x="276" y="25"/>
      <point x="236" y="-24"/>
      <point x="166" y="-24" type="curve" smooth="yes"/>
      <point x="99" y="-24"/>
      <point x="67" y="6"/>
      <point x="53" y="74" type="curve"/>
      <point x="-8" y="12" type="line"/>
      <point x="11" y="-64"/>
      <point x="66" y="-110"/>
      <point x="172" y="-110" type="curve" smooth="yes"/>
      <point x="303" y="-110"/>
      <point x="375" y="-30"/>
    </contour>
  </outline>
</glyph>
<glyph name="t_t.liga" format="2">
  <advance width="786"/>
  <anchor x="617" y="0" name="bottom"/>
  <anchor x="525" y="250" name="center"/>
  <anchor x="668" y="767" name="topright"/>
  <outline>
    <contour>
      <point x="121" y="617" type="line"/>
      <point x="121" y="132" type="line" smooth="yes"/>
      <point x="122" y="29"/>
      <point x="187" y="-10"/>
      <point x="272" y="-10" type="curve" smooth="yes"/>
      <point x="325" y="-10"/>
      <point x="372" y="6"/>
      <point x="403" y="33" type="curve"/>
      <point x="377" y="112" type="line"/>
      <point x="356" y="91"/>
      <point x="332" y="79"/>
      <point x="298" y="79" type="curve" smooth="yes"/>
      <point x="255" y="79"/>
      <point x="228" y="101"/>
      <point x="228" y="150" type="curve" smooth="yes"/>
      <point x="228" y="647" type="line"/>
    </contour>
    <contour>
      <point x="26" y="500" type="line"/>
      <point x="26" y="416" type="line"/>
      <point x="403" y="416" type="line"/>
      <point x="403" y="500" type="line"/>
    </contour>
    <contour>
      <point x="484" y="617" type="line"/>
      <point x="484" y="132" type="line" smooth="yes"/>
      <point x="485" y="29"/>
      <point x="550" y="-10"/>
      <point x="636" y="-10" type="curve" smooth="yes"/>
      <point x="690" y="-10"/>
      <point x="737" y="6"/>
      <point x="769" y="33" type="curve"/>
      <point x="744" y="111" type="line"/>
      <point x="722" y="91"/>
      <point x="698" y="79"/>
      <point x="663" y="79" type="curve" smooth="yes"/>
      <point x="620" y="79"/>
      <point x="591" y="101"/>
      <point x="591" y="150" type="curve" smooth="yes"/>
      <point x="591" y="647" type="line"/>
    </contour>
    <contour>
      <point x="388" y="500" type="line"/>
      <point x="388" y="416" type="line"/>
      <point x="765" y="416" type="line"/>
      <point x="765" y="500" type="line"/>
    </contour>
  </outline>
</glyph>
<glyph name="three.osf" format="2">
  <advance width="541"/>
  <outline>
    <contour>
      <point x="34" y="420" type="curve"/>
      <point x="127" y="381" type="line"/>
      <point x="140" y="447"/>
      <point x="183" y="487"/>
      <point x="256" y="487" type="curve" smooth="yes"/>
      <point x="329" y="487"/>
      <point x="368" y="452"/>
      <point x="368" y="377" type="curve" smooth="yes"/>
      <point x="368" y="309"/>
      <point x="324" y="270"/>
      <point x="242" y="270" type="curve" smooth="yes"/>
      <point x="215" y="270" type="line"/>
      <point x="215" y="192" type="line"/>
      <point x="245" y="192" type="line" smooth="yes"/>
      <point x="336" y="192"/>
      <point x="383" y="164"/>
      <point x="383" y="90" type="curve" smooth="yes"/>
      <point x="383" y="22"/>
      <point x="336" y="-27"/>
      <point x="252" y="-27" type="curve" smooth="yes"/>
      <point x="164" y="-27"/>
      <point x="124" y="20"/>
      <point x="105" y="97" type="curve"/>
      <point x="12" y="50" type="line"/>
      <point x="51" y="-57"/>
      <point x="129" y="-110"/>
      <point x="249" y="-110" type="curve" smooth="yes"/>
      <point x="391" y="-110"/>
      <point x="486" y="-32"/>
      <point x="486" y="83" type="curve" smooth="yes"/>
      <point x="486" y="170"/>
      <point x="435" y="228"/>
      <point x="350" y="232" type="curve"/>
      <point x="350" y="234" type="line"/>
      <point x="420" y="245"/>
      <point x="471" y="293"/>
      <point x="471" y="392" type="curve" smooth="yes"/>
      <point x="471" y="489"/>
      <point x="400" y="570"/>
      <point x="258" y="570" type="curve" smooth="yes"/>
      <point x="149" y="570"/>
      <point x="63" y="517"/>
    </contour>
  </outline>
</glyph>
<glyph name="three.tf" format="2">
  <advance width="604"/>
  <outline>
    <contour>
      <point x="82" y="520" type="curve"/>
      <point x="179" y="480" type="line"/>
      <point x="191" y="542"/>
      <point x="233" y="578"/>
      <point x="305" y="578" type="curve" smooth="yes"/>
      <point x="374" y="578"/>
      <point x="414" y="542"/>
      <point x="413" y="473" type="curve" smooth="yes"/>
      <point x="412" y="406"/>
      <point x="370" y="374"/>
      <point x="290" y="374" type="curve" smooth="yes"/>
      <point x="263" y="374" type="line"/>
      <point x="263" y="289" type="line"/>
      <point x="293" y="289" type="line" smooth="yes"/>
      <point x="382" y="289"/>
      <point x="427" y="264"/>
      <point x="428" y="192" type="curve" smooth="yes"/>
      <point x="429" y="128"/>
      <point x="382" y="82"/>
      <point x="300" y="82" type="curve" smooth="yes"/>
      <point x="214" y="82"/>
      <point x="177" y="123"/>
      <point x="161" y="199" type="curve"/>
      <point x="60" y="150" type="line"/>
      <point x="99" y="43"/>
      <point x="177" y="-10"/>
      <point x="297" y="-10" type="curve" smooth="yes"/>
      <point x="440" y="-10"/>
      <point x="536" y="69"/>
      <point x="536" y="178" type="curve" smooth="yes"/>
      <point x="536" y="272"/>
      <point x="472" y="332"/>
      <point x="397" y="332" type="curve"/>
      <point x="397" y="334" type="line"/>
      <point x="455" y="334"/>
      <point x="521" y="395"/>
      <point x="521" y="494" type="curve" smooth="yes"/>
      <point x="521" y="591"/>
      <point x="447" y="670"/>
      <point x="307" y="670" type="curve" smooth="yes"/>
      <point x="198" y="670"/>
      <point x="111" y="617"/>
    </contour>
  </outline>
</glyph>
<glyph name="uni0162.sc" format="2">
  <advance width="568"/>
  <anchor x="284" y="-210" name="bottom"/>
  <anchor x="284" y="560" name="top"/>
  <anchor x="316" y="-210" name="ogonek"/>
  <anchor x="259" y="244" name="center"/>
  <anchor x="288" y="-210" name="bottomC"/>
  <outline>
    <contour>
      <point x="322" y="-89" type="curve" smooth="yes"/>
      <point x="322" y="-124"/>
      <point x="296" y="-145"/>
      <point x="265" y="-145" type="curve" smooth="yes"/>
      <point x="236" y="-145"/>
      <point x="212" y="-132"/>
      <point x="196" y="-115" type="curve"/>
      <point x="162" y="-178" type="line"/>
      <point x="189" y="-203"/>
      <point x="225" y="-215"/>
      <point x="277" y="-215" type="curve" smooth="yes"/>
      <point x="352" y="-215"/>
      <point x="402" y="-168"/>
      <point x="402" y="-104" type="curve" smooth="yes"/>
      <point x="402" y="-53"/>
      <point x="374" y="-11"/>
      <point x="304" y="20" type="curve"/>
      <point x="243" y="0" type="line"/>
      <point x="299" y="-32"/>
      <point x="322" y="-52"/>
    </contour>
    <component base="t.sc"/>
  </outline>
</glyph>
<glyph name="uni0162.swsh" format="2">
  <advance width="733"/>
  <anchor x="453" y="0" name="bottomC"/>
  <anchor x="424" y="660" name="top"/>
  <anchor x="478" y="0" name="ogonek"/>
  <anchor x="424" y="331" name="center"/>
  <anchor x="434" y="0" name="bottom"/>
  <outline>
    <contour>
      <point x="462" y="-89" type="curve" smooth="yes"/>
      <point x="462" y="-124"/>
      <point x="437" y="-145"/>
      <point x="405" y="-145" type="curve" smooth="yes"/>
      <point x="376" y="-145"/>
      <point x="353" y="-132"/>
      <point x="337" y="-115" type="curve"/>
      <point x="302" y="-178" type="line"/>
      <point x="329" y="-203"/>
      <point x="366" y="-215"/>
      <point x="417" y="-215" type="curve" smooth="yes"/>
      <point x="492" y="-215"/>
      <point x="542" y="-168"/>
      <point x="542" y="-104" type="curve" smooth="yes"/>
      <point x="542" y="-53"/>
      <point x="514" y="-11"/>
      <point x="445" y="20" type="curve"/>
      <point x="383" y="0" type="line"/>
      <point x="439" y="-32"/>
      <point x="462" y="-52"/>
    </contour>
    <component base="T.swsh"/>
  </outline>
</glyph>
<glyph name="uni20BD.tf" format="2">
  <advance width="604"/>
  <outline>
    <contour>
      <point x="176" y="660" type="line"/>
      <point x="176" y="571" type="line"/>
      <point x="337" y="571" type="line" smooth="yes"/>
      <point x="429" y="571"/>
      <point x="470" y="531"/>
      <point x="470" y="454" type="curve" smooth="yes"/>
      <point x="470" y="378"/>
      <point x="429" y="337"/>
      <point x="337" y="337" type="curve" smooth="yes"/>
      <point x="27" y="337" type="line"/>
      <point x="27" y="263" type="line"/>
      <point x="350" y="263" type="line" smooth="yes"/>
      <point x="491" y="263"/>
      <point x="579" y="337"/>
      <point x="579" y="461" type="curve" smooth="yes"/>
      <point x="579" y="583"/>
      <point x="491" y="660"/>
      <point x="350" y="660" type="curve" smooth="yes"/>
    </contour>
    <contour>
      <point x="119" y="660" type="line"/>
      <point x="119" y="0" type="line"/>
      <point x="219" y="0" type="line"/>
      <point x="219" y="660" type="line"/>
    </contour>
    <contour>
      <point x="385" y="196" type="line"/>
      <point x="27" y="196" type="line"/>
      <point x="27" y="128" type="line"/>
      <point x="385" y="128" type="line"/>
    </contour>
  </outline>
</glyph>
<glyph name="uogonek_j" format="2">
  <advance width="892"/>
  <anchor x="699" y="-210" name="bottomC"/>
  <anchor x="756" y="707" name="top"/>
  <anchor x="719" y="-204" name="ogonek"/>
  <anchor x="699" y="-210" name="bottom"/>
  <outline>
    <contour>
      <point x="465" y="214" type="curve"/>
      <point x="429" y="237" type="line"/>
      <point x="429" y="136"/>
      <point x="361" y="78"/>
      <point x="285" y="78" type="curve" smooth="yes"/>
      <point x="226" y="78"/>
      <point x="186" y="106"/>
      <point x="186" y="199" type="curve" smooth="yes"/>
      <point x="186" y="500" type="line"/>
      <point x="79" y="500" type="line"/>
      <point x="79" y="171" type="line" smooth="yes"/>
      <point x="79" y="41"/>
      <point x="159" y="-10"/>
      <point x="259" y="-10" type="curve" smooth="yes"/>
      <point x="366" y="-10"/>
      <point x="465" y="73"/>
    </contour>
    <contour>
      <point x="540" y="-191" type="curve"/>
      <point x="534" y="-129" type="line"/>
      <point x="518" y="-140"/>
      <point x="499" y="-146"/>
      <point x="473" y="-146" type="curve" smooth="yes"/>
      <point x="441" y="-146"/>
      <point x="422" y="-131"/>
      <point x="422" y="-101" type="curve" smooth="yes"/>
      <point x="422" y="-64"/>
      <point x="453" y="-36"/>
      <point x="536" y="0" type="curve"/>
      <point x="477" y="19" type="line"/>
      <point x="387" y="-16"/>
      <point x="344" y="-56"/>
      <point x="344" y="-119" type="curve" smooth="yes"/>
      <point x="344" y="-176"/>
      <point x="380" y="-215"/>
      <point x="455" y="-215" type="curve" smooth="yes"/>
      <point x="489" y="-215"/>
      <point x="519" y="-206"/>
    </contour>
    <contour>
      <point x="536" y="0" type="line"/>
      <point x="536" y="123" type="line"/>
      <point x="536" y="500" type="line"/>
      <point x="429" y="500" type="line"/>
      <point x="429" y="171" type="line"/>
      <point x="432" y="123" type="line"/>
      <point x="446" y="-3" type="line"/>
    </contour>
    <component base="j.ogonek" xOffset="572"/>
  </outline>
</glyph>
<glyph name="v.sc" format="2">
  <advance width="602"/>
  <anchor x="301" y="560" name="top"/>
  <anchor x="364" y="0" name="ogonek"/>
  <anchor x="301" y="0" name="bottom"/>
  <anchor x="314" y="0" name="bottomC"/>
  <outline>
    <contour>
      <point x="473" y="560" type="line"/>
      <point x="339" y="203" type="line"/>
      <point x="303" y="87" type="line"/>
      <point x="302" y="87" type="line"/>
      <point x="266" y="204" type="line"/>
      <point x="133" y="560" type="line"/>
      <point x="19" y="560" type="line"/>
      <point x="239" y="0" type="line"/>
      <point x="364" y="0" type="line"/>
      <point x="583" y="560" type="line"/>
    </contour>
  </outline>
</glyph>
<glyph name="w.sc" format="2">
  <advance width="890"/>
  <anchor x="446" y="560" name="top"/>
  <anchor x="697" y="0" name="ogonek"/>
  <anchor x="446" y="0" name="bottom"/>
  <anchor x="648" y="0" name="bottomC"/>
  <outline>
    <contour>
      <point x="446" y="467" type="line"/>
      <point x="485" y="299" type="line"/>
      <point x="567" y="0" type="line"/>
      <point x="697" y="0" type="line"/>
      <point x="865" y="560" type="line"/>
      <point x="757" y="560" type="line"/>
      <point x="668" y="232" type="line"/>
      <point x="629" y="84" type="line"/>
      <point x="504" y="560" type="line"/>
      <point x="388" y="560" type="line"/>
      <point x="266" y="85" type="line"/>
      <point x="226" y="232" type="line"/>
      <point x="137" y="560" type="line"/>
      <point x="25" y="560" type="line"/>
      <point x="194" y="0" type="line"/>
      <point x="327" y="0" type="line"/>
      <point x="408" y="299" type="line"/>
      <point x="445" y="467" type="line"/>
    </contour>
  </outline>
</glyph>
<glyph name="whiteCircle.case" format="2">
  <advance width="787"/>
  <outline>
    <contour>
      <point x="735" y="330" type="curve" smooth="yes"/>
      <point x="735" y="524"/>
      <point x="589" y="670"/>
      <point x="394" y="670" type="curve" smooth="yes"/>
      <point x="199" y="670"/>
      <point x="52" y="524"/>
      <point x="52" y="330" type="curve" smooth="yes"/>
      <point x="52" y="136"/>
      <point x="199" y="-10"/>
      <point x="394" y="-10" type="curve" smooth="yes"/>
      <point x="589" y="-10"/>
      <point x="735" y="136"/>
    </contour>
    <contour>
      <point x="146" y="330" type="curve" smooth="yes"/>
      <point x="146" y="477"/>
      <point x="250" y="583"/>
      <point x="394" y="583" type="curve" smooth="yes"/>
      <point x="537" y="583"/>
      <point x="642" y="477"/>
      <point x="642" y="330" type="curve" smooth="yes"/>
      <point x="642" y="183"/>
      <point x="537" y="77"/>
      <point x="394" y="77" type="curve" smooth="yes"/>
      <point x="250" y="77"/>
      <point x="146" y="183"/>
    </contour>
  </outline>
</glyph>
<glyph name="whiteSmallSquare.case" format="2">
  <advance width="787"/>
  <outline>
    <contour>
      <point x="723" y="0" type="line"/>
      <point x="723" y="660" type="line"/>
      <point x="65" y="660" type="line"/>
      <point x="65" y="0" type="line"/>
    </contour>
    <contour>
      <point x="157" y="578" type="line"/>
      <point x="631" y="578" type="line"/>
      <point x="631" y="82" type="line"/>
      <point x="157" y="82" type="line"/>
    </contour>
  </outline>
</glyph>
<glyph name="zero.osf" format="2">
  <advance width="603"/>
  <outline>
    <contour>
      <point x="55" y="280" type="curve" smooth="yes"/>
      <point x="55" y="90"/>
      <point x="139" y="-10"/>
      <point x="302" y="-10" type="curve" smooth="yes"/>
      <point x="465" y="-10"/>
      <point x="548" y="90"/>
      <point x="548" y="280" type="curve" smooth="yes"/>
      <point x="548" y="470"/>
      <point x="465" y="570"/>
      <point x="302" y="570" type="curve" smooth="yes"/>
      <point x="139" y="570"/>
      <point x="55" y="470"/>
    </contour>
    <contour>
      <point x="442" y="280" type="curve" smooth="yes"/>
      <point x="442" y="142"/>
      <point x="394" y="73"/>
      <point x="302" y="73" type="curve" smooth="yes"/>
      <point x="210" y="73"/>
      <point x="162" y="142"/>
      <point x="162" y="280" type="curve" smooth="yes"/>
      <point x="162" y="418"/>
      <point x="210" y="487"/>
      <point x="302" y="487" type="curve" smooth="yes"/>
      <point x="394" y="487"/>
      <point x="442" y="418"/>
    </contour>
  </outline>
</glyph>
<glyph name="zero.tf" format="2">
  <advance width="604"/>
  <outline>
    <contour>
      <point x="554" y="330" type="curve" smooth="yes"/>
      <point x="554" y="552"/>
      <point x="467" y="670"/>
      <point x="302" y="670" type="curve" smooth="yes"/>
      <point x="137" y="670"/>
      <point x="50" y="552"/>
      <point x="50" y="330" type="curve" smooth="yes"/>
      <point x="50" y="108"/>
      <point x="137" y="-10"/>
      <point x="302" y="-10" type="curve" smooth="yes"/>
      <point x="467" y="-10"/>
      <point x="554" y="108"/>
    </contour>
    <contour>
      <point x="159" y="330" type="curve" smooth="yes"/>
      <point x="159" y="496"/>
      <point x="207" y="579"/>
      <point x="302" y="579" type="curve" smooth="yes"/>
      <point x="397" y="579"/>
      <point x="445" y="496"/>
      <point x="445" y="330" type="curve" smooth="yes"/>
      <point x="445" y="164"/>
      <point x="397" y="81"/>
      <point x="302" y="81" type="curve" smooth="yes"/>
      <point x="207" y="81"/>
      <point x="159" y="164"/>
    </contour>
  </outline>
</glyph>
<glyph name="zero.tf.zero" format="2">
  <advance width="604"/>
  <outline>
    <contour>
      <point x="436" y="576" type="line"/>
      <point x="384" y="613" type="line"/>
      <point x="169" y="75" type="line"/>
      <point x="225" y="48" type="line"/>
    </contour>
    <component base="zero.tf"/>
  </outline>
</glyph>
<glyph name="zero.tosf.zero" format="2">
  <advance width="604"/>
  <outline>
    <contour>
      <point x="451" y="476" type="line"/>
      <point x="397" y="513" type="line"/>
      <point x="175" y="75" type="line"/>
      <point x="234" y="47" type="line"/>
    </contour>
    <component base="zero.tosf"/>
  </outline>
</glyph>
